{"glyphs":{"0":{"ha":694,"x_min":46,"x_max":647,"o":"m 293 -14 q 108 72 171 -14 q 46 292 46 157 q 70 465 46 383 q 141 612 94 547 q 253 713 188 676 q 400 750 318 750 q 585 665 522 750 q 647 444 647 579 q 623 269 647 351 q 552 122 599 186 q 440 22 506 58 q 293 -14 375 -14 m 306 83 q 461 128 399 83 q 555 247 524 172 q 586 413 586 322 q 533 585 586 518 q 379 653 479 653 q 234 608 294 653 q 140 489 174 564 q 107 322 107 414 q 158 150 107 217 q 306 83 210 83 z "},"1":{"ha":694,"x_min":76,"x_max":618,"o":"m 76 0 l 81 22 l 240 78 l 343 658 l 203 714 l 207 736 l 618 736 l 614 714 l 454 658 l 351 78 l 492 22 l 488 0 l 76 0 z "},"2":{"ha":694,"x_min":28,"x_max":578,"o":"m 28 0 l 32 28 q 229 208 149 133 q 360 337 310 282 q 434 440 411 392 q 457 540 457 488 q 427 631 457 593 q 332 669 397 669 q 234 637 275 669 q 160 543 193 604 l 121 565 q 239 707 174 664 q 379 750 304 750 q 527 698 476 750 q 578 567 578 646 q 548 444 578 499 q 463 338 518 390 q 331 226 407 286 q 161 90 254 167 l 435 90 l 529 228 l 550 228 l 497 0 l 28 0 z "},"3":{"ha":694,"x_min":0,"x_max":583,"o":"m 232 -193 q 83 -167 142 -193 q 4 -97 24 -140 q 0 -76 0 -86 q 6 -53 0 -64 q 29 -32 13 -43 l 79 6 l 92 6 l 100 -18 q 151 -105 118 -69 q 258 -140 185 -140 q 403 -74 356 -140 q 450 89 450 -8 q 394 230 450 178 q 218 282 339 282 l 211 339 l 214 339 q 341 364 285 339 q 430 435 397 389 q 463 544 463 481 q 432 633 463 597 q 338 669 401 669 q 240 637 281 669 q 165 543 199 604 l 126 565 q 244 707 179 664 q 385 750 310 750 q 531 700 478 750 q 583 574 583 650 q 528 435 583 493 q 396 347 472 376 q 528 256 485 319 q 571 113 571 193 q 528 -44 571 25 q 409 -153 485 -114 q 232 -193 333 -193 z "},"4":{"ha":694,"x_min":-32,"x_max":615,"o":"m 279 -181 l 331 113 l -32 113 l -25 154 l 514 736 l 551 736 l 457 196 l 615 196 l 600 113 l 442 113 l 390 -181 l 279 -181 m 90 196 l 346 196 l 408 547 l 90 196 z "},"5":{"ha":694,"x_min":21,"x_max":615,"o":"m 208 -194 q 66 -169 111 -194 q 21 -110 21 -144 q 50 -65 21 -85 l 103 -28 l 115 -28 l 128 -60 q 169 -106 139 -87 q 256 -125 200 -125 q 369 -98 317 -125 q 452 -17 421 -71 q 483 117 483 36 q 426 256 483 200 q 247 311 369 311 q 118 299 193 311 l 194 736 l 615 736 l 596 629 l 233 629 l 194 413 q 281 417 243 417 q 449 383 383 417 q 545 293 514 350 q 576 164 576 236 q 551 34 576 97 q 476 -81 525 -29 q 360 -164 428 -133 q 208 -194 292 -194 z "},"6":{"ha":694,"x_min":43,"x_max":660,"o":"m 289 -14 q 151 22 206 -14 q 69 119 96 57 q 43 260 43 181 q 81 462 43 361 q 197 653 119 563 q 390 816 275 744 q 660 931 506 888 l 651 894 q 414 774 511 849 q 258 603 317 699 q 176 404 200 508 q 281 502 219 465 q 414 539 342 539 q 564 478 514 539 q 614 321 614 417 q 585 183 614 244 q 509 77 557 121 q 404 10 461 33 q 289 -14 347 -14 m 160 251 q 199 92 160 142 q 303 43 239 43 q 404 74 358 43 q 478 159 450 104 q 506 288 506 214 q 376 453 506 453 q 259 421 317 453 q 164 335 201 389 q 160 251 160 293 z "},"7":{"ha":694,"x_min":31,"x_max":660,"o":"m 31 -181 q 102 -55 71 -112 q 168 64 133 3 q 250 201 203 125 q 367 381 297 276 q 539 629 436 485 l 69 629 l 92 736 l 660 736 l 656 708 q 530 528 592 617 q 408 338 468 439 q 288 112 347 238 q 171 -181 229 -14 l 31 -181 z "},"8":{"ha":694,"x_min":24,"x_max":649,"o":"m 281 -14 q 152 10 211 -14 q 58 80 93 35 q 24 185 24 125 q 87 336 24 268 q 271 467 150 404 q 165 569 196 522 q 135 676 135 615 q 175 803 135 744 q 281 896 215 861 q 425 931 347 931 q 541 903 490 931 q 620 831 592 876 q 649 729 649 785 q 599 609 649 667 q 428 488 550 551 q 528 401 493 442 q 576 322 563 361 q 589 238 589 282 q 548 115 589 172 q 437 22 507 58 q 281 -14 367 -14 m 247 719 q 274 619 247 667 q 383 518 300 572 q 504 608 469 565 q 539 719 539 651 q 503 833 539 794 q 399 872 467 872 q 285 828 322 872 q 247 719 247 783 m 136 207 q 179 85 136 128 q 301 43 222 43 q 435 92 388 43 q 483 218 483 142 q 438 338 483 292 q 310 440 393 385 q 200 358 238 393 q 149 289 163 324 q 136 207 136 254 z "},"9":{"ha":694,"x_min":-3,"x_max":614,"o":"m -3 -194 l 6 -158 q 243 -37 146 -112 q 399 133 340 38 q 481 332 457 228 q 376 234 438 271 q 243 197 315 197 q 93 258 143 197 q 43 415 43 319 q 72 553 43 492 q 148 659 100 615 q 253 726 196 703 q 368 750 310 750 q 507 715 453 750 q 588 617 561 679 q 614 476 614 556 q 575 274 614 375 q 460 83 536 174 q 267 -80 383 -8 q -3 -194 151 -151 m 151 449 q 281 283 151 283 q 398 315 340 283 q 493 401 456 347 q 497 485 497 443 q 458 644 497 594 q 354 693 418 693 q 253 663 300 693 q 179 577 207 632 q 151 449 151 522 z "}," ":{"ha":331,"x_min":0,"x_max":0,"o":""}," ":{"ha":694,"x_min":0,"x_max":0,"o":""}," ":{"ha":347,"x_min":0,"x_max":0,"o":""}," ":{"ha":174,"x_min":0,"x_max":0,"o":""}," ":{"ha":35,"x_min":0,"x_max":0,"o":""},"​":{"ha":0,"x_min":0,"x_max":0,"o":""},"A":{"ha":993,"x_min":-21,"x_max":882,"o":"m -21 0 l -15 22 l 67 65 l 557 924 l 617 924 l 799 72 l 882 22 l 876 0 l 547 0 l 551 22 l 678 71 l 626 331 l 297 331 l 149 67 l 261 22 l 257 0 l -21 0 m 336 400 l 613 400 l 540 764 l 336 400 z "},"B":{"ha":869,"x_min":14,"x_max":786,"o":"m 14 0 l 18 22 l 133 78 l 267 839 l 171 894 l 175 917 l 475 917 q 697 868 614 917 q 779 722 779 819 q 724 582 779 649 q 568 490 669 515 q 731 417 676 472 q 786 278 786 363 q 742 147 786 211 q 608 42 697 83 q 388 0 519 0 l 14 0 m 471 847 l 386 847 l 326 507 l 415 507 q 592 562 533 507 q 650 699 650 617 q 608 810 650 772 q 471 847 567 847 m 436 438 l 314 438 l 250 69 l 400 69 q 592 126 529 69 q 656 278 656 183 q 603 399 656 361 q 436 438 550 438 z "},"C":{"ha":929,"x_min":83,"x_max":874,"o":"m 444 -14 q 249 34 329 -14 q 126 166 168 82 q 83 360 83 250 q 126 582 83 478 q 244 764 169 686 q 415 886 318 842 q 618 931 511 931 q 752 915 697 931 q 874 864 807 900 l 838 621 l 815 621 l 760 793 q 690 848 725 829 q 601 867 654 867 q 435 829 507 867 q 313 726 363 792 q 238 576 264 660 q 213 397 213 492 q 288 142 213 233 q 482 50 364 50 q 593 74 542 50 q 685 124 644 97 l 796 275 l 818 275 l 765 54 q 677 18 722 33 q 576 -6 632 3 q 444 -14 521 -14 z "},"D":{"ha":1017,"x_min":14,"x_max":947,"o":"m 14 0 l 18 22 l 133 78 l 267 839 l 171 894 l 175 917 l 482 917 q 750 869 647 917 q 900 737 853 821 q 947 544 947 653 q 927 402 947 476 q 865 256 907 328 q 756 127 822 185 q 600 35 690 69 q 392 0 510 0 l 14 0 m 463 847 l 388 847 l 250 69 l 403 69 q 633 126 540 69 q 772 286 725 183 q 818 528 818 389 q 733 761 818 675 q 463 847 647 847 z "},"E":{"ha":863,"x_min":14,"x_max":814,"o":"m 14 0 l 18 22 l 133 78 l 267 839 l 171 894 l 175 917 l 814 917 l 771 678 l 749 678 l 697 847 l 388 847 l 328 508 l 551 508 l 638 626 l 660 626 l 606 322 l 583 322 l 540 439 l 315 439 l 250 69 l 621 69 l 732 253 l 754 253 l 710 0 l 14 0 z "},"F":{"ha":838,"x_min":14,"x_max":807,"o":"m 14 0 l 18 22 l 133 78 l 267 839 l 171 894 l 175 917 l 807 917 l 765 678 l 743 678 l 690 847 l 388 847 l 328 508 l 538 508 l 624 626 l 646 626 l 592 322 l 569 322 l 526 439 l 315 439 l 251 78 l 375 22 l 371 0 l 14 0 z "},"G":{"ha":1026,"x_min":83,"x_max":933,"o":"m 444 -14 q 249 34 329 -14 q 126 166 168 82 q 83 360 83 250 q 128 582 83 478 q 249 765 172 686 q 424 888 325 843 q 632 932 522 932 q 735 926 689 932 q 822 905 781 919 q 913 864 864 890 l 876 635 l 854 635 l 799 793 q 719 850 761 833 q 615 867 676 867 q 442 829 517 867 q 315 726 367 792 q 238 575 264 660 q 211 396 211 490 q 247 215 211 289 q 348 101 283 140 q 496 63 413 63 q 581 69 539 63 q 669 96 624 76 l 710 325 l 601 381 l 607 403 l 933 403 l 929 381 l 828 321 l 790 103 q 626 18 721 50 q 444 -14 531 -14 z "},"H":{"ha":1075,"x_min":14,"x_max":1061,"o":"m 14 0 l 18 22 l 124 78 l 258 839 l 158 894 l 163 917 l 493 917 l 489 894 l 376 839 l 318 507 l 768 507 l 826 839 l 726 894 l 731 917 l 1061 917 l 1057 894 l 944 839 l 810 78 l 917 22 l 913 0 l 582 0 l 586 22 l 692 78 l 756 438 l 306 438 l 242 78 l 349 22 l 344 0 l 14 0 z "},"I":{"ha":507,"x_min":14,"x_max":493,"o":"m 14 0 l 18 22 l 124 78 l 258 839 l 158 894 l 163 917 l 493 917 l 489 894 l 376 839 l 242 78 l 349 22 l 344 0 l 14 0 z "},"J":{"ha":521,"x_min":-90,"x_max":514,"o":"m -47 -240 q -78 -227 -67 -240 q -79 -181 -90 -214 l -61 -126 l -53 -126 q -19 -136 -32 -133 q 11 -139 -7 -139 q 63 -125 39 -139 q 106 -67 86 -111 q 140 71 125 -22 l 276 839 l 181 894 l 185 917 l 514 917 l 510 894 l 396 839 l 306 333 q 233 53 278 178 q 118 -137 188 -71 q 46 -203 72 -181 q -1 -233 19 -225 q -47 -240 -22 -240 z "},"K":{"ha":972,"x_min":14,"x_max":950,"o":"m 14 0 l 18 22 l 133 78 l 267 839 l 171 894 l 175 917 l 506 917 l 500 894 l 386 839 l 251 78 l 349 22 l 343 0 l 14 0 m 667 0 l 322 469 l 754 847 l 668 894 l 672 917 l 950 917 l 944 894 l 860 861 l 442 497 l 767 72 l 851 22 l 847 0 l 667 0 z "},"L":{"ha":831,"x_min":14,"x_max":724,"o":"m 14 0 l 18 22 l 133 78 l 267 839 l 171 894 l 175 917 l 518 917 l 514 894 l 386 839 l 251 69 l 572 69 l 701 308 l 724 308 l 669 0 l 14 0 z "},"M":{"ha":1281,"x_min":14,"x_max":1267,"o":"m 14 0 l 18 22 l 132 78 l 296 838 l 181 894 l 186 917 l 433 917 l 617 168 l 1033 917 l 1267 917 l 1261 894 l 1144 840 l 1056 78 l 1139 22 l 1135 0 l 828 0 l 832 22 l 939 76 l 1022 756 l 596 -7 l 538 -7 l 354 756 l 214 76 l 311 22 l 307 0 l 14 0 z "},"N":{"ha":1078,"x_min":14,"x_max":1071,"o":"m 14 0 l 18 22 l 136 78 l 269 836 l 172 894 l 176 917 l 371 917 l 757 225 l 865 842 l 738 894 l 743 917 l 1071 917 l 1067 894 l 950 840 l 801 -7 l 750 -7 l 336 728 l 221 76 l 349 22 l 343 0 l 14 0 z "},"O":{"ha":1064,"x_min":83,"x_max":981,"o":"m 461 -14 q 263 38 347 -14 q 131 181 178 89 q 83 392 83 272 q 122 593 83 496 q 231 767 161 690 q 396 888 301 843 q 601 932 490 932 q 801 881 717 932 q 933 737 886 829 q 981 525 981 644 q 942 326 981 422 q 835 153 904 231 q 670 31 765 76 q 461 -14 575 -14 m 506 53 q 647 89 583 53 q 758 190 711 125 q 830 337 804 254 q 856 514 856 419 q 819 699 856 619 q 716 823 782 778 q 564 868 650 868 q 381 806 461 868 q 255 640 300 744 q 210 406 210 535 q 247 222 210 301 q 351 97 285 142 q 506 53 417 53 z "},"P":{"ha":863,"x_min":14,"x_max":821,"o":"m 14 0 l 18 22 l 133 78 l 267 839 l 171 894 l 175 917 l 479 917 q 727 863 633 917 q 821 690 821 808 q 773 552 821 617 q 635 447 725 488 q 421 407 544 407 l 310 407 l 251 78 l 361 22 l 357 0 l 14 0 m 388 847 l 322 476 l 453 476 q 632 534 574 476 q 690 681 690 592 q 633 808 690 768 q 472 847 576 847 l 388 847 z "},"Q":{"ha":1064,"x_min":83,"x_max":1011,"o":"m 461 -14 q 263 38 347 -14 q 131 181 178 89 q 83 392 83 272 q 122 593 83 496 q 231 767 161 690 q 396 888 301 843 q 601 932 490 932 q 801 881 717 932 q 933 737 886 829 q 981 525 981 644 q 936 312 981 415 q 812 129 892 208 q 624 14 732 50 q 758 -94 704 -57 q 854 -144 811 -131 q 946 -158 897 -158 q 1011 -147 985 -158 l 1007 -169 q 930 -196 975 -185 q 836 -207 885 -207 q 732 -193 785 -207 q 615 -137 679 -179 q 468 -14 551 -96 l 461 -14 m 506 53 q 647 89 583 53 q 758 190 711 125 q 830 337 804 254 q 856 514 856 419 q 819 699 856 619 q 716 823 782 778 q 564 868 650 868 q 381 806 461 868 q 255 640 300 744 q 210 406 210 535 q 247 222 210 301 q 351 97 285 142 q 506 53 417 53 z "},"R":{"ha":867,"x_min":14,"x_max":811,"o":"m 14 0 l 18 22 l 133 78 l 267 839 l 171 894 l 175 917 l 458 917 q 688 860 604 917 q 772 706 772 803 q 709 544 772 611 q 553 450 646 476 l 732 72 l 811 22 l 807 0 l 626 0 l 443 425 l 313 425 l 251 79 l 342 22 l 338 0 l 14 0 m 451 847 l 388 847 l 325 494 l 442 494 q 550 522 506 494 q 619 592 594 549 q 643 686 643 636 q 592 804 643 761 q 451 847 540 847 z "},"S":{"ha":679,"x_min":0,"x_max":638,"o":"m 246 -14 q 110 2 164 -14 q 0 50 56 18 l 26 278 l 49 278 l 103 115 q 178 61 140 78 q 257 44 217 44 q 406 102 356 44 q 456 251 456 160 q 419 349 456 308 q 286 442 382 389 q 172 536 208 486 q 136 654 136 586 q 179 796 136 733 q 290 894 222 858 q 431 931 357 931 q 540 915 492 931 q 638 872 589 900 l 613 650 l 590 650 l 539 811 q 484 851 515 833 q 404 869 453 869 q 324 847 361 869 q 265 781 288 824 q 242 683 242 739 q 273 597 242 633 q 378 518 304 560 q 492 442 450 478 q 552 367 533 407 q 571 276 571 328 q 525 125 571 190 q 405 23 479 60 q 246 -14 331 -14 z "},"T":{"ha":896,"x_min":104,"x_max":924,"o":"m 185 0 l 190 22 l 331 78 l 468 847 l 253 847 l 126 636 l 104 636 l 153 917 l 924 917 l 874 636 l 851 636 l 799 847 l 588 847 l 450 78 l 572 22 l 568 0 l 185 0 z "},"U":{"ha":1088,"x_min":174,"x_max":1074,"o":"m 475 -14 q 258 51 342 -14 q 175 258 175 117 q 178 305 175 281 q 185 356 181 329 l 269 839 l 174 894 l 178 917 l 508 917 l 503 894 l 389 839 l 307 376 q 298 322 301 350 q 294 272 294 294 q 351 110 294 160 q 511 60 408 60 q 624 89 569 60 q 718 178 678 118 q 774 328 758 238 l 864 842 l 740 894 l 746 917 l 1074 917 l 1069 894 l 956 840 l 871 356 q 792 141 847 222 q 656 23 738 60 q 475 -14 575 -14 z "},"V":{"ha":972,"x_min":125,"x_max":1014,"o":"m 390 -7 l 208 846 l 125 894 l 131 917 l 460 917 l 456 894 l 332 847 l 471 178 l 479 178 l 843 847 l 732 894 l 736 917 l 1014 917 l 1008 894 l 926 850 l 450 -7 l 390 -7 z "},"W":{"ha":1315,"x_min":125,"x_max":1385,"o":"m 314 -7 l 217 842 l 125 894 l 131 917 l 465 917 l 461 894 l 335 844 l 399 219 l 408 219 l 754 924 l 803 924 l 921 221 l 928 221 l 1201 847 l 1089 894 l 1093 917 l 1385 917 l 1381 894 l 1286 849 l 896 -7 l 847 -7 l 726 686 l 717 686 l 364 -7 l 314 -7 z "},"X":{"ha":975,"x_min":-35,"x_max":996,"o":"m -35 0 l -29 22 l 72 71 l 436 467 l 228 849 l 153 894 l 157 917 l 486 917 l 482 894 l 353 849 l 351 842 l 525 531 l 803 842 l 803 847 l 707 894 l 711 917 l 996 917 l 992 894 l 907 850 l 558 471 l 781 74 l 864 22 l 860 0 l 524 0 l 528 22 l 649 69 l 650 75 l 469 406 l 172 75 l 172 69 l 276 22 l 272 0 l -35 0 z "},"Y":{"ha":943,"x_min":132,"x_max":992,"o":"m 231 0 l 235 22 l 363 78 l 425 426 l 206 847 l 132 894 l 138 917 l 451 917 l 446 894 l 333 850 l 332 844 l 515 496 l 796 842 l 797 847 l 700 894 l 706 917 l 992 917 l 988 894 l 899 851 l 543 428 l 481 78 l 590 22 l 586 0 l 231 0 z "},"Z":{"ha":858,"x_min":49,"x_max":810,"o":"m 49 0 l 57 49 l 651 847 l 319 847 l 203 664 l 181 664 l 225 917 l 810 917 l 801 868 l 204 69 l 569 69 l 688 267 l 710 267 l 663 0 l 49 0 z "},"À":{"ha":993,"x_min":-21,"x_max":882,"o":"m -21 0 l -15 22 l 67 65 l 557 924 l 617 924 l 799 72 l 882 22 l 876 0 l 547 0 l 551 22 l 678 71 l 626 331 l 297 331 l 149 67 l 261 22 l 257 0 l -21 0 m 336 400 l 613 400 l 540 764 l 336 400 m 590 986 l 411 1110 q 381 1153 383 1129 q 382 1197 379 1176 l 479 1197 l 604 986 l 590 986 z "},"Á":{"ha":993,"x_min":-21,"x_max":882,"o":"m -21 0 l -15 22 l 67 65 l 557 924 l 617 924 l 799 72 l 882 22 l 876 0 l 547 0 l 551 22 l 678 71 l 626 331 l 297 331 l 149 67 l 261 22 l 257 0 l -21 0 m 336 400 l 613 400 l 540 764 l 336 400 m 590 986 l 738 1197 l 846 1197 q 831 1155 842 1176 q 786 1110 819 1133 l 604 986 l 590 986 z "},"Â":{"ha":993,"x_min":-21,"x_max":882,"o":"m -21 0 l -15 22 l 67 65 l 557 924 l 617 924 l 799 72 l 882 22 l 876 0 l 547 0 l 551 22 l 678 71 l 626 331 l 297 331 l 149 67 l 261 22 l 257 0 l -21 0 m 336 400 l 613 400 l 540 764 l 336 400 m 396 986 l 614 1197 l 653 1197 l 785 986 l 771 986 l 618 1100 l 410 986 l 396 986 z "},"Ã":{"ha":993,"x_min":-21,"x_max":882,"o":"m -21 0 l -15 22 l 67 65 l 557 924 l 617 924 l 799 72 l 882 22 l 876 0 l 547 0 l 551 22 l 678 71 l 626 331 l 297 331 l 149 67 l 261 22 l 257 0 l -21 0 m 336 400 l 613 400 l 540 764 l 336 400 m 399 1008 q 458 1114 433 1081 q 503 1157 483 1147 q 547 1167 524 1167 q 609 1146 582 1167 q 660 1105 636 1125 q 711 1085 683 1085 q 755 1098 735 1085 q 808 1167 775 1111 l 831 1167 q 771 1061 796 1094 q 725 1018 746 1028 q 682 1008 704 1008 q 621 1029 647 1008 q 571 1070 594 1050 q 519 1090 547 1090 q 475 1077 496 1090 q 421 1008 454 1064 l 399 1008 z "},"Ä":{"ha":993,"x_min":-21,"x_max":882,"o":"m -21 0 l -15 22 l 67 65 l 557 924 l 617 924 l 799 72 l 882 22 l 876 0 l 547 0 l 551 22 l 678 71 l 626 331 l 297 331 l 149 67 l 261 22 l 257 0 l -21 0 m 336 400 l 613 400 l 540 764 l 336 400 m 499 1029 q 454 1047 472 1029 q 436 1092 436 1065 q 454 1136 436 1118 q 499 1154 472 1154 q 543 1136 525 1154 q 561 1092 561 1118 q 543 1047 561 1065 q 499 1029 525 1029 m 735 1029 q 690 1047 708 1029 q 672 1092 672 1065 q 690 1136 672 1118 q 735 1154 708 1154 q 779 1136 761 1154 q 797 1092 797 1118 q 779 1047 797 1065 q 735 1029 761 1029 z "},"Ā":{"ha":993,"x_min":-21,"x_max":882,"o":"m -21 0 l -15 22 l 67 65 l 557 924 l 617 924 l 799 72 l 882 22 l 876 0 l 547 0 l 551 22 l 678 71 l 626 331 l 297 331 l 149 67 l 261 22 l 257 0 l -21 0 m 336 400 l 613 400 l 540 764 l 336 400 m 433 1065 l 444 1126 l 796 1126 l 783 1065 l 433 1065 z "},"Ă":{"ha":993,"x_min":-21,"x_max":882,"o":"m -21 0 l -15 22 l 67 65 l 557 924 l 617 924 l 799 72 l 882 22 l 876 0 l 547 0 l 551 22 l 678 71 l 626 331 l 297 331 l 149 67 l 261 22 l 257 0 l -21 0 m 336 400 l 613 400 l 540 764 l 336 400 m 597 986 q 476 1039 508 986 q 439 1197 443 1092 l 453 1197 q 483 1111 463 1139 q 533 1074 503 1083 q 603 1065 563 1065 q 678 1073 643 1065 q 747 1108 714 1081 q 811 1197 779 1136 l 825 1197 q 597 986 760 986 z "},"Å":{"ha":993,"x_min":-21,"x_max":882,"o":"m -21 0 l -15 22 l 67 65 l 557 924 l 617 924 l 799 72 l 882 22 l 876 0 l 547 0 l 551 22 l 678 71 l 626 331 l 297 331 l 149 67 l 261 22 l 257 0 l -21 0 m 336 400 l 613 400 l 540 764 l 336 400 m 597 986 q 526 1013 549 986 q 504 1081 504 1039 q 540 1176 504 1135 q 638 1217 576 1217 q 708 1190 685 1217 q 731 1122 731 1164 q 694 1028 731 1069 q 597 986 658 986 m 604 1017 q 657 1047 639 1017 q 675 1121 675 1078 q 665 1171 675 1154 q 631 1188 656 1188 q 578 1160 599 1188 q 558 1085 558 1132 q 604 1017 558 1017 z "},"Ǻ":{"ha":993,"x_min":-21,"x_max":893,"o":"m -21 0 l -15 22 l 67 65 l 557 924 l 617 924 l 799 72 l 882 22 l 876 0 l 547 0 l 551 22 l 678 71 l 626 331 l 297 331 l 149 67 l 261 22 l 257 0 l -21 0 m 336 400 l 613 400 l 540 764 l 336 400 m 597 986 q 526 1013 549 986 q 504 1081 504 1039 q 540 1176 504 1135 q 638 1217 576 1217 q 708 1190 685 1217 q 731 1122 731 1164 q 694 1028 731 1069 q 597 986 658 986 m 604 1017 q 657 1047 639 1017 q 675 1121 675 1078 q 665 1171 675 1154 q 631 1188 656 1188 q 578 1160 599 1188 q 558 1085 558 1132 q 604 1017 558 1017 m 638 1257 l 785 1468 l 893 1468 q 878 1426 889 1447 q 833 1381 867 1404 l 651 1257 l 638 1257 z "},"Ạ":{"ha":993,"x_min":-21,"x_max":882,"o":"m -21 0 l -15 22 l 67 65 l 557 924 l 617 924 l 799 72 l 882 22 l 876 0 l 547 0 l 551 22 l 678 71 l 626 331 l 297 331 l 149 67 l 261 22 l 257 0 l -21 0 m 336 400 l 613 400 l 540 764 l 336 400 z "},"Ą":{"ha":993,"x_min":-21,"x_max":882,"o":"m -21 0 l -15 22 l 67 65 l 557 924 l 617 924 l 799 72 l 882 22 l 876 0 l 739 0 q 673 -103 696 -54 q 650 -194 650 -151 q 671 -253 650 -235 q 728 -272 692 -272 q 760 -267 742 -272 q 797 -250 778 -262 l 801 -250 l 799 -268 q 678 -333 753 -333 q 595 -303 625 -333 q 565 -221 565 -274 q 601 -116 565 -169 q 699 0 636 -62 l 547 0 l 551 22 l 675 69 l 621 331 l 297 331 l 149 67 l 261 22 l 257 0 l -21 0 m 336 400 l 607 400 l 533 753 l 336 400 z "},"Ȁ":{"ha":993,"x_min":-21,"x_max":882,"o":"m -21 0 l -15 22 l 67 65 l 557 924 l 617 924 l 799 72 l 882 22 l 876 0 l 547 0 l 551 22 l 678 71 l 626 331 l 297 331 l 149 67 l 261 22 l 257 0 l -21 0 m 336 400 l 613 400 l 540 764 l 336 400 m 651 986 l 524 1119 q 498 1160 501 1143 q 499 1197 494 1176 l 575 1197 l 665 986 l 651 986 m 510 986 l 353 1119 q 324 1160 326 1142 q 325 1197 321 1178 l 401 1197 l 524 986 l 510 986 z "},"Ȃ":{"ha":993,"x_min":-21,"x_max":882,"o":"m -21 0 l -15 22 l 67 65 l 557 924 l 617 924 l 799 72 l 882 22 l 876 0 l 547 0 l 551 22 l 678 71 l 626 331 l 297 331 l 149 67 l 261 22 l 257 0 l -21 0 m 336 400 l 613 400 l 540 764 l 336 400 m 403 986 q 631 1197 468 1197 q 752 1144 719 1197 q 789 986 785 1092 l 775 986 q 745 1072 765 1044 q 695 1109 725 1100 q 625 1118 665 1118 q 549 1110 585 1118 q 481 1075 514 1103 q 417 986 449 1047 l 403 986 z "},"Ắ":{"ha":993,"x_min":-21,"x_max":882,"o":"m -21 0 l -15 22 l 67 65 l 557 924 l 617 924 l 799 72 l 882 22 l 876 0 l 547 0 l 551 22 l 678 71 l 626 331 l 297 331 l 149 67 l 261 22 l 257 0 l -21 0 m 336 400 l 613 400 l 540 764 l 336 400 z "},"Ặ":{"ha":993,"x_min":-21,"x_max":882,"o":"m -21 0 l -15 22 l 67 65 l 557 924 l 617 924 l 799 72 l 882 22 l 876 0 l 547 0 l 551 22 l 678 71 l 626 331 l 297 331 l 149 67 l 261 22 l 257 0 l -21 0 m 336 400 l 613 400 l 540 764 l 336 400 m 597 986 q 476 1039 508 986 q 439 1197 443 1092 l 453 1197 q 483 1111 463 1139 q 533 1074 503 1083 q 603 1065 563 1065 q 678 1073 643 1065 q 747 1108 714 1081 q 811 1197 779 1136 l 825 1197 q 597 986 760 986 z "},"Ằ":{"ha":993,"x_min":-21,"x_max":882,"o":"m -21 0 l -15 22 l 67 65 l 557 924 l 617 924 l 799 72 l 882 22 l 876 0 l 547 0 l 551 22 l 678 71 l 626 331 l 297 331 l 149 67 l 261 22 l 257 0 l -21 0 m 336 400 l 613 400 l 540 764 l 336 400 z "},"Ẳ":{"ha":993,"x_min":-21,"x_max":882,"o":"m -21 0 l -15 22 l 67 65 l 557 924 l 617 924 l 799 72 l 882 22 l 876 0 l 547 0 l 551 22 l 678 71 l 626 331 l 297 331 l 149 67 l 261 22 l 257 0 l -21 0 m 336 400 l 613 400 l 540 764 l 336 400 z "},"Ẵ":{"ha":993,"x_min":-21,"x_max":882,"o":"m -21 0 l -15 22 l 67 65 l 557 924 l 617 924 l 799 72 l 882 22 l 876 0 l 547 0 l 551 22 l 678 71 l 626 331 l 297 331 l 149 67 l 261 22 l 257 0 l -21 0 m 336 400 l 613 400 l 540 764 l 336 400 z "},"Ấ":{"ha":993,"x_min":-21,"x_max":963,"o":"m -21 0 l -15 22 l 67 65 l 557 924 l 617 924 l 799 72 l 882 22 l 876 0 l 547 0 l 551 22 l 678 71 l 626 331 l 297 331 l 149 67 l 261 22 l 257 0 l -21 0 m 336 400 l 613 400 l 540 764 l 336 400 m 767 1118 l 856 1317 l 963 1317 q 947 1276 958 1296 q 906 1231 935 1256 l 778 1118 l 767 1118 m 396 986 l 614 1197 l 653 1197 l 785 986 l 771 986 l 618 1100 l 410 986 l 396 986 z "},"Ậ":{"ha":993,"x_min":-21,"x_max":882,"o":"m -21 0 l -15 22 l 67 65 l 557 924 l 617 924 l 799 72 l 882 22 l 876 0 l 547 0 l 551 22 l 678 71 l 626 331 l 297 331 l 149 67 l 261 22 l 257 0 l -21 0 m 336 400 l 613 400 l 540 764 l 336 400 m 396 986 l 614 1197 l 653 1197 l 785 986 l 771 986 l 618 1100 l 410 986 l 396 986 z "},"Ầ":{"ha":993,"x_min":-21,"x_max":882,"o":"m -21 0 l -15 22 l 67 65 l 557 924 l 617 924 l 799 72 l 882 22 l 876 0 l 547 0 l 551 22 l 678 71 l 626 331 l 297 331 l 149 67 l 261 22 l 257 0 l -21 0 m 336 400 l 613 400 l 540 764 l 336 400 m 440 1118 l 308 1229 q 280 1274 283 1251 q 279 1317 276 1296 l 372 1317 l 454 1118 l 440 1118 m 396 986 l 614 1197 l 653 1197 l 785 986 l 771 986 l 618 1100 l 410 986 l 396 986 z "},"Ẩ":{"ha":993,"x_min":-21,"x_max":882,"o":"m -21 0 l -15 22 l 67 65 l 557 924 l 617 924 l 799 72 l 882 22 l 876 0 l 547 0 l 551 22 l 678 71 l 626 331 l 297 331 l 149 67 l 261 22 l 257 0 l -21 0 m 336 400 l 613 400 l 540 764 l 336 400 z "},"Ẫ":{"ha":993,"x_min":-21,"x_max":882,"o":"m -21 0 l -15 22 l 67 65 l 557 924 l 617 924 l 799 72 l 882 22 l 876 0 l 547 0 l 551 22 l 678 71 l 626 331 l 297 331 l 149 67 l 261 22 l 257 0 l -21 0 m 336 400 l 613 400 l 540 764 l 336 400 z "},"Ả":{"ha":993,"x_min":-21,"x_max":882,"o":"m -21 0 l -15 22 l 67 65 l 557 924 l 617 924 l 799 72 l 882 22 l 876 0 l 547 0 l 551 22 l 678 71 l 626 331 l 297 331 l 149 67 l 261 22 l 257 0 l -21 0 m 336 400 l 613 400 l 540 764 l 336 400 m 546 975 l 539 983 l 539 985 q 619 1023 592 1001 q 646 1082 646 1044 q 626 1122 646 1106 q 557 1147 606 1138 l 582 1215 q 683 1178 654 1208 q 711 1111 711 1147 q 546 975 711 1008 z "},"Æ":{"ha":1319,"x_min":-21,"x_max":1271,"o":"m -21 0 l -15 22 l 72 65 l 718 917 l 1271 917 l 1228 678 l 1206 678 l 1154 847 l 844 847 l 785 508 l 1008 508 l 1094 626 l 1117 626 l 1063 322 l 1040 322 l 997 439 l 772 439 l 707 69 l 1078 69 l 1189 253 l 1211 253 l 1167 0 l 471 0 l 475 22 l 590 78 l 635 331 l 360 331 l 160 64 l 261 22 l 257 0 l -21 0 m 411 400 l 647 400 l 718 811 l 411 400 z "},"Ǽ":{"ha":1319,"x_min":-21,"x_max":1271,"o":"m -21 0 l -15 22 l 72 65 l 718 917 l 1271 917 l 1228 678 l 1206 678 l 1154 847 l 844 847 l 785 508 l 1008 508 l 1094 626 l 1117 626 l 1063 322 l 1040 322 l 997 439 l 772 439 l 707 69 l 1078 69 l 1189 253 l 1211 253 l 1167 0 l 471 0 l 475 22 l 590 78 l 635 331 l 360 331 l 160 64 l 261 22 l 257 0 l -21 0 m 411 400 l 647 400 l 718 811 l 411 400 m 818 986 l 965 1197 l 1074 1197 q 1058 1155 1069 1176 q 1014 1110 1047 1133 l 832 986 l 818 986 z "},"Ć":{"ha":929,"x_min":83,"x_max":882,"o":"m 444 -14 q 249 34 329 -14 q 126 166 168 82 q 83 360 83 250 q 126 582 83 478 q 244 764 169 686 q 415 886 318 842 q 618 931 511 931 q 752 915 697 931 q 874 864 807 900 l 838 621 l 815 621 l 760 793 q 690 848 725 829 q 601 867 654 867 q 435 829 507 867 q 313 726 363 792 q 238 576 264 660 q 213 397 213 492 q 288 142 213 233 q 482 50 364 50 q 593 74 542 50 q 685 124 644 97 l 796 275 l 818 275 l 765 54 q 677 18 722 33 q 576 -6 632 3 q 444 -14 521 -14 m 626 986 l 774 1197 l 882 1197 q 867 1155 878 1176 q 822 1110 856 1133 l 640 986 l 626 986 z "},"Ĉ":{"ha":929,"x_min":83,"x_max":874,"o":"m 444 -14 q 249 34 329 -14 q 126 166 168 82 q 83 360 83 250 q 126 582 83 478 q 244 764 169 686 q 415 886 318 842 q 618 931 511 931 q 752 915 697 931 q 874 864 807 900 l 838 621 l 815 621 l 760 793 q 690 848 725 829 q 601 867 654 867 q 435 829 507 867 q 313 726 363 792 q 238 576 264 660 q 213 397 213 492 q 288 142 213 233 q 482 50 364 50 q 593 74 542 50 q 685 124 644 97 l 796 275 l 818 275 l 765 54 q 677 18 722 33 q 576 -6 632 3 q 444 -14 521 -14 m 432 986 l 650 1197 l 689 1197 l 821 986 l 807 986 l 654 1100 l 446 986 l 432 986 z "},"Č":{"ha":929,"x_min":83,"x_max":874,"o":"m 444 -14 q 249 34 329 -14 q 126 166 168 82 q 83 360 83 250 q 126 582 83 478 q 244 764 169 686 q 415 886 318 842 q 618 931 511 931 q 752 915 697 931 q 874 864 807 900 l 838 621 l 815 621 l 760 793 q 690 848 725 829 q 601 867 654 867 q 435 829 507 867 q 313 726 363 792 q 238 576 264 660 q 213 397 213 492 q 288 142 213 233 q 482 50 364 50 q 593 74 542 50 q 685 124 644 97 l 796 275 l 818 275 l 765 54 q 677 18 722 33 q 576 -6 632 3 q 444 -14 521 -14 m 615 986 l 483 1197 l 497 1197 l 650 1083 l 858 1197 l 872 1197 l 654 986 l 615 986 z "},"Ċ":{"ha":929,"x_min":83,"x_max":874,"o":"m 444 -14 q 249 34 329 -14 q 126 166 168 82 q 83 360 83 250 q 126 582 83 478 q 244 764 169 686 q 415 886 318 842 q 618 931 511 931 q 752 915 697 931 q 874 864 807 900 l 838 621 l 815 621 l 760 793 q 690 848 725 829 q 601 867 654 867 q 435 829 507 867 q 313 726 363 792 q 238 576 264 660 q 213 397 213 492 q 288 142 213 233 q 482 50 364 50 q 593 74 542 50 q 685 124 644 97 l 796 275 l 818 275 l 765 54 q 677 18 722 33 q 576 -6 632 3 q 444 -14 521 -14 m 651 1013 q 596 1036 619 1013 q 572 1092 572 1060 q 596 1147 572 1124 q 651 1171 619 1171 q 707 1147 683 1171 q 731 1092 731 1124 q 707 1036 731 1060 q 651 1013 683 1013 z "},"Ç":{"ha":929,"x_min":83,"x_max":874,"o":"m 397 -333 q 332 -322 361 -333 q 289 -292 303 -311 l 292 -276 l 296 -276 q 333 -290 314 -285 q 381 -296 353 -296 q 469 -229 469 -296 q 442 -174 469 -194 q 350 -132 415 -153 l 425 -14 q 240 39 315 -10 q 124 170 164 88 q 83 360 83 253 q 126 582 83 478 q 244 764 169 686 q 415 886 318 842 q 618 931 511 931 q 752 915 697 931 q 874 864 807 900 l 838 621 l 815 621 l 760 793 q 690 848 725 829 q 601 867 654 867 q 435 829 507 867 q 313 726 363 792 q 238 576 264 660 q 213 397 213 492 q 288 142 213 233 q 482 50 364 50 q 593 74 542 50 q 685 124 644 97 l 796 275 l 818 275 l 765 54 q 637 6 703 25 q 467 -14 571 -12 l 426 -76 q 515 -131 489 -100 q 542 -210 542 -161 q 503 -297 542 -261 q 397 -333 465 -333 z "},"Ḉ":{"ha":929,"x_min":83,"x_max":882,"o":"m 626 986 l 774 1197 l 882 1197 q 867 1155 878 1176 q 822 1110 856 1133 l 640 986 l 626 986 m 397 -333 q 332 -322 361 -333 q 289 -292 303 -311 l 292 -276 l 296 -276 q 333 -290 314 -285 q 381 -296 353 -296 q 469 -229 469 -296 q 442 -174 469 -194 q 350 -132 415 -153 l 425 -14 q 240 39 315 -10 q 124 170 164 88 q 83 360 83 253 q 126 582 83 478 q 244 764 169 686 q 415 886 318 842 q 618 931 511 931 q 752 915 697 931 q 874 864 807 900 l 838 621 l 815 621 l 760 793 q 690 848 725 829 q 601 867 654 867 q 435 829 507 867 q 313 726 363 792 q 238 576 264 660 q 213 397 213 492 q 288 142 213 233 q 482 50 364 50 q 593 74 542 50 q 685 124 644 97 l 796 275 l 818 275 l 765 54 q 637 6 703 25 q 467 -14 571 -12 l 426 -76 q 515 -131 489 -100 q 542 -210 542 -161 q 503 -297 542 -261 q 397 -333 465 -333 z "},"Ď":{"ha":1017,"x_min":14,"x_max":947,"o":"m 14 0 l 18 22 l 133 78 l 267 839 l 171 894 l 175 917 l 482 917 q 750 869 647 917 q 900 737 853 821 q 947 544 947 653 q 927 402 947 476 q 865 256 907 328 q 756 127 822 185 q 600 35 690 69 q 392 0 510 0 l 14 0 m 463 847 l 388 847 l 250 69 l 403 69 q 633 126 540 69 q 772 286 725 183 q 818 528 818 389 q 733 761 818 675 q 463 847 647 847 m 540 986 l 408 1197 l 422 1197 l 575 1083 l 783 1197 l 797 1197 l 579 986 l 540 986 z "},"Đ":{"ha":1017,"x_min":14,"x_max":947,"o":"m 14 0 l 18 22 l 133 78 l 199 447 l 96 447 l 107 504 l 208 504 l 267 839 l 171 894 l 175 917 l 482 917 q 750 869 647 917 q 900 737 853 821 q 947 544 947 653 q 927 402 947 476 q 865 256 907 328 q 756 127 822 185 q 600 35 690 69 q 392 0 510 0 l 14 0 m 546 447 l 317 447 l 250 69 l 403 69 q 633 126 540 69 q 772 286 725 183 q 818 528 818 389 q 733 761 818 675 q 463 847 647 847 l 388 847 l 326 504 l 557 504 l 546 447 z "},"Ḍ":{"ha":1017,"x_min":14,"x_max":947,"o":"m 14 0 l 18 22 l 133 78 l 267 839 l 171 894 l 175 917 l 482 917 q 750 869 647 917 q 900 737 853 821 q 947 544 947 653 q 927 402 947 476 q 865 256 907 328 q 756 127 822 185 q 600 35 690 69 q 392 0 510 0 l 14 0 m 463 847 l 388 847 l 250 69 l 403 69 q 633 126 540 69 q 772 286 725 183 q 818 528 818 389 q 733 761 818 675 q 463 847 647 847 z "},"Ḏ":{"ha":1017,"x_min":14,"x_max":947,"o":"m 14 0 l 18 22 l 133 78 l 267 839 l 171 894 l 175 917 l 482 917 q 750 869 647 917 q 900 737 853 821 q 947 544 947 653 q 927 402 947 476 q 865 256 907 328 q 756 127 822 185 q 600 35 690 69 q 392 0 510 0 l 14 0 m 463 847 l 388 847 l 250 69 l 403 69 q 633 126 540 69 q 772 286 725 183 q 818 528 818 389 q 733 761 818 675 q 463 847 647 847 z "},"È":{"ha":863,"x_min":14,"x_max":814,"o":"m 14 0 l 18 22 l 133 78 l 267 839 l 171 894 l 175 917 l 814 917 l 771 678 l 749 678 l 697 847 l 388 847 l 328 508 l 551 508 l 638 626 l 660 626 l 606 322 l 583 322 l 540 439 l 315 439 l 250 69 l 621 69 l 732 253 l 754 253 l 710 0 l 14 0 m 547 986 l 368 1110 q 338 1153 340 1129 q 339 1197 336 1176 l 436 1197 l 561 986 l 547 986 z "},"É":{"ha":863,"x_min":14,"x_max":814,"o":"m 14 0 l 18 22 l 133 78 l 267 839 l 171 894 l 175 917 l 814 917 l 771 678 l 749 678 l 697 847 l 388 847 l 328 508 l 551 508 l 638 626 l 660 626 l 606 322 l 583 322 l 540 439 l 315 439 l 250 69 l 621 69 l 732 253 l 754 253 l 710 0 l 14 0 m 547 986 l 694 1197 l 803 1197 q 788 1155 799 1176 q 743 1110 776 1133 l 561 986 l 547 986 z "},"Ê":{"ha":863,"x_min":14,"x_max":814,"o":"m 14 0 l 18 22 l 133 78 l 267 839 l 171 894 l 175 917 l 814 917 l 771 678 l 749 678 l 697 847 l 388 847 l 328 508 l 551 508 l 638 626 l 660 626 l 606 322 l 583 322 l 540 439 l 315 439 l 250 69 l 621 69 l 732 253 l 754 253 l 710 0 l 14 0 m 353 986 l 571 1197 l 610 1197 l 742 986 l 728 986 l 575 1100 l 367 986 l 353 986 z "},"Ě":{"ha":863,"x_min":14,"x_max":814,"o":"m 14 0 l 18 22 l 133 78 l 267 839 l 171 894 l 175 917 l 814 917 l 771 678 l 749 678 l 697 847 l 388 847 l 328 508 l 551 508 l 638 626 l 660 626 l 606 322 l 583 322 l 540 439 l 315 439 l 250 69 l 621 69 l 732 253 l 754 253 l 710 0 l 14 0 m 536 986 l 404 1197 l 418 1197 l 571 1083 l 779 1197 l 793 1197 l 575 986 l 536 986 z "},"Ẽ":{"ha":863,"x_min":14,"x_max":814,"o":"m 14 0 l 18 22 l 133 78 l 267 839 l 171 894 l 175 917 l 814 917 l 771 678 l 749 678 l 697 847 l 388 847 l 328 508 l 551 508 l 638 626 l 660 626 l 606 322 l 583 322 l 540 439 l 315 439 l 250 69 l 621 69 l 732 253 l 754 253 l 710 0 l 14 0 m 356 1008 q 415 1114 390 1081 q 460 1157 440 1147 q 504 1167 481 1167 q 566 1146 539 1167 q 617 1105 593 1125 q 668 1085 640 1085 q 712 1098 692 1085 q 765 1167 732 1111 l 788 1167 q 728 1061 753 1094 q 682 1018 703 1028 q 639 1008 661 1008 q 578 1029 604 1008 q 528 1070 551 1050 q 476 1090 504 1090 q 432 1077 453 1090 q 378 1008 411 1064 l 356 1008 z "},"Ë":{"ha":863,"x_min":14,"x_max":814,"o":"m 14 0 l 18 22 l 133 78 l 267 839 l 171 894 l 175 917 l 814 917 l 771 678 l 749 678 l 697 847 l 388 847 l 328 508 l 551 508 l 638 626 l 660 626 l 606 322 l 583 322 l 540 439 l 315 439 l 250 69 l 621 69 l 732 253 l 754 253 l 710 0 l 14 0 m 456 1029 q 411 1047 429 1029 q 393 1092 393 1065 q 411 1136 393 1118 q 456 1154 429 1154 q 500 1136 482 1154 q 518 1092 518 1118 q 500 1047 518 1065 q 456 1029 482 1029 m 692 1029 q 647 1047 665 1029 q 629 1092 629 1065 q 647 1136 629 1118 q 692 1154 665 1154 q 736 1136 718 1154 q 754 1092 754 1118 q 736 1047 754 1065 q 692 1029 718 1029 z "},"Ē":{"ha":863,"x_min":14,"x_max":814,"o":"m 14 0 l 18 22 l 133 78 l 267 839 l 171 894 l 175 917 l 814 917 l 771 678 l 749 678 l 697 847 l 388 847 l 328 508 l 551 508 l 638 626 l 660 626 l 606 322 l 583 322 l 540 439 l 315 439 l 250 69 l 621 69 l 732 253 l 754 253 l 710 0 l 14 0 m 390 1065 l 401 1126 l 753 1126 l 740 1065 l 390 1065 z "},"Ĕ":{"ha":863,"x_min":14,"x_max":814,"o":"m 14 0 l 18 22 l 133 78 l 267 839 l 171 894 l 175 917 l 814 917 l 771 678 l 749 678 l 697 847 l 388 847 l 328 508 l 551 508 l 638 626 l 660 626 l 606 322 l 583 322 l 540 439 l 315 439 l 250 69 l 621 69 l 732 253 l 754 253 l 710 0 l 14 0 m 554 986 q 433 1039 465 986 q 396 1197 400 1092 l 410 1197 q 440 1111 419 1139 q 490 1074 460 1083 q 560 1065 519 1065 q 635 1073 600 1065 q 703 1108 671 1081 q 768 1197 736 1136 l 782 1197 q 554 986 717 986 z "},"Ė":{"ha":863,"x_min":14,"x_max":814,"o":"m 14 0 l 18 22 l 133 78 l 267 839 l 171 894 l 175 917 l 814 917 l 771 678 l 749 678 l 697 847 l 388 847 l 328 508 l 551 508 l 638 626 l 660 626 l 606 322 l 583 322 l 540 439 l 315 439 l 250 69 l 621 69 l 732 253 l 754 253 l 710 0 l 14 0 m 572 1013 q 517 1036 540 1013 q 493 1092 493 1060 q 517 1147 493 1124 q 572 1171 540 1171 q 628 1147 604 1171 q 651 1092 651 1124 q 628 1036 651 1060 q 572 1013 604 1013 z "},"Ę":{"ha":863,"x_min":14,"x_max":814,"o":"m 14 0 l 18 22 l 133 78 l 267 839 l 171 894 l 175 917 l 814 917 l 771 678 l 749 678 l 697 847 l 388 847 l 328 508 l 551 508 l 638 626 l 660 626 l 606 322 l 583 322 l 540 439 l 315 439 l 250 69 l 621 69 l 732 253 l 754 253 l 710 0 l 611 0 q 545 -103 568 -54 q 522 -194 522 -151 q 543 -253 522 -235 q 600 -272 564 -272 q 632 -267 614 -272 q 669 -250 650 -262 l 674 -250 l 671 -268 q 550 -333 625 -333 q 467 -303 497 -333 q 438 -221 438 -274 q 473 -116 438 -169 q 571 0 508 -62 l 14 0 z "},"Ẹ":{"ha":863,"x_min":14,"x_max":814,"o":"m 14 0 l 18 22 l 133 78 l 267 839 l 171 894 l 175 917 l 814 917 l 771 678 l 749 678 l 697 847 l 388 847 l 328 508 l 551 508 l 638 626 l 660 626 l 606 322 l 583 322 l 540 439 l 315 439 l 250 69 l 621 69 l 732 253 l 754 253 l 710 0 l 14 0 z "},"Ȅ":{"ha":863,"x_min":14,"x_max":814,"o":"m 14 0 l 18 22 l 133 78 l 267 839 l 171 894 l 175 917 l 814 917 l 771 678 l 749 678 l 697 847 l 388 847 l 328 508 l 551 508 l 638 626 l 660 626 l 606 322 l 583 322 l 540 439 l 315 439 l 250 69 l 621 69 l 732 253 l 754 253 l 710 0 l 14 0 m 608 986 l 481 1119 q 455 1160 458 1143 q 456 1197 451 1176 l 532 1197 l 622 986 l 608 986 m 467 986 l 310 1119 q 281 1160 283 1142 q 282 1197 278 1178 l 358 1197 l 481 986 l 467 986 z "},"Ȇ":{"ha":863,"x_min":14,"x_max":814,"o":"m 14 0 l 18 22 l 133 78 l 267 839 l 171 894 l 175 917 l 814 917 l 771 678 l 749 678 l 697 847 l 388 847 l 328 508 l 551 508 l 638 626 l 660 626 l 606 322 l 583 322 l 540 439 l 315 439 l 250 69 l 621 69 l 732 253 l 754 253 l 710 0 l 14 0 m 360 986 q 588 1197 425 1197 q 709 1144 676 1197 q 746 986 742 1092 l 732 986 q 702 1072 722 1044 q 652 1109 682 1100 q 582 1118 622 1118 q 506 1110 542 1118 q 438 1075 471 1103 q 374 986 406 1047 l 360 986 z "},"Ế":{"ha":863,"x_min":14,"x_max":919,"o":"m 14 0 l 18 22 l 133 78 l 267 839 l 171 894 l 175 917 l 814 917 l 771 678 l 749 678 l 697 847 l 388 847 l 328 508 l 551 508 l 638 626 l 660 626 l 606 322 l 583 322 l 540 439 l 315 439 l 250 69 l 621 69 l 732 253 l 754 253 l 710 0 l 14 0 m 724 1118 l 813 1317 l 919 1317 q 903 1276 915 1296 q 863 1231 892 1256 l 735 1118 l 724 1118 m 353 986 l 571 1197 l 610 1197 l 742 986 l 728 986 l 575 1100 l 367 986 l 353 986 z "},"Ệ":{"ha":863,"x_min":14,"x_max":814,"o":"m 14 0 l 18 22 l 133 78 l 267 839 l 171 894 l 175 917 l 814 917 l 771 678 l 749 678 l 697 847 l 388 847 l 328 508 l 551 508 l 638 626 l 660 626 l 606 322 l 583 322 l 540 439 l 315 439 l 250 69 l 621 69 l 732 253 l 754 253 l 710 0 l 14 0 m 353 986 l 571 1197 l 610 1197 l 742 986 l 728 986 l 575 1100 l 367 986 l 353 986 z "},"Ề":{"ha":863,"x_min":14,"x_max":814,"o":"m 14 0 l 18 22 l 133 78 l 267 839 l 171 894 l 175 917 l 814 917 l 771 678 l 749 678 l 697 847 l 388 847 l 328 508 l 551 508 l 638 626 l 660 626 l 606 322 l 583 322 l 540 439 l 315 439 l 250 69 l 621 69 l 732 253 l 754 253 l 710 0 l 14 0 m 397 1118 l 265 1229 q 237 1274 240 1251 q 236 1317 233 1296 l 329 1317 l 411 1118 l 397 1118 m 353 986 l 571 1197 l 610 1197 l 742 986 l 728 986 l 575 1100 l 367 986 l 353 986 z "},"Ể":{"ha":863,"x_min":14,"x_max":814,"o":"m 14 0 l 18 22 l 133 78 l 267 839 l 171 894 l 175 917 l 814 917 l 771 678 l 749 678 l 697 847 l 388 847 l 328 508 l 551 508 l 638 626 l 660 626 l 606 322 l 583 322 l 540 439 l 315 439 l 250 69 l 621 69 l 732 253 l 754 253 l 710 0 l 14 0 z "},"Ễ":{"ha":863,"x_min":14,"x_max":836,"o":"m 14 0 l 18 22 l 133 78 l 267 839 l 171 894 l 175 917 l 814 917 l 771 678 l 749 678 l 697 847 l 388 847 l 328 508 l 551 508 l 638 626 l 660 626 l 606 322 l 583 322 l 540 439 l 315 439 l 250 69 l 621 69 l 732 253 l 754 253 l 710 0 l 14 0 z "},"Ẻ":{"ha":863,"x_min":14,"x_max":814,"o":"m 14 0 l 18 22 l 133 78 l 267 839 l 171 894 l 175 917 l 814 917 l 771 678 l 749 678 l 697 847 l 388 847 l 328 508 l 551 508 l 638 626 l 660 626 l 606 322 l 583 322 l 540 439 l 315 439 l 250 69 l 621 69 l 732 253 l 754 253 l 710 0 l 14 0 m 503 975 l 496 983 l 496 985 q 576 1023 549 1001 q 603 1082 603 1044 q 583 1122 603 1106 q 514 1147 563 1138 l 539 1215 q 640 1178 611 1208 q 668 1111 668 1147 q 503 975 668 1008 z "},"Ḕ":{"ha":863,"x_min":14,"x_max":814,"o":"m 14 0 l 18 22 l 133 78 l 267 839 l 171 894 l 175 917 l 814 917 l 771 678 l 749 678 l 697 847 l 388 847 l 328 508 l 551 508 l 638 626 l 660 626 l 606 322 l 583 322 l 540 439 l 315 439 l 250 69 l 621 69 l 732 253 l 754 253 l 710 0 l 14 0 z "},"Ḗ":{"ha":863,"x_min":14,"x_max":846,"o":"m 14 0 l 18 22 l 133 78 l 267 839 l 171 894 l 175 917 l 814 917 l 771 678 l 749 678 l 697 847 l 388 847 l 328 508 l 551 508 l 638 626 l 660 626 l 606 322 l 583 322 l 540 439 l 315 439 l 250 69 l 621 69 l 732 253 l 754 253 l 710 0 l 14 0 z "},"Ḝ":{"ha":863,"x_min":14,"x_max":814,"o":"m 554 986 q 433 1039 465 986 q 396 1197 400 1092 l 410 1197 q 440 1111 419 1139 q 490 1074 460 1083 q 560 1065 519 1065 q 635 1073 600 1065 q 703 1108 671 1081 q 768 1197 736 1136 l 782 1197 q 554 986 717 986 m 14 0 l 18 22 l 133 78 l 267 839 l 171 894 l 175 917 l 814 917 l 771 678 l 749 678 l 697 847 l 388 847 l 328 508 l 551 508 l 638 626 l 660 626 l 606 322 l 583 322 l 540 439 l 315 439 l 250 69 l 621 69 l 732 253 l 754 253 l 710 0 l 424 0 l 375 -76 q 464 -131 438 -100 q 490 -210 490 -161 q 452 -297 490 -261 q 346 -333 414 -333 q 282 -322 311 -333 q 238 -292 253 -311 l 240 -276 l 244 -276 q 282 -290 263 -285 q 329 -296 301 -296 q 418 -229 418 -296 q 391 -174 418 -194 q 299 -132 364 -153 l 382 0 l 14 0 z "},"Ĝ":{"ha":1026,"x_min":83,"x_max":933,"o":"m 444 -14 q 249 34 329 -14 q 126 166 168 82 q 83 360 83 250 q 128 582 83 478 q 249 765 172 686 q 424 888 325 843 q 632 932 522 932 q 735 926 689 932 q 822 905 781 919 q 913 864 864 890 l 876 635 l 854 635 l 799 793 q 719 850 761 833 q 615 867 676 867 q 442 829 517 867 q 315 726 367 792 q 238 575 264 660 q 211 396 211 490 q 247 215 211 289 q 348 101 283 140 q 496 63 413 63 q 581 69 539 63 q 669 96 624 76 l 710 325 l 601 381 l 607 403 l 933 403 l 929 381 l 828 321 l 790 103 q 626 18 721 50 q 444 -14 531 -14 m 442 986 l 660 1197 l 699 1197 l 831 986 l 817 986 l 664 1100 l 456 986 l 442 986 z "},"Ğ":{"ha":1026,"x_min":83,"x_max":933,"o":"m 444 -14 q 249 34 329 -14 q 126 166 168 82 q 83 360 83 250 q 128 582 83 478 q 249 765 172 686 q 424 888 325 843 q 632 932 522 932 q 735 926 689 932 q 822 905 781 919 q 913 864 864 890 l 876 635 l 854 635 l 799 793 q 719 850 761 833 q 615 867 676 867 q 442 829 517 867 q 315 726 367 792 q 238 575 264 660 q 211 396 211 490 q 247 215 211 289 q 348 101 283 140 q 496 63 413 63 q 581 69 539 63 q 669 96 624 76 l 710 325 l 601 381 l 607 403 l 933 403 l 929 381 l 828 321 l 790 103 q 626 18 721 50 q 444 -14 531 -14 m 643 986 q 522 1039 554 986 q 485 1197 489 1092 l 499 1197 q 528 1111 508 1139 q 578 1074 549 1083 q 649 1065 608 1065 q 724 1073 689 1065 q 792 1108 760 1081 q 857 1197 825 1136 l 871 1197 q 643 986 806 986 z "},"Ġ":{"ha":1026,"x_min":83,"x_max":933,"o":"m 444 -14 q 249 34 329 -14 q 126 166 168 82 q 83 360 83 250 q 128 582 83 478 q 249 765 172 686 q 424 888 325 843 q 632 932 522 932 q 735 926 689 932 q 822 905 781 919 q 913 864 864 890 l 876 635 l 854 635 l 799 793 q 719 850 761 833 q 615 867 676 867 q 442 829 517 867 q 315 726 367 792 q 238 575 264 660 q 211 396 211 490 q 247 215 211 289 q 348 101 283 140 q 496 63 413 63 q 581 69 539 63 q 669 96 624 76 l 710 325 l 601 381 l 607 403 l 933 403 l 929 381 l 828 321 l 790 103 q 626 18 721 50 q 444 -14 531 -14 m 661 1013 q 606 1036 629 1013 q 582 1092 582 1060 q 606 1147 582 1124 q 661 1171 629 1171 q 717 1147 693 1171 q 740 1092 740 1124 q 717 1036 740 1060 q 661 1013 693 1013 z "},"Ģ":{"ha":1026,"x_min":83,"x_max":933,"o":"m 444 -14 q 249 34 329 -14 q 126 166 168 82 q 83 360 83 250 q 128 582 83 478 q 249 765 172 686 q 424 888 325 843 q 632 932 522 932 q 735 926 689 932 q 822 905 781 919 q 913 864 864 890 l 876 635 l 854 635 l 799 793 q 719 850 761 833 q 615 867 676 867 q 442 829 517 867 q 315 726 367 792 q 238 575 264 660 q 211 396 211 490 q 247 215 211 289 q 348 101 283 140 q 496 63 413 63 q 581 69 539 63 q 669 96 624 76 l 710 325 l 601 381 l 607 403 l 933 403 l 929 381 l 828 321 l 790 103 q 626 18 721 50 q 444 -14 531 -14 m 682 986 q 575 1015 610 986 q 540 1089 540 1044 q 589 1180 540 1150 q 713 1210 638 1210 q 738 1209 724 1210 q 761 1206 751 1208 l 757 1190 q 740 1192 747 1192 q 725 1193 733 1193 q 647 1174 675 1193 q 618 1118 618 1154 q 646 1069 618 1083 q 733 1054 674 1054 l 726 1015 q 714 994 724 1003 q 682 986 704 986 z "},"Ǧ":{"ha":1026,"x_min":83,"x_max":933,"o":"m 444 -14 q 249 34 329 -14 q 126 166 168 82 q 83 360 83 250 q 128 582 83 478 q 249 765 172 686 q 424 888 325 843 q 632 932 522 932 q 735 926 689 932 q 822 905 781 919 q 913 864 864 890 l 876 635 l 854 635 l 799 793 q 719 850 761 833 q 615 867 676 867 q 442 829 517 867 q 315 726 367 792 q 238 575 264 660 q 211 396 211 490 q 247 215 211 289 q 348 101 283 140 q 496 63 413 63 q 581 69 539 63 q 669 96 624 76 l 710 325 l 601 381 l 607 403 l 933 403 l 929 381 l 828 321 l 790 103 q 626 18 721 50 q 444 -14 531 -14 m 625 986 l 493 1197 l 507 1197 l 660 1083 l 868 1197 l 882 1197 l 664 986 l 625 986 z "},"Ḡ":{"ha":1026,"x_min":83,"x_max":933,"o":"m 444 -14 q 249 34 329 -14 q 126 166 168 82 q 83 360 83 250 q 128 582 83 478 q 249 765 172 686 q 424 888 325 843 q 632 932 522 932 q 735 926 689 932 q 822 905 781 919 q 913 864 864 890 l 876 635 l 854 635 l 799 793 q 719 850 761 833 q 615 867 676 867 q 442 829 517 867 q 315 726 367 792 q 238 575 264 660 q 211 396 211 490 q 247 215 211 289 q 348 101 283 140 q 496 63 413 63 q 581 69 539 63 q 669 96 624 76 l 710 325 l 601 381 l 607 403 l 933 403 l 929 381 l 828 321 l 790 103 q 626 18 721 50 q 444 -14 531 -14 m 479 1065 l 490 1126 l 842 1126 l 829 1065 l 479 1065 z "},"Ĥ":{"ha":1075,"x_min":14,"x_max":1061,"o":"m 14 0 l 18 22 l 124 78 l 258 839 l 158 894 l 163 917 l 493 917 l 489 894 l 376 839 l 318 507 l 768 507 l 826 839 l 726 894 l 731 917 l 1061 917 l 1057 894 l 944 839 l 810 78 l 917 22 l 913 0 l 582 0 l 586 22 l 692 78 l 756 438 l 306 438 l 242 78 l 349 22 l 344 0 l 14 0 m 432 986 l 650 1197 l 689 1197 l 821 986 l 807 986 l 654 1100 l 446 986 l 432 986 z "},"Ħ":{"ha":1075,"x_min":14,"x_max":1061,"o":"m 14 0 l 18 22 l 124 78 l 226 661 l 125 661 l 136 718 l 238 718 l 258 839 l 158 894 l 163 917 l 493 917 l 489 894 l 376 839 l 356 718 l 806 718 l 826 839 l 726 894 l 731 917 l 1061 917 l 1057 894 l 944 839 l 924 718 l 1028 718 l 1017 661 l 913 661 l 810 78 l 917 22 l 913 0 l 582 0 l 586 22 l 692 78 l 756 438 l 306 438 l 242 78 l 349 22 l 344 0 l 14 0 m 318 507 l 768 507 l 794 661 l 344 661 l 318 507 z "},"Ḥ":{"ha":1075,"x_min":14,"x_max":1061,"o":"m 14 0 l 18 22 l 124 78 l 258 839 l 158 894 l 163 917 l 493 917 l 489 894 l 376 839 l 318 507 l 768 507 l 826 839 l 726 894 l 731 917 l 1061 917 l 1057 894 l 944 839 l 810 78 l 917 22 l 913 0 l 582 0 l 586 22 l 692 78 l 756 438 l 306 438 l 242 78 l 349 22 l 344 0 l 14 0 z "},"Ḫ":{"ha":1075,"x_min":14,"x_max":1061,"o":"m 14 0 l 18 22 l 124 78 l 258 839 l 158 894 l 163 917 l 493 917 l 489 894 l 376 839 l 318 507 l 768 507 l 826 839 l 726 894 l 731 917 l 1061 917 l 1057 894 l 944 839 l 810 78 l 917 22 l 913 0 l 582 0 l 586 22 l 692 78 l 756 438 l 306 438 l 242 78 l 349 22 l 344 0 l 14 0 z "},"Ì":{"ha":507,"x_min":14,"x_max":493,"o":"m 14 0 l 18 22 l 124 78 l 258 839 l 158 894 l 163 917 l 493 917 l 489 894 l 376 839 l 242 78 l 349 22 l 344 0 l 14 0 m 335 986 l 156 1110 q 126 1153 128 1129 q 126 1197 124 1176 l 224 1197 l 349 986 l 335 986 z "},"Í":{"ha":507,"x_min":14,"x_max":590,"o":"m 14 0 l 18 22 l 124 78 l 258 839 l 158 894 l 163 917 l 493 917 l 489 894 l 376 839 l 242 78 l 349 22 l 344 0 l 14 0 m 335 986 l 482 1197 l 590 1197 q 575 1155 586 1176 q 531 1110 564 1133 l 349 986 l 335 986 z "},"Î":{"ha":507,"x_min":14,"x_max":529,"o":"m 14 0 l 18 22 l 124 78 l 258 839 l 158 894 l 163 917 l 493 917 l 489 894 l 376 839 l 242 78 l 349 22 l 344 0 l 14 0 m 140 986 l 358 1197 l 397 1197 l 529 986 l 515 986 l 363 1100 l 154 986 l 140 986 z "},"Ĩ":{"ha":507,"x_min":14,"x_max":575,"o":"m 14 0 l 18 22 l 124 78 l 258 839 l 158 894 l 163 917 l 493 917 l 489 894 l 376 839 l 242 78 l 349 22 l 344 0 l 14 0 m 143 1008 q 203 1114 178 1081 q 248 1157 228 1147 q 292 1167 268 1167 q 353 1146 326 1167 q 404 1105 381 1125 q 456 1085 428 1085 q 499 1098 479 1085 q 553 1167 519 1111 l 575 1167 q 515 1061 540 1094 q 469 1018 490 1028 q 426 1008 449 1008 q 365 1029 392 1008 q 315 1070 339 1050 q 264 1090 292 1090 q 219 1077 240 1090 q 165 1008 199 1064 l 143 1008 z "},"Ï":{"ha":507,"x_min":14,"x_max":542,"o":"m 14 0 l 18 22 l 124 78 l 258 839 l 158 894 l 163 917 l 493 917 l 489 894 l 376 839 l 242 78 l 349 22 l 344 0 l 14 0 m 243 1029 q 199 1047 217 1029 q 181 1092 181 1065 q 199 1136 181 1118 q 243 1154 217 1154 q 288 1136 269 1154 q 306 1092 306 1118 q 288 1047 306 1065 q 243 1029 269 1029 m 479 1029 q 435 1047 453 1029 q 417 1092 417 1065 q 435 1136 417 1118 q 479 1154 453 1154 q 524 1136 506 1154 q 542 1092 542 1118 q 524 1047 542 1065 q 479 1029 506 1029 z "},"Ī":{"ha":507,"x_min":14,"x_max":540,"o":"m 14 0 l 18 22 l 124 78 l 258 839 l 158 894 l 163 917 l 493 917 l 489 894 l 376 839 l 242 78 l 349 22 l 344 0 l 14 0 m 178 1065 l 189 1126 l 540 1126 l 528 1065 l 178 1065 z "},"Ĭ":{"ha":507,"x_min":14,"x_max":569,"o":"m 14 0 l 18 22 l 124 78 l 258 839 l 158 894 l 163 917 l 493 917 l 489 894 l 376 839 l 242 78 l 349 22 l 344 0 l 14 0 m 342 986 q 220 1039 253 986 q 183 1197 188 1092 l 197 1197 q 227 1111 207 1139 q 277 1074 247 1083 q 347 1065 307 1065 q 423 1073 388 1065 q 491 1108 458 1081 q 556 1197 524 1136 l 569 1197 q 342 986 504 986 z "},"İ":{"ha":507,"x_min":14,"x_max":493,"o":"m 14 0 l 18 22 l 124 78 l 258 839 l 158 894 l 163 917 l 493 917 l 489 894 l 376 839 l 242 78 l 349 22 l 344 0 l 14 0 m 360 1013 q 304 1036 328 1013 q 281 1092 281 1060 q 304 1147 281 1124 q 360 1171 328 1171 q 415 1147 392 1171 q 439 1092 439 1124 q 415 1036 439 1060 q 360 1013 392 1013 z "},"Į":{"ha":507,"x_min":14,"x_max":493,"o":"m 14 0 l 18 22 l 124 78 l 258 839 l 158 894 l 163 917 l 493 917 l 489 894 l 376 839 l 242 78 l 349 22 l 344 0 l 196 0 q 130 -103 153 -54 q 107 -194 107 -151 q 128 -253 107 -235 q 185 -272 149 -272 q 218 -267 200 -272 q 254 -250 236 -262 l 258 -250 l 256 -268 q 135 -333 210 -333 q 53 -303 83 -333 q 22 -221 22 -274 q 58 -116 22 -169 q 156 0 93 -62 l 14 0 z "},"Ị":{"ha":507,"x_min":14,"x_max":493,"o":"m 14 0 l 18 22 l 124 78 l 258 839 l 158 894 l 163 917 l 493 917 l 489 894 l 376 839 l 242 78 l 349 22 l 344 0 l 14 0 z "},"Ȉ":{"ha":507,"x_min":14,"x_max":493,"o":"m 14 0 l 18 22 l 124 78 l 258 839 l 158 894 l 163 917 l 493 917 l 489 894 l 376 839 l 242 78 l 349 22 l 344 0 l 14 0 m 396 986 l 268 1119 q 242 1160 246 1143 q 243 1197 239 1176 l 319 1197 l 410 986 l 396 986 m 254 986 l 97 1119 q 68 1160 71 1142 q 69 1197 65 1178 l 146 1197 l 268 986 l 254 986 z "},"Ȋ":{"ha":507,"x_min":14,"x_max":533,"o":"m 14 0 l 18 22 l 124 78 l 258 839 l 158 894 l 163 917 l 493 917 l 489 894 l 376 839 l 242 78 l 349 22 l 344 0 l 14 0 m 147 986 q 375 1197 213 1197 q 497 1144 464 1197 q 533 986 529 1092 l 519 986 q 490 1072 510 1044 q 440 1109 469 1100 q 369 1118 410 1118 q 294 1110 329 1118 q 226 1075 258 1103 q 161 986 193 1047 l 147 986 z "},"Ỉ":{"ha":507,"x_min":14,"x_max":493,"o":"m 14 0 l 18 22 l 124 78 l 258 839 l 158 894 l 163 917 l 493 917 l 489 894 l 376 839 l 242 78 l 349 22 l 344 0 l 14 0 m 290 975 l 283 983 l 283 985 q 363 1023 336 1001 q 390 1082 390 1044 q 370 1122 390 1106 q 301 1147 350 1138 l 326 1215 q 427 1178 399 1208 q 456 1111 456 1147 q 290 975 456 1008 z "},"Ḯ":{"ha":507,"x_min":14,"x_max":632,"o":"m 14 0 l 18 22 l 124 78 l 258 839 l 158 894 l 163 917 l 493 917 l 489 894 l 376 839 l 242 78 l 349 22 l 344 0 l 14 0 z "},"Ĳ":{"ha":1028,"x_min":14,"x_max":1021,"o":"m 14 0 l 18 22 l 124 78 l 258 839 l 158 894 l 163 917 l 493 917 l 489 894 l 376 839 l 242 78 l 349 22 l 344 0 l 14 0 m 460 -240 q 428 -227 440 -240 q 428 -181 417 -214 l 446 -126 l 454 -126 q 488 -136 475 -133 q 518 -139 500 -139 q 569 -125 546 -139 q 613 -67 593 -111 q 647 71 632 -22 l 783 839 l 688 894 l 692 917 l 1021 917 l 1017 894 l 903 839 l 813 333 q 740 53 785 178 q 625 -137 694 -71 q 553 -203 579 -181 q 506 -233 526 -225 q 460 -240 485 -240 z "},"Ĵ":{"ha":521,"x_min":-90,"x_max":550,"o":"m -47 -240 q -78 -227 -67 -240 q -79 -181 -90 -214 l -61 -126 l -53 -126 q -19 -136 -32 -133 q 11 -139 -7 -139 q 63 -125 39 -139 q 106 -67 86 -111 q 140 71 125 -22 l 276 839 l 181 894 l 185 917 l 514 917 l 510 894 l 396 839 l 306 333 q 233 53 278 178 q 118 -137 188 -71 q 46 -203 72 -181 q -1 -233 19 -225 q -47 -240 -22 -240 m 161 986 l 379 1197 l 418 1197 l 550 986 l 536 986 l 383 1100 l 175 986 l 161 986 z "},"Ķ":{"ha":972,"x_min":14,"x_max":950,"o":"m 14 0 l 18 22 l 133 78 l 267 839 l 171 894 l 175 917 l 506 917 l 500 894 l 386 839 l 251 78 l 349 22 l 343 0 l 14 0 m 667 0 l 322 469 l 754 847 l 668 894 l 672 917 l 950 917 l 944 894 l 860 861 l 442 497 l 767 72 l 851 22 l 847 0 l 667 0 m 342 -332 q 317 -331 331 -332 q 293 -328 304 -331 l 297 -312 q 314 -315 307 -314 q 329 -315 321 -315 q 408 -296 379 -315 q 436 -240 436 -276 q 408 -191 436 -206 q 321 -176 381 -176 l 328 -137 q 339 -117 329 -125 q 372 -108 349 -108 q 479 -137 444 -108 q 514 -211 514 -167 q 465 -302 514 -272 q 342 -332 417 -332 z "},"Ĺ":{"ha":831,"x_min":14,"x_max":724,"o":"m 14 0 l 18 22 l 133 78 l 267 839 l 171 894 l 175 917 l 518 917 l 514 894 l 386 839 l 251 69 l 572 69 l 701 308 l 724 308 l 669 0 l 14 0 m 346 986 l 493 1197 l 601 1197 q 586 1155 597 1176 q 542 1110 575 1133 l 360 986 l 346 986 z "},"Ľ":{"ha":831,"x_min":14,"x_max":747,"o":"m 14 0 l 18 22 l 133 78 l 267 839 l 171 894 l 175 917 l 518 917 l 514 894 l 386 839 l 251 69 l 572 69 l 701 308 l 724 308 l 669 0 l 14 0 m 564 657 l 643 917 l 744 917 q 742 873 747 896 q 715 824 738 850 l 578 657 l 564 657 z "},"Ļ":{"ha":831,"x_min":14,"x_max":724,"o":"m 14 0 l 18 22 l 133 78 l 267 839 l 171 894 l 175 917 l 518 917 l 514 894 l 386 839 l 251 69 l 572 69 l 701 308 l 724 308 l 669 0 l 14 0 m 263 -332 q 238 -331 251 -332 q 214 -328 225 -331 l 218 -312 q 235 -315 228 -314 q 250 -315 242 -315 q 328 -296 300 -315 q 357 -240 357 -276 q 329 -191 357 -206 q 242 -176 301 -176 l 249 -137 q 260 -117 250 -125 q 293 -108 269 -108 q 400 -137 365 -108 q 435 -211 435 -167 q 386 -302 435 -272 q 263 -332 338 -332 z "},"Ł":{"ha":831,"x_min":14,"x_max":724,"o":"m 14 0 l 18 22 l 133 78 l 183 364 l 64 293 l 78 369 l 197 439 l 267 839 l 171 894 l 175 917 l 518 917 l 514 894 l 386 839 l 328 506 l 556 639 l 539 563 l 315 432 l 251 69 l 572 69 l 701 308 l 724 308 l 669 0 l 14 0 z "},"Ŀ":{"ha":831,"x_min":14,"x_max":758,"o":"m 14 0 l 18 22 l 133 78 l 267 839 l 171 894 l 175 917 l 518 917 l 514 894 l 386 839 l 251 69 l 572 69 l 701 308 l 724 308 l 669 0 l 14 0 m 679 403 q 624 426 647 403 q 600 482 600 450 q 624 538 600 514 q 679 561 647 561 q 735 538 711 561 q 758 482 758 514 q 735 426 758 450 q 679 403 711 403 z "},"Ḷ":{"ha":831,"x_min":14,"x_max":724,"o":"m 14 0 l 18 22 l 133 78 l 267 839 l 171 894 l 175 917 l 518 917 l 514 894 l 386 839 l 251 69 l 572 69 l 701 308 l 724 308 l 669 0 l 14 0 z "},"Ḻ":{"ha":831,"x_min":14,"x_max":724,"o":"m 14 0 l 18 22 l 133 78 l 267 839 l 171 894 l 175 917 l 518 917 l 514 894 l 386 839 l 251 69 l 572 69 l 701 308 l 724 308 l 669 0 l 14 0 z "},"Ṃ":{"ha":1281,"x_min":14,"x_max":1267,"o":"m 14 0 l 18 22 l 132 78 l 296 838 l 181 894 l 186 917 l 433 917 l 617 168 l 1033 917 l 1267 917 l 1261 894 l 1144 840 l 1056 78 l 1139 22 l 1135 0 l 828 0 l 832 22 l 939 76 l 1022 756 l 596 -7 l 538 -7 l 354 756 l 214 76 l 311 22 l 307 0 l 14 0 z "},"Ń":{"ha":1078,"x_min":14,"x_max":1071,"o":"m 14 0 l 18 22 l 136 78 l 269 836 l 172 894 l 176 917 l 371 917 l 757 225 l 865 842 l 738 894 l 743 917 l 1071 917 l 1067 894 l 950 840 l 801 -7 l 750 -7 l 336 728 l 221 76 l 349 22 l 343 0 l 14 0 m 653 986 l 800 1197 l 908 1197 q 893 1155 904 1176 q 849 1110 882 1133 l 667 986 l 653 986 z "},"Ň":{"ha":1078,"x_min":14,"x_max":1071,"o":"m 14 0 l 18 22 l 136 78 l 269 836 l 172 894 l 176 917 l 371 917 l 757 225 l 865 842 l 738 894 l 743 917 l 1071 917 l 1067 894 l 950 840 l 801 -7 l 750 -7 l 336 728 l 221 76 l 349 22 l 343 0 l 14 0 m 642 986 l 510 1197 l 524 1197 l 676 1083 l 885 1197 l 899 1197 l 681 986 l 642 986 z "},"Ñ":{"ha":1078,"x_min":14,"x_max":1071,"o":"m 14 0 l 18 22 l 136 78 l 269 836 l 172 894 l 176 917 l 371 917 l 757 225 l 865 842 l 738 894 l 743 917 l 1071 917 l 1067 894 l 950 840 l 801 -7 l 750 -7 l 336 728 l 221 76 l 349 22 l 343 0 l 14 0 m 461 1008 q 521 1114 496 1081 q 566 1157 546 1147 q 610 1167 586 1167 q 672 1146 644 1167 q 722 1105 699 1125 q 774 1085 746 1085 q 817 1098 797 1085 q 871 1167 838 1111 l 893 1167 q 833 1061 858 1094 q 788 1018 808 1028 q 744 1008 767 1008 q 683 1029 710 1008 q 633 1070 657 1050 q 582 1090 610 1090 q 538 1077 558 1090 q 483 1008 517 1064 l 461 1008 z "},"Ņ":{"ha":1078,"x_min":14,"x_max":1071,"o":"m 14 0 l 18 22 l 136 78 l 269 836 l 172 894 l 176 917 l 371 917 l 757 225 l 865 842 l 738 894 l 743 917 l 1071 917 l 1067 894 l 950 840 l 801 -7 l 750 -7 l 336 728 l 221 76 l 349 22 l 343 0 l 14 0 m 388 -332 q 363 -331 376 -332 q 339 -328 350 -331 l 343 -312 q 360 -315 353 -314 q 375 -315 367 -315 q 453 -296 425 -315 q 482 -240 482 -276 q 454 -191 482 -206 q 367 -176 426 -176 l 374 -137 q 385 -117 375 -125 q 418 -108 394 -108 q 525 -137 490 -108 q 560 -211 560 -167 q 511 -302 560 -272 q 388 -332 463 -332 z "},"Ṅ":{"ha":1078,"x_min":14,"x_max":1071,"o":"m 14 0 l 18 22 l 136 78 l 269 836 l 172 894 l 176 917 l 371 917 l 757 225 l 865 842 l 738 894 l 743 917 l 1071 917 l 1067 894 l 950 840 l 801 -7 l 750 -7 l 336 728 l 221 76 l 349 22 l 343 0 l 14 0 m 678 1013 q 622 1036 646 1013 q 599 1092 599 1060 q 622 1147 599 1124 q 678 1171 646 1171 q 733 1147 710 1171 q 757 1092 757 1124 q 733 1036 757 1060 q 678 1013 710 1013 z "},"Ṇ":{"ha":1078,"x_min":14,"x_max":1071,"o":"m 14 0 l 18 22 l 136 78 l 269 836 l 172 894 l 176 917 l 371 917 l 757 225 l 865 842 l 738 894 l 743 917 l 1071 917 l 1067 894 l 950 840 l 801 -7 l 750 -7 l 336 728 l 221 76 l 349 22 l 343 0 l 14 0 z "},"Ṉ":{"ha":1078,"x_min":14,"x_max":1071,"o":"m 14 0 l 18 22 l 136 78 l 269 836 l 172 894 l 176 917 l 371 917 l 757 225 l 865 842 l 738 894 l 743 917 l 1071 917 l 1067 894 l 950 840 l 801 -7 l 750 -7 l 336 728 l 221 76 l 349 22 l 343 0 l 14 0 z "},"Ò":{"ha":1064,"x_min":83,"x_max":981,"o":"m 461 -14 q 263 38 347 -14 q 131 181 178 89 q 83 392 83 272 q 122 593 83 496 q 231 767 161 690 q 396 888 301 843 q 601 932 490 932 q 801 881 717 932 q 933 737 886 829 q 981 525 981 644 q 942 326 981 422 q 835 153 904 231 q 670 31 765 76 q 461 -14 575 -14 m 506 53 q 647 89 583 53 q 758 190 711 125 q 830 337 804 254 q 856 514 856 419 q 819 699 856 619 q 716 823 782 778 q 564 868 650 868 q 381 806 461 868 q 255 640 300 744 q 210 406 210 535 q 247 222 210 301 q 351 97 285 142 q 506 53 417 53 m 618 986 l 439 1110 q 409 1153 411 1129 q 410 1197 407 1176 l 507 1197 l 632 986 l 618 986 z "},"Ó":{"ha":1064,"x_min":83,"x_max":981,"o":"m 461 -14 q 263 38 347 -14 q 131 181 178 89 q 83 392 83 272 q 122 593 83 496 q 231 767 161 690 q 396 888 301 843 q 601 932 490 932 q 801 881 717 932 q 933 737 886 829 q 981 525 981 644 q 942 326 981 422 q 835 153 904 231 q 670 31 765 76 q 461 -14 575 -14 m 506 53 q 647 89 583 53 q 758 190 711 125 q 830 337 804 254 q 856 514 856 419 q 819 699 856 619 q 716 823 782 778 q 564 868 650 868 q 381 806 461 868 q 255 640 300 744 q 210 406 210 535 q 247 222 210 301 q 351 97 285 142 q 506 53 417 53 m 618 986 l 765 1197 l 874 1197 q 858 1155 869 1176 q 814 1110 847 1133 l 632 986 l 618 986 z "},"Ô":{"ha":1064,"x_min":83,"x_max":981,"o":"m 461 -14 q 263 38 347 -14 q 131 181 178 89 q 83 392 83 272 q 122 593 83 496 q 231 767 161 690 q 396 888 301 843 q 601 932 490 932 q 801 881 717 932 q 933 737 886 829 q 981 525 981 644 q 942 326 981 422 q 835 153 904 231 q 670 31 765 76 q 461 -14 575 -14 m 506 53 q 647 89 583 53 q 758 190 711 125 q 830 337 804 254 q 856 514 856 419 q 819 699 856 619 q 716 823 782 778 q 564 868 650 868 q 381 806 461 868 q 255 640 300 744 q 210 406 210 535 q 247 222 210 301 q 351 97 285 142 q 506 53 417 53 m 424 986 l 642 1197 l 681 1197 l 813 986 l 799 986 l 646 1100 l 438 986 l 424 986 z "},"Õ":{"ha":1064,"x_min":83,"x_max":981,"o":"m 461 -14 q 263 38 347 -14 q 131 181 178 89 q 83 392 83 272 q 122 593 83 496 q 231 767 161 690 q 396 888 301 843 q 601 932 490 932 q 801 881 717 932 q 933 737 886 829 q 981 525 981 644 q 942 326 981 422 q 835 153 904 231 q 670 31 765 76 q 461 -14 575 -14 m 506 53 q 647 89 583 53 q 758 190 711 125 q 830 337 804 254 q 856 514 856 419 q 819 699 856 619 q 716 823 782 778 q 564 868 650 868 q 381 806 461 868 q 255 640 300 744 q 210 406 210 535 q 247 222 210 301 q 351 97 285 142 q 506 53 417 53 m 426 1008 q 486 1114 461 1081 q 531 1157 511 1147 q 575 1167 551 1167 q 637 1146 610 1167 q 688 1105 664 1125 q 739 1085 711 1085 q 783 1098 763 1085 q 836 1167 803 1111 l 858 1167 q 799 1061 824 1094 q 753 1018 774 1028 q 710 1008 732 1008 q 649 1029 675 1008 q 599 1070 622 1050 q 547 1090 575 1090 q 503 1077 524 1090 q 449 1008 482 1064 l 426 1008 z "},"Ö":{"ha":1064,"x_min":83,"x_max":981,"o":"m 461 -14 q 263 38 347 -14 q 131 181 178 89 q 83 392 83 272 q 122 593 83 496 q 231 767 161 690 q 396 888 301 843 q 601 932 490 932 q 801 881 717 932 q 933 737 886 829 q 981 525 981 644 q 942 326 981 422 q 835 153 904 231 q 670 31 765 76 q 461 -14 575 -14 m 506 53 q 647 89 583 53 q 758 190 711 125 q 830 337 804 254 q 856 514 856 419 q 819 699 856 619 q 716 823 782 778 q 564 868 650 868 q 381 806 461 868 q 255 640 300 744 q 210 406 210 535 q 247 222 210 301 q 351 97 285 142 q 506 53 417 53 m 526 1029 q 482 1047 500 1029 q 464 1092 464 1065 q 482 1136 464 1118 q 526 1154 500 1154 q 571 1136 553 1154 q 589 1092 589 1118 q 571 1047 589 1065 q 526 1029 553 1029 m 763 1029 q 718 1047 736 1029 q 700 1092 700 1065 q 718 1136 700 1118 q 763 1154 736 1154 q 807 1136 789 1154 q 825 1092 825 1118 q 807 1047 825 1065 q 763 1029 789 1029 z "},"Ō":{"ha":1064,"x_min":83,"x_max":981,"o":"m 461 -14 q 263 38 347 -14 q 131 181 178 89 q 83 392 83 272 q 122 593 83 496 q 231 767 161 690 q 396 888 301 843 q 601 932 490 932 q 801 881 717 932 q 933 737 886 829 q 981 525 981 644 q 942 326 981 422 q 835 153 904 231 q 670 31 765 76 q 461 -14 575 -14 m 506 53 q 647 89 583 53 q 758 190 711 125 q 830 337 804 254 q 856 514 856 419 q 819 699 856 619 q 716 823 782 778 q 564 868 650 868 q 381 806 461 868 q 255 640 300 744 q 210 406 210 535 q 247 222 210 301 q 351 97 285 142 q 506 53 417 53 m 461 1065 l 472 1126 l 824 1126 l 811 1065 l 461 1065 z "},"Ŏ":{"ha":1064,"x_min":83,"x_max":981,"o":"m 461 -14 q 263 38 347 -14 q 131 181 178 89 q 83 392 83 272 q 122 593 83 496 q 231 767 161 690 q 396 888 301 843 q 601 932 490 932 q 801 881 717 932 q 933 737 886 829 q 981 525 981 644 q 942 326 981 422 q 835 153 904 231 q 670 31 765 76 q 461 -14 575 -14 m 506 53 q 647 89 583 53 q 758 190 711 125 q 830 337 804 254 q 856 514 856 419 q 819 699 856 619 q 716 823 782 778 q 564 868 650 868 q 381 806 461 868 q 255 640 300 744 q 210 406 210 535 q 247 222 210 301 q 351 97 285 142 q 506 53 417 53 m 625 986 q 503 1039 536 986 q 467 1197 471 1092 l 481 1197 q 510 1111 490 1139 q 560 1074 531 1083 q 631 1065 590 1065 q 706 1073 671 1065 q 774 1108 742 1081 q 839 1197 807 1136 l 853 1197 q 625 986 788 986 z "},"Ő":{"ha":1064,"x_min":83,"x_max":981,"o":"m 461 -14 q 263 38 347 -14 q 131 181 178 89 q 83 392 83 272 q 122 593 83 496 q 231 767 161 690 q 396 888 301 843 q 601 932 490 932 q 801 881 717 932 q 933 737 886 829 q 981 525 981 644 q 942 326 981 422 q 835 153 904 231 q 670 31 765 76 q 461 -14 575 -14 m 506 53 q 647 89 583 53 q 758 190 711 125 q 830 337 804 254 q 856 514 856 419 q 819 699 856 619 q 716 823 782 778 q 564 868 650 868 q 381 806 461 868 q 255 640 300 744 q 210 406 210 535 q 247 222 210 301 q 351 97 285 142 q 506 53 417 53 m 536 986 l 649 1197 l 726 1197 q 725 1154 729 1176 q 694 1110 721 1132 l 550 986 l 536 986 m 688 986 l 825 1197 l 903 1197 q 902 1153 906 1176 q 872 1110 899 1129 l 700 986 l 688 986 z "},"Ọ":{"ha":1064,"x_min":83,"x_max":981,"o":"m 461 -14 q 263 38 347 -14 q 131 181 178 89 q 83 392 83 272 q 122 593 83 496 q 231 767 161 690 q 396 888 301 843 q 601 932 490 932 q 801 881 717 932 q 933 737 886 829 q 981 525 981 644 q 942 326 981 422 q 835 153 904 231 q 670 31 765 76 q 461 -14 575 -14 m 506 53 q 647 89 583 53 q 758 190 711 125 q 830 337 804 254 q 856 514 856 419 q 819 699 856 619 q 716 823 782 778 q 564 868 650 868 q 381 806 461 868 q 255 640 300 744 q 210 406 210 535 q 247 222 210 301 q 351 97 285 142 q 506 53 417 53 z "},"Ǫ":{"ha":1064,"x_min":83,"x_max":981,"o":"m 433 -333 q 351 -303 381 -333 q 321 -221 321 -274 q 352 -122 321 -172 q 440 -14 383 -71 q 252 44 332 -8 q 128 185 172 96 q 83 392 83 275 q 122 593 83 496 q 231 767 161 690 q 396 888 301 843 q 601 932 490 932 q 801 881 717 932 q 933 737 886 829 q 981 525 981 644 q 944 331 981 425 q 842 161 908 238 q 684 38 775 85 q 483 -14 593 -8 q 406 -194 406 -115 q 426 -253 406 -235 q 483 -272 447 -272 q 515 -267 497 -272 q 553 -250 533 -262 l 557 -250 l 554 -268 q 433 -333 508 -333 m 506 53 q 647 89 583 53 q 758 190 711 125 q 830 337 804 254 q 856 514 856 419 q 819 699 856 619 q 716 823 782 778 q 564 868 650 868 q 381 806 461 868 q 255 640 300 744 q 210 406 210 535 q 247 222 210 301 q 351 97 285 142 q 506 53 417 53 z "},"Ȍ":{"ha":1064,"x_min":83,"x_max":981,"o":"m 461 -14 q 263 38 347 -14 q 131 181 178 89 q 83 392 83 272 q 122 593 83 496 q 231 767 161 690 q 396 888 301 843 q 601 932 490 932 q 801 881 717 932 q 933 737 886 829 q 981 525 981 644 q 942 326 981 422 q 835 153 904 231 q 670 31 765 76 q 461 -14 575 -14 m 506 53 q 647 89 583 53 q 758 190 711 125 q 830 337 804 254 q 856 514 856 419 q 819 699 856 619 q 716 823 782 778 q 564 868 650 868 q 381 806 461 868 q 255 640 300 744 q 210 406 210 535 q 247 222 210 301 q 351 97 285 142 q 506 53 417 53 m 679 986 l 551 1119 q 526 1160 529 1143 q 526 1197 522 1176 l 603 1197 l 693 986 l 679 986 m 538 986 l 381 1119 q 351 1160 354 1142 q 353 1197 349 1178 l 429 1197 l 551 986 l 538 986 z "},"Ȏ":{"ha":1064,"x_min":83,"x_max":981,"o":"m 461 -14 q 263 38 347 -14 q 131 181 178 89 q 83 392 83 272 q 122 593 83 496 q 231 767 161 690 q 396 888 301 843 q 601 932 490 932 q 801 881 717 932 q 933 737 886 829 q 981 525 981 644 q 942 326 981 422 q 835 153 904 231 q 670 31 765 76 q 461 -14 575 -14 m 506 53 q 647 89 583 53 q 758 190 711 125 q 830 337 804 254 q 856 514 856 419 q 819 699 856 619 q 716 823 782 778 q 564 868 650 868 q 381 806 461 868 q 255 640 300 744 q 210 406 210 535 q 247 222 210 301 q 351 97 285 142 q 506 53 417 53 m 431 986 q 658 1197 496 1197 q 780 1144 747 1197 q 817 986 813 1092 l 803 986 q 773 1072 793 1044 q 723 1109 753 1100 q 653 1118 693 1118 q 577 1110 613 1118 q 509 1075 542 1103 q 444 986 476 1047 l 431 986 z "},"Ȫ":{"ha":1064,"x_min":83,"x_max":981,"o":"m 461 -14 q 263 38 347 -14 q 131 181 178 89 q 83 392 83 272 q 122 593 83 496 q 231 767 161 690 q 396 888 301 843 q 601 932 490 932 q 801 881 717 932 q 933 737 886 829 q 981 525 981 644 q 942 326 981 422 q 835 153 904 231 q 670 31 765 76 q 461 -14 575 -14 m 506 53 q 647 89 583 53 q 758 190 711 125 q 830 337 804 254 q 856 514 856 419 q 819 699 856 619 q 716 823 782 778 q 564 868 650 868 q 381 806 461 868 q 255 640 300 744 q 210 406 210 535 q 247 222 210 301 q 351 97 285 142 q 506 53 417 53 z "},"Ȭ":{"ha":1064,"x_min":83,"x_max":981,"o":"m 461 -14 q 263 38 347 -14 q 131 181 178 89 q 83 392 83 272 q 122 593 83 496 q 231 767 161 690 q 396 888 301 843 q 601 932 490 932 q 801 881 717 932 q 933 737 886 829 q 981 525 981 644 q 942 326 981 422 q 835 153 904 231 q 670 31 765 76 q 461 -14 575 -14 m 506 53 q 647 89 583 53 q 758 190 711 125 q 830 337 804 254 q 856 514 856 419 q 819 699 856 619 q 716 823 782 778 q 564 868 650 868 q 381 806 461 868 q 255 640 300 744 q 210 406 210 535 q 247 222 210 301 q 351 97 285 142 q 506 53 417 53 z "},"Ȱ":{"ha":1064,"x_min":83,"x_max":981,"o":"m 461 -14 q 263 38 347 -14 q 131 181 178 89 q 83 392 83 272 q 122 593 83 496 q 231 767 161 690 q 396 888 301 843 q 601 932 490 932 q 801 881 717 932 q 933 737 886 829 q 981 525 981 644 q 942 326 981 422 q 835 153 904 231 q 670 31 765 76 q 461 -14 575 -14 m 506 53 q 647 89 583 53 q 758 190 711 125 q 830 337 804 254 q 856 514 856 419 q 819 699 856 619 q 716 823 782 778 q 564 868 650 868 q 381 806 461 868 q 255 640 300 744 q 210 406 210 535 q 247 222 210 301 q 351 97 285 142 q 506 53 417 53 z "},"Ố":{"ha":1064,"x_min":83,"x_max":990,"o":"m 461 -14 q 263 38 347 -14 q 131 181 178 89 q 83 392 83 272 q 122 593 83 496 q 231 767 161 690 q 396 888 301 843 q 601 932 490 932 q 801 881 717 932 q 933 737 886 829 q 981 525 981 644 q 942 326 981 422 q 835 153 904 231 q 670 31 765 76 q 461 -14 575 -14 m 506 53 q 647 89 583 53 q 758 190 711 125 q 830 337 804 254 q 856 514 856 419 q 819 699 856 619 q 716 823 782 778 q 564 868 650 868 q 381 806 461 868 q 255 640 300 744 q 210 406 210 535 q 247 222 210 301 q 351 97 285 142 q 506 53 417 53 m 794 1118 l 883 1317 l 990 1317 q 974 1276 986 1296 q 933 1231 963 1256 l 806 1118 l 794 1118 m 424 986 l 642 1197 l 681 1197 l 813 986 l 799 986 l 646 1100 l 438 986 l 424 986 z "},"Ộ":{"ha":1064,"x_min":83,"x_max":981,"o":"m 461 -14 q 263 38 347 -14 q 131 181 178 89 q 83 392 83 272 q 122 593 83 496 q 231 767 161 690 q 396 888 301 843 q 601 932 490 932 q 801 881 717 932 q 933 737 886 829 q 981 525 981 644 q 942 326 981 422 q 835 153 904 231 q 670 31 765 76 q 461 -14 575 -14 m 506 53 q 647 89 583 53 q 758 190 711 125 q 830 337 804 254 q 856 514 856 419 q 819 699 856 619 q 716 823 782 778 q 564 868 650 868 q 381 806 461 868 q 255 640 300 744 q 210 406 210 535 q 247 222 210 301 q 351 97 285 142 q 506 53 417 53 m 424 986 l 642 1197 l 681 1197 l 813 986 l 799 986 l 646 1100 l 438 986 l 424 986 z "},"Ồ":{"ha":1064,"x_min":83,"x_max":981,"o":"m 461 -14 q 263 38 347 -14 q 131 181 178 89 q 83 392 83 272 q 122 593 83 496 q 231 767 161 690 q 396 888 301 843 q 601 932 490 932 q 801 881 717 932 q 933 737 886 829 q 981 525 981 644 q 942 326 981 422 q 835 153 904 231 q 670 31 765 76 q 461 -14 575 -14 m 506 53 q 647 89 583 53 q 758 190 711 125 q 830 337 804 254 q 856 514 856 419 q 819 699 856 619 q 716 823 782 778 q 564 868 650 868 q 381 806 461 868 q 255 640 300 744 q 210 406 210 535 q 247 222 210 301 q 351 97 285 142 q 506 53 417 53 m 468 1118 l 336 1229 q 308 1274 311 1251 q 307 1317 304 1296 l 400 1317 l 482 1118 l 468 1118 m 424 986 l 642 1197 l 681 1197 l 813 986 l 799 986 l 646 1100 l 438 986 l 424 986 z "},"Ổ":{"ha":1064,"x_min":83,"x_max":981,"o":"m 461 -14 q 263 38 347 -14 q 131 181 178 89 q 83 392 83 272 q 122 593 83 496 q 231 767 161 690 q 396 888 301 843 q 601 932 490 932 q 801 881 717 932 q 933 737 886 829 q 981 525 981 644 q 942 326 981 422 q 835 153 904 231 q 670 31 765 76 q 461 -14 575 -14 m 506 53 q 647 89 583 53 q 758 190 711 125 q 830 337 804 254 q 856 514 856 419 q 819 699 856 619 q 716 823 782 778 q 564 868 650 868 q 381 806 461 868 q 255 640 300 744 q 210 406 210 535 q 247 222 210 301 q 351 97 285 142 q 506 53 417 53 z "},"Ỗ":{"ha":1064,"x_min":83,"x_max":981,"o":"m 461 -14 q 263 38 347 -14 q 131 181 178 89 q 83 392 83 272 q 122 593 83 496 q 231 767 161 690 q 396 888 301 843 q 601 932 490 932 q 801 881 717 932 q 933 737 886 829 q 981 525 981 644 q 942 326 981 422 q 835 153 904 231 q 670 31 765 76 q 461 -14 575 -14 m 506 53 q 647 89 583 53 q 758 190 711 125 q 830 337 804 254 q 856 514 856 419 q 819 699 856 619 q 716 823 782 778 q 564 868 650 868 q 381 806 461 868 q 255 640 300 744 q 210 406 210 535 q 247 222 210 301 q 351 97 285 142 q 506 53 417 53 z "},"Ỏ":{"ha":1064,"x_min":83,"x_max":981,"o":"m 461 -14 q 263 38 347 -14 q 131 181 178 89 q 83 392 83 272 q 122 593 83 496 q 231 767 161 690 q 396 888 301 843 q 601 932 490 932 q 801 881 717 932 q 933 737 886 829 q 981 525 981 644 q 942 326 981 422 q 835 153 904 231 q 670 31 765 76 q 461 -14 575 -14 m 506 53 q 647 89 583 53 q 758 190 711 125 q 830 337 804 254 q 856 514 856 419 q 819 699 856 619 q 716 823 782 778 q 564 868 650 868 q 381 806 461 868 q 255 640 300 744 q 210 406 210 535 q 247 222 210 301 q 351 97 285 142 q 506 53 417 53 m 574 975 l 567 983 l 567 985 q 647 1023 619 1001 q 674 1082 674 1044 q 653 1122 674 1106 q 585 1147 633 1138 l 610 1215 q 710 1178 682 1208 q 739 1111 739 1147 q 574 975 739 1008 z "},"Ṍ":{"ha":1064,"x_min":83,"x_max":981,"o":"m 461 -14 q 263 38 347 -14 q 131 181 178 89 q 83 392 83 272 q 122 593 83 496 q 231 767 161 690 q 396 888 301 843 q 601 932 490 932 q 801 881 717 932 q 933 737 886 829 q 981 525 981 644 q 942 326 981 422 q 835 153 904 231 q 670 31 765 76 q 461 -14 575 -14 m 506 53 q 647 89 583 53 q 758 190 711 125 q 830 337 804 254 q 856 514 856 419 q 819 699 856 619 q 716 823 782 778 q 564 868 650 868 q 381 806 461 868 q 255 640 300 744 q 210 406 210 535 q 247 222 210 301 q 351 97 285 142 q 506 53 417 53 z "},"Ṏ":{"ha":1064,"x_min":83,"x_max":981,"o":"m 461 -14 q 263 38 347 -14 q 131 181 178 89 q 83 392 83 272 q 122 593 83 496 q 231 767 161 690 q 396 888 301 843 q 601 932 490 932 q 801 881 717 932 q 933 737 886 829 q 981 525 981 644 q 942 326 981 422 q 835 153 904 231 q 670 31 765 76 q 461 -14 575 -14 m 506 53 q 647 89 583 53 q 758 190 711 125 q 830 337 804 254 q 856 514 856 419 q 819 699 856 619 q 716 823 782 778 q 564 868 650 868 q 381 806 461 868 q 255 640 300 744 q 210 406 210 535 q 247 222 210 301 q 351 97 285 142 q 506 53 417 53 z "},"Ṑ":{"ha":1064,"x_min":83,"x_max":981,"o":"m 461 -14 q 263 38 347 -14 q 131 181 178 89 q 83 392 83 272 q 122 593 83 496 q 231 767 161 690 q 396 888 301 843 q 601 932 490 932 q 801 881 717 932 q 933 737 886 829 q 981 525 981 644 q 942 326 981 422 q 835 153 904 231 q 670 31 765 76 q 461 -14 575 -14 m 506 53 q 647 89 583 53 q 758 190 711 125 q 830 337 804 254 q 856 514 856 419 q 819 699 856 619 q 716 823 782 778 q 564 868 650 868 q 381 806 461 868 q 255 640 300 744 q 210 406 210 535 q 247 222 210 301 q 351 97 285 142 q 506 53 417 53 z "},"Ṓ":{"ha":1064,"x_min":83,"x_max":981,"o":"m 461 -14 q 263 38 347 -14 q 131 181 178 89 q 83 392 83 272 q 122 593 83 496 q 231 767 161 690 q 396 888 301 843 q 601 932 490 932 q 801 881 717 932 q 933 737 886 829 q 981 525 981 644 q 942 326 981 422 q 835 153 904 231 q 670 31 765 76 q 461 -14 575 -14 m 506 53 q 647 89 583 53 q 758 190 711 125 q 830 337 804 254 q 856 514 856 419 q 819 699 856 619 q 716 823 782 778 q 564 868 650 868 q 381 806 461 868 q 255 640 300 744 q 210 406 210 535 q 247 222 210 301 q 351 97 285 142 q 506 53 417 53 z "},"Ø":{"ha":1064,"x_min":3,"x_max":1061,"o":"m 3 -14 l 157 136 q 102 252 121 188 q 83 392 83 317 q 122 593 83 496 q 231 767 161 690 q 396 888 301 843 q 601 932 490 932 q 751 905 683 932 q 867 829 818 878 l 971 931 l 1061 931 l 907 781 q 981 525 981 675 q 942 326 981 422 q 835 153 904 231 q 670 31 765 76 q 461 -14 575 -14 q 313 13 381 -14 q 197 88 246 39 l 93 -14 l 3 -14 m 210 406 q 246 224 210 304 l 788 753 q 692 838 750 807 q 564 868 635 868 q 381 806 461 868 q 255 640 300 744 q 210 406 210 535 m 506 53 q 647 89 583 53 q 758 190 711 125 q 830 337 804 254 q 856 514 856 419 q 819 696 856 615 l 279 167 q 376 83 318 114 q 506 53 433 53 z "},"Ǿ":{"ha":1064,"x_min":3,"x_max":1061,"o":"m 3 -14 l 157 136 q 102 252 121 188 q 83 392 83 317 q 122 593 83 496 q 231 767 161 690 q 396 888 301 843 q 601 932 490 932 q 751 905 683 932 q 867 829 818 878 l 971 931 l 1061 931 l 907 781 q 981 525 981 675 q 942 326 981 422 q 835 153 904 231 q 670 31 765 76 q 461 -14 575 -14 q 313 13 381 -14 q 197 88 246 39 l 93 -14 l 3 -14 m 210 406 q 246 224 210 304 l 788 753 q 692 838 750 807 q 564 868 635 868 q 381 806 461 868 q 255 640 300 744 q 210 406 210 535 m 506 53 q 647 89 583 53 q 758 190 711 125 q 830 337 804 254 q 856 514 856 419 q 819 696 856 615 l 279 167 q 376 83 318 114 q 506 53 433 53 m 618 986 l 765 1197 l 874 1197 q 858 1155 869 1176 q 814 1110 847 1133 l 632 986 l 618 986 z "},"Ơ":{"ha":1064,"x_min":83,"x_max":988,"o":"m 461 -14 q 263 38 347 -14 q 131 181 178 89 q 83 392 83 272 q 122 593 83 496 q 231 767 161 690 q 396 888 301 843 q 601 932 490 932 q 769 897 694 932 q 810 892 790 892 q 869 911 850 892 q 893 965 888 931 l 904 1036 l 914 1044 l 956 1044 q 980 1040 972 1044 q 988 1022 988 1036 q 967 947 988 982 q 909 889 946 911 q 828 867 872 867 q 822 867 825 867 q 939 726 897 814 q 981 525 981 638 q 942 326 981 422 q 835 153 904 231 q 670 31 765 76 q 461 -14 575 -14 m 506 53 q 647 89 583 53 q 758 190 711 125 q 830 337 804 254 q 856 514 856 419 q 819 699 856 619 q 716 823 782 778 q 564 868 650 868 q 381 806 461 868 q 255 640 300 744 q 210 406 210 535 q 247 222 210 301 q 351 97 285 142 q 506 53 417 53 z "},"Ớ":{"ha":1064,"x_min":83,"x_max":988,"o":"m 461 -14 q 263 38 347 -14 q 131 181 178 89 q 83 392 83 272 q 122 593 83 496 q 231 767 161 690 q 396 888 301 843 q 601 932 490 932 q 769 897 694 932 q 810 892 790 892 q 869 911 850 892 q 893 965 888 931 l 904 1036 l 914 1044 l 956 1044 q 980 1040 972 1044 q 988 1022 988 1036 q 967 947 988 982 q 909 889 946 911 q 828 867 872 867 q 822 867 825 867 q 939 726 897 814 q 981 525 981 638 q 942 326 981 422 q 835 153 904 231 q 670 31 765 76 q 461 -14 575 -14 m 506 53 q 647 89 583 53 q 758 190 711 125 q 830 337 804 254 q 856 514 856 419 q 819 699 856 619 q 716 823 782 778 q 564 868 650 868 q 381 806 461 868 q 255 640 300 744 q 210 406 210 535 q 247 222 210 301 q 351 97 285 142 q 506 53 417 53 m 618 986 l 765 1197 l 874 1197 q 858 1155 869 1176 q 814 1110 847 1133 l 632 986 l 618 986 z "},"Ợ":{"ha":1064,"x_min":83,"x_max":988,"o":"m 461 -14 q 263 38 347 -14 q 131 181 178 89 q 83 392 83 272 q 122 593 83 496 q 231 767 161 690 q 396 888 301 843 q 601 932 490 932 q 769 897 694 932 q 810 892 790 892 q 869 911 850 892 q 893 965 888 931 l 904 1036 l 914 1044 l 956 1044 q 980 1040 972 1044 q 988 1022 988 1036 q 967 947 988 982 q 909 889 946 911 q 828 867 872 867 q 822 867 825 867 q 939 726 897 814 q 981 525 981 638 q 942 326 981 422 q 835 153 904 231 q 670 31 765 76 q 461 -14 575 -14 m 506 53 q 647 89 583 53 q 758 190 711 125 q 830 337 804 254 q 856 514 856 419 q 819 699 856 619 q 716 823 782 778 q 564 868 650 868 q 381 806 461 868 q 255 640 300 744 q 210 406 210 535 q 247 222 210 301 q 351 97 285 142 q 506 53 417 53 z "},"Ờ":{"ha":1064,"x_min":83,"x_max":988,"o":"m 461 -14 q 263 38 347 -14 q 131 181 178 89 q 83 392 83 272 q 122 593 83 496 q 231 767 161 690 q 396 888 301 843 q 601 932 490 932 q 769 897 694 932 q 810 892 790 892 q 869 911 850 892 q 893 965 888 931 l 904 1036 l 914 1044 l 956 1044 q 980 1040 972 1044 q 988 1022 988 1036 q 967 947 988 982 q 909 889 946 911 q 828 867 872 867 q 822 867 825 867 q 939 726 897 814 q 981 525 981 638 q 942 326 981 422 q 835 153 904 231 q 670 31 765 76 q 461 -14 575 -14 m 506 53 q 647 89 583 53 q 758 190 711 125 q 830 337 804 254 q 856 514 856 419 q 819 699 856 619 q 716 823 782 778 q 564 868 650 868 q 381 806 461 868 q 255 640 300 744 q 210 406 210 535 q 247 222 210 301 q 351 97 285 142 q 506 53 417 53 m 618 986 l 439 1110 q 409 1153 411 1129 q 410 1197 407 1176 l 507 1197 l 632 986 l 618 986 z "},"Ở":{"ha":1064,"x_min":83,"x_max":988,"o":"m 461 -14 q 263 38 347 -14 q 131 181 178 89 q 83 392 83 272 q 122 593 83 496 q 231 767 161 690 q 396 888 301 843 q 601 932 490 932 q 769 897 694 932 q 810 892 790 892 q 869 911 850 892 q 893 965 888 931 l 904 1036 l 914 1044 l 956 1044 q 980 1040 972 1044 q 988 1022 988 1036 q 967 947 988 982 q 909 889 946 911 q 828 867 872 867 q 822 867 825 867 q 939 726 897 814 q 981 525 981 638 q 942 326 981 422 q 835 153 904 231 q 670 31 765 76 q 461 -14 575 -14 m 506 53 q 647 89 583 53 q 758 190 711 125 q 830 337 804 254 q 856 514 856 419 q 819 699 856 619 q 716 823 782 778 q 564 868 650 868 q 381 806 461 868 q 255 640 300 744 q 210 406 210 535 q 247 222 210 301 q 351 97 285 142 q 506 53 417 53 m 574 975 l 567 983 l 567 985 q 647 1023 619 1001 q 674 1082 674 1044 q 653 1122 674 1106 q 585 1147 633 1138 l 610 1215 q 710 1178 682 1208 q 739 1111 739 1147 q 574 975 739 1008 z "},"Ỡ":{"ha":1064,"x_min":83,"x_max":988,"o":"m 461 -14 q 263 38 347 -14 q 131 181 178 89 q 83 392 83 272 q 122 593 83 496 q 231 767 161 690 q 396 888 301 843 q 601 932 490 932 q 769 897 694 932 q 810 892 790 892 q 869 911 850 892 q 893 965 888 931 l 904 1036 l 914 1044 l 956 1044 q 980 1040 972 1044 q 988 1022 988 1036 q 967 947 988 982 q 909 889 946 911 q 828 867 872 867 q 822 867 825 867 q 939 726 897 814 q 981 525 981 638 q 942 326 981 422 q 835 153 904 231 q 670 31 765 76 q 461 -14 575 -14 m 506 53 q 647 89 583 53 q 758 190 711 125 q 830 337 804 254 q 856 514 856 419 q 819 699 856 619 q 716 823 782 778 q 564 868 650 868 q 381 806 461 868 q 255 640 300 744 q 210 406 210 535 q 247 222 210 301 q 351 97 285 142 q 506 53 417 53 m 426 1008 q 486 1114 461 1081 q 531 1157 511 1147 q 575 1167 551 1167 q 637 1146 610 1167 q 688 1105 664 1125 q 739 1085 711 1085 q 783 1098 763 1085 q 836 1167 803 1111 l 858 1167 q 799 1061 824 1094 q 753 1018 774 1028 q 710 1008 732 1008 q 649 1029 675 1008 q 599 1070 622 1050 q 547 1090 575 1090 q 503 1077 524 1090 q 449 1008 482 1064 l 426 1008 z "},"Œ":{"ha":1317,"x_min":83,"x_max":1268,"o":"m 538 0 q 276 49 376 0 q 130 188 176 99 q 83 397 83 278 q 150 665 83 547 q 337 849 217 782 q 619 917 457 917 l 1268 917 l 1225 678 l 1203 678 l 1151 847 l 842 847 l 782 508 l 1006 508 l 1092 626 l 1114 626 l 1060 322 l 1038 322 l 994 439 l 769 439 l 704 69 l 1075 69 l 1186 253 l 1208 253 l 1164 0 l 538 0 m 540 69 l 586 69 l 722 847 l 614 847 q 397 793 486 847 q 260 639 307 739 q 213 401 213 539 q 294 151 213 233 q 540 69 375 69 z "},"Ŕ":{"ha":867,"x_min":14,"x_max":811,"o":"m 14 0 l 18 22 l 133 78 l 267 839 l 171 894 l 175 917 l 458 917 q 688 860 604 917 q 772 706 772 803 q 709 544 772 611 q 553 450 646 476 l 732 72 l 811 22 l 807 0 l 626 0 l 443 425 l 313 425 l 251 79 l 342 22 l 338 0 l 14 0 m 451 847 l 388 847 l 325 494 l 442 494 q 550 522 506 494 q 619 592 594 549 q 643 686 643 636 q 592 804 643 761 q 451 847 540 847 m 474 986 l 621 1197 l 729 1197 q 714 1155 725 1176 q 669 1110 703 1133 l 488 986 l 474 986 z "},"Ř":{"ha":867,"x_min":14,"x_max":811,"o":"m 14 0 l 18 22 l 133 78 l 267 839 l 171 894 l 175 917 l 458 917 q 688 860 604 917 q 772 706 772 803 q 709 544 772 611 q 553 450 646 476 l 732 72 l 811 22 l 807 0 l 626 0 l 443 425 l 313 425 l 251 79 l 342 22 l 338 0 l 14 0 m 451 847 l 388 847 l 325 494 l 442 494 q 550 522 506 494 q 619 592 594 549 q 643 686 643 636 q 592 804 643 761 q 451 847 540 847 m 463 986 l 331 1197 l 344 1197 l 497 1083 l 706 1197 l 719 1197 l 501 986 l 463 986 z "},"Ŗ":{"ha":867,"x_min":14,"x_max":811,"o":"m 14 0 l 18 22 l 133 78 l 267 839 l 171 894 l 175 917 l 458 917 q 688 860 604 917 q 772 706 772 803 q 709 544 772 611 q 553 450 646 476 l 732 72 l 811 22 l 807 0 l 626 0 l 443 425 l 313 425 l 251 79 l 342 22 l 338 0 l 14 0 m 451 847 l 388 847 l 325 494 l 442 494 q 550 522 506 494 q 619 592 594 549 q 643 686 643 636 q 592 804 643 761 q 451 847 540 847 m 308 -332 q 284 -331 297 -332 q 260 -328 271 -331 l 264 -312 q 281 -315 274 -314 q 296 -315 288 -315 q 374 -296 346 -315 q 403 -240 403 -276 q 375 -191 403 -206 q 288 -176 347 -176 l 294 -137 q 306 -117 296 -125 q 339 -108 315 -108 q 446 -137 411 -108 q 481 -211 481 -167 q 432 -302 481 -272 q 308 -332 383 -332 z "},"Ȑ":{"ha":867,"x_min":14,"x_max":811,"o":"m 14 0 l 18 22 l 133 78 l 267 839 l 171 894 l 175 917 l 458 917 q 688 860 604 917 q 772 706 772 803 q 709 544 772 611 q 553 450 646 476 l 732 72 l 811 22 l 807 0 l 626 0 l 443 425 l 313 425 l 251 79 l 342 22 l 338 0 l 14 0 m 451 847 l 388 847 l 325 494 l 442 494 q 550 522 506 494 q 619 592 594 549 q 643 686 643 636 q 592 804 643 761 q 451 847 540 847 m 535 986 l 407 1119 q 381 1160 385 1143 q 382 1197 378 1176 l 458 1197 l 549 986 l 535 986 m 393 986 l 236 1119 q 207 1160 210 1142 q 208 1197 204 1178 l 285 1197 l 407 986 l 393 986 z "},"Ȓ":{"ha":867,"x_min":14,"x_max":811,"o":"m 14 0 l 18 22 l 133 78 l 267 839 l 171 894 l 175 917 l 458 917 q 688 860 604 917 q 772 706 772 803 q 709 544 772 611 q 553 450 646 476 l 732 72 l 811 22 l 807 0 l 626 0 l 443 425 l 313 425 l 251 79 l 342 22 l 338 0 l 14 0 m 451 847 l 388 847 l 325 494 l 442 494 q 550 522 506 494 q 619 592 594 549 q 643 686 643 636 q 592 804 643 761 q 451 847 540 847 m 286 986 q 514 1197 351 1197 q 635 1144 603 1197 q 672 986 668 1092 l 658 986 q 628 1072 649 1044 q 578 1109 608 1100 q 508 1118 549 1118 q 433 1110 468 1118 q 365 1075 397 1103 q 300 986 332 1047 l 286 986 z "},"Ṛ":{"ha":867,"x_min":14,"x_max":811,"o":"m 14 0 l 18 22 l 133 78 l 267 839 l 171 894 l 175 917 l 458 917 q 688 860 604 917 q 772 706 772 803 q 709 544 772 611 q 553 450 646 476 l 732 72 l 811 22 l 807 0 l 626 0 l 443 425 l 313 425 l 251 79 l 342 22 l 338 0 l 14 0 m 451 847 l 388 847 l 325 494 l 442 494 q 550 522 506 494 q 619 592 594 549 q 643 686 643 636 q 592 804 643 761 q 451 847 540 847 z "},"Ṟ":{"ha":867,"x_min":14,"x_max":811,"o":"m 14 0 l 18 22 l 133 78 l 267 839 l 171 894 l 175 917 l 458 917 q 688 860 604 917 q 772 706 772 803 q 709 544 772 611 q 553 450 646 476 l 732 72 l 811 22 l 807 0 l 626 0 l 443 425 l 313 425 l 251 79 l 342 22 l 338 0 l 14 0 m 451 847 l 388 847 l 325 494 l 442 494 q 550 522 506 494 q 619 592 594 549 q 643 686 643 636 q 592 804 643 761 q 451 847 540 847 z "},"ẞ":{"ha":1358,"x_min":0,"x_max":1317,"o":"m 246 -14 q 110 2 164 -14 q 0 50 56 18 l 26 278 l 49 278 l 103 115 q 178 61 140 78 q 257 44 217 44 q 406 102 356 44 q 456 251 456 160 q 419 349 456 308 q 286 442 382 389 q 172 536 208 486 q 136 654 136 586 q 179 796 136 733 q 290 894 222 858 q 431 931 357 931 q 540 915 492 931 q 638 872 589 900 l 613 650 l 590 650 l 539 811 q 484 851 515 833 q 404 869 453 869 q 324 847 361 869 q 265 781 288 824 q 242 683 242 739 q 273 597 242 633 q 378 518 304 560 q 492 442 450 478 q 552 367 533 407 q 571 276 571 328 q 525 125 571 190 q 405 23 479 60 q 246 -14 331 -14 m 925 -14 q 789 2 843 -14 q 679 50 735 18 l 706 278 l 728 278 l 782 115 q 858 61 819 78 q 936 44 896 44 q 1085 102 1035 44 q 1135 251 1135 160 q 1098 349 1135 308 q 965 442 1061 389 q 851 536 888 486 q 815 654 815 586 q 858 796 815 733 q 969 894 901 858 q 1110 931 1036 931 q 1219 915 1171 931 q 1317 872 1268 900 l 1292 650 l 1269 650 l 1218 811 q 1163 851 1194 833 q 1083 869 1132 869 q 1003 847 1040 869 q 944 781 967 824 q 921 683 921 739 q 952 597 921 633 q 1057 518 983 560 q 1171 442 1129 478 q 1231 367 1213 407 q 1250 276 1250 328 q 1204 125 1250 190 q 1084 23 1158 60 q 925 -14 1010 -14 z "},"Ś":{"ha":679,"x_min":0,"x_max":690,"o":"m 246 -14 q 110 2 164 -14 q 0 50 56 18 l 26 278 l 49 278 l 103 115 q 178 61 140 78 q 257 44 217 44 q 406 102 356 44 q 456 251 456 160 q 419 349 456 308 q 286 442 382 389 q 172 536 208 486 q 136 654 136 586 q 179 796 136 733 q 290 894 222 858 q 431 931 357 931 q 540 915 492 931 q 638 872 589 900 l 613 650 l 590 650 l 539 811 q 484 851 515 833 q 404 869 453 869 q 324 847 361 869 q 265 781 288 824 q 242 683 242 739 q 273 597 242 633 q 378 518 304 560 q 492 442 450 478 q 552 367 533 407 q 571 276 571 328 q 525 125 571 190 q 405 23 479 60 q 246 -14 331 -14 m 435 986 l 582 1197 l 690 1197 q 675 1155 686 1176 q 631 1110 664 1133 l 449 986 l 435 986 z "},"Ŝ":{"ha":679,"x_min":0,"x_max":638,"o":"m 246 -14 q 110 2 164 -14 q 0 50 56 18 l 26 278 l 49 278 l 103 115 q 178 61 140 78 q 257 44 217 44 q 406 102 356 44 q 456 251 456 160 q 419 349 456 308 q 286 442 382 389 q 172 536 208 486 q 136 654 136 586 q 179 796 136 733 q 290 894 222 858 q 431 931 357 931 q 540 915 492 931 q 638 872 589 900 l 613 650 l 590 650 l 539 811 q 484 851 515 833 q 404 869 453 869 q 324 847 361 869 q 265 781 288 824 q 242 683 242 739 q 273 597 242 633 q 378 518 304 560 q 492 442 450 478 q 552 367 533 407 q 571 276 571 328 q 525 125 571 190 q 405 23 479 60 q 246 -14 331 -14 m 240 986 l 458 1197 l 497 1197 l 629 986 l 615 986 l 463 1100 l 254 986 l 240 986 z "},"Š":{"ha":679,"x_min":0,"x_max":681,"o":"m 246 -14 q 110 2 164 -14 q 0 50 56 18 l 26 278 l 49 278 l 103 115 q 178 61 140 78 q 257 44 217 44 q 406 102 356 44 q 456 251 456 160 q 419 349 456 308 q 286 442 382 389 q 172 536 208 486 q 136 654 136 586 q 179 796 136 733 q 290 894 222 858 q 431 931 357 931 q 540 915 492 931 q 638 872 589 900 l 613 650 l 590 650 l 539 811 q 484 851 515 833 q 404 869 453 869 q 324 847 361 869 q 265 781 288 824 q 242 683 242 739 q 273 597 242 633 q 378 518 304 560 q 492 442 450 478 q 552 367 533 407 q 571 276 571 328 q 525 125 571 190 q 405 23 479 60 q 246 -14 331 -14 m 424 986 l 292 1197 l 306 1197 l 458 1083 l 667 1197 l 681 1197 l 463 986 l 424 986 z "},"Ş":{"ha":679,"x_min":0,"x_max":638,"o":"m 196 -333 q 132 -322 161 -333 q 88 -292 103 -311 l 90 -276 l 94 -276 q 132 -290 113 -285 q 179 -296 151 -296 q 268 -229 268 -296 q 241 -174 268 -194 q 149 -132 214 -153 l 224 -14 q 103 4 153 -11 q 0 50 53 19 l 26 278 l 49 278 l 103 115 q 170 66 132 88 q 257 44 208 44 q 370 74 326 44 q 435 150 414 103 q 456 251 456 197 q 434 331 456 300 q 374 388 413 363 q 286 442 336 413 q 175 531 214 483 q 136 654 136 578 q 165 771 136 719 q 239 858 193 822 q 335 912 285 893 q 431 931 386 931 q 540 915 492 931 q 638 872 589 900 l 613 650 l 590 650 l 539 811 q 484 851 515 833 q 404 869 453 869 q 324 847 361 869 q 265 781 288 824 q 242 683 242 739 q 275 592 242 628 q 378 518 308 557 q 523 413 475 464 q 571 276 571 361 q 543 153 571 206 q 469 64 515 100 q 370 9 424 28 q 265 -14 317 -10 l 225 -76 q 314 -131 288 -100 q 340 -210 340 -161 q 302 -297 340 -261 q 196 -333 264 -333 z "},"Ș":{"ha":679,"x_min":0,"x_max":638,"o":"m 246 -14 q 110 2 164 -14 q 0 50 56 18 l 26 278 l 49 278 l 103 115 q 178 61 140 78 q 257 44 217 44 q 406 102 356 44 q 456 251 456 160 q 419 349 456 308 q 286 442 382 389 q 172 536 208 486 q 136 654 136 586 q 179 796 136 733 q 290 894 222 858 q 431 931 357 931 q 540 915 492 931 q 638 872 589 900 l 613 650 l 590 650 l 539 811 q 484 851 515 833 q 404 869 453 869 q 324 847 361 869 q 265 781 288 824 q 242 683 242 739 q 273 597 242 633 q 378 518 304 560 q 492 442 450 478 q 552 367 533 407 q 571 276 571 328 q 525 125 571 190 q 405 23 479 60 q 246 -14 331 -14 z "},"Ṡ":{"ha":679,"x_min":0,"x_max":638,"o":"m 246 -14 q 110 2 164 -14 q 0 50 56 18 l 26 278 l 49 278 l 103 115 q 178 61 140 78 q 257 44 217 44 q 406 102 356 44 q 456 251 456 160 q 419 349 456 308 q 286 442 382 389 q 172 536 208 486 q 136 654 136 586 q 179 796 136 733 q 290 894 222 858 q 431 931 357 931 q 540 915 492 931 q 638 872 589 900 l 613 650 l 590 650 l 539 811 q 484 851 515 833 q 404 869 453 869 q 324 847 361 869 q 265 781 288 824 q 242 683 242 739 q 273 597 242 633 q 378 518 304 560 q 492 442 450 478 q 552 367 533 407 q 571 276 571 328 q 525 125 571 190 q 405 23 479 60 q 246 -14 331 -14 m 460 1013 q 404 1036 428 1013 q 381 1092 381 1060 q 404 1147 381 1124 q 460 1171 428 1171 q 515 1147 492 1171 q 539 1092 539 1124 q 515 1036 539 1060 q 460 1013 492 1013 z "},"Ṣ":{"ha":679,"x_min":0,"x_max":638,"o":"m 246 -14 q 110 2 164 -14 q 0 50 56 18 l 26 278 l 49 278 l 103 115 q 178 61 140 78 q 257 44 217 44 q 406 102 356 44 q 456 251 456 160 q 419 349 456 308 q 286 442 382 389 q 172 536 208 486 q 136 654 136 586 q 179 796 136 733 q 290 894 222 858 q 431 931 357 931 q 540 915 492 931 q 638 872 589 900 l 613 650 l 590 650 l 539 811 q 484 851 515 833 q 404 869 453 869 q 324 847 361 869 q 265 781 288 824 q 242 683 242 739 q 273 597 242 633 q 378 518 304 560 q 492 442 450 478 q 552 367 533 407 q 571 276 571 328 q 525 125 571 190 q 405 23 479 60 q 246 -14 331 -14 z "},"Ṥ":{"ha":679,"x_min":0,"x_max":690,"o":"m 246 -14 q 110 2 164 -14 q 0 50 56 18 l 26 278 l 49 278 l 103 115 q 178 61 140 78 q 257 44 217 44 q 406 102 356 44 q 456 251 456 160 q 419 349 456 308 q 286 442 382 389 q 172 536 208 486 q 136 654 136 586 q 179 796 136 733 q 290 894 222 858 q 431 931 357 931 q 540 915 492 931 q 638 872 589 900 l 613 650 l 590 650 l 539 811 q 484 851 515 833 q 404 869 453 869 q 324 847 361 869 q 265 781 288 824 q 242 683 242 739 q 273 597 242 633 q 378 518 304 560 q 492 442 450 478 q 552 367 533 407 q 571 276 571 328 q 525 125 571 190 q 405 23 479 60 q 246 -14 331 -14 z "},"Ṧ":{"ha":679,"x_min":0,"x_max":681,"o":"m 246 -14 q 110 2 164 -14 q 0 50 56 18 l 26 278 l 49 278 l 103 115 q 178 61 140 78 q 257 44 217 44 q 406 102 356 44 q 456 251 456 160 q 419 349 456 308 q 286 442 382 389 q 172 536 208 486 q 136 654 136 586 q 179 796 136 733 q 290 894 222 858 q 431 931 357 931 q 540 915 492 931 q 638 872 589 900 l 613 650 l 590 650 l 539 811 q 484 851 515 833 q 404 869 453 869 q 324 847 361 869 q 265 781 288 824 q 242 683 242 739 q 273 597 242 633 q 378 518 304 560 q 492 442 450 478 q 552 367 533 407 q 571 276 571 328 q 525 125 571 190 q 405 23 479 60 q 246 -14 331 -14 z "},"Ṩ":{"ha":679,"x_min":0,"x_max":638,"o":"m 246 -14 q 110 2 164 -14 q 0 50 56 18 l 26 278 l 49 278 l 103 115 q 178 61 140 78 q 257 44 217 44 q 406 102 356 44 q 456 251 456 160 q 419 349 456 308 q 286 442 382 389 q 172 536 208 486 q 136 654 136 586 q 179 796 136 733 q 290 894 222 858 q 431 931 357 931 q 540 915 492 931 q 638 872 589 900 l 613 650 l 590 650 l 539 811 q 484 851 515 833 q 404 869 453 869 q 324 847 361 869 q 265 781 288 824 q 242 683 242 739 q 273 597 242 633 q 378 518 304 560 q 492 442 450 478 q 552 367 533 407 q 571 276 571 328 q 525 125 571 190 q 405 23 479 60 q 246 -14 331 -14 m 460 1013 q 404 1036 428 1013 q 381 1092 381 1060 q 404 1147 381 1124 q 460 1171 428 1171 q 515 1147 492 1171 q 539 1092 539 1124 q 515 1036 539 1060 q 460 1013 492 1013 z "},"Ť":{"ha":896,"x_min":104,"x_max":924,"o":"m 185 0 l 190 22 l 331 78 l 468 847 l 253 847 l 126 636 l 104 636 l 153 917 l 924 917 l 874 636 l 851 636 l 799 847 l 588 847 l 450 78 l 572 22 l 568 0 l 185 0 m 532 986 l 400 1197 l 414 1197 l 567 1083 l 775 1197 l 789 1197 l 571 986 l 532 986 z "},"Ț":{"ha":896,"x_min":104,"x_max":924,"o":"m 185 0 l 190 22 l 331 78 l 468 847 l 253 847 l 126 636 l 104 636 l 153 917 l 924 917 l 874 636 l 851 636 l 799 847 l 588 847 l 450 78 l 572 22 l 568 0 l 185 0 z "},"Ŧ":{"ha":896,"x_min":104,"x_max":924,"o":"m 256 447 l 267 504 l 407 504 l 468 847 l 253 847 l 126 636 l 104 636 l 153 917 l 924 917 l 874 636 l 851 636 l 799 847 l 588 847 l 526 504 l 665 504 l 654 447 l 517 447 l 450 78 l 572 22 l 568 0 l 185 0 l 190 22 l 331 78 l 397 447 l 256 447 z "},"Ţ":{"ha":896,"x_min":104,"x_max":924,"o":"m 185 0 l 190 22 l 331 78 l 468 847 l 253 847 l 126 636 l 104 636 l 153 917 l 924 917 l 874 636 l 851 636 l 799 847 l 588 847 l 450 78 l 572 22 l 568 0 l 397 0 l 349 -76 q 438 -131 411 -100 q 464 -210 464 -161 q 426 -297 464 -261 q 319 -333 388 -333 q 254 -322 283 -333 q 211 -292 225 -311 l 214 -276 l 218 -276 q 256 -290 236 -285 q 303 -296 275 -296 q 392 -229 392 -296 q 365 -174 392 -194 q 272 -132 338 -153 l 356 0 l 185 0 z "},"Ṭ":{"ha":896,"x_min":104,"x_max":924,"o":"m 185 0 l 190 22 l 331 78 l 468 847 l 253 847 l 126 636 l 104 636 l 153 917 l 924 917 l 874 636 l 851 636 l 799 847 l 588 847 l 450 78 l 572 22 l 568 0 l 185 0 z "},"Ṯ":{"ha":896,"x_min":104,"x_max":924,"o":"m 185 0 l 190 22 l 331 78 l 468 847 l 253 847 l 126 636 l 104 636 l 153 917 l 924 917 l 874 636 l 851 636 l 799 847 l 588 847 l 450 78 l 572 22 l 568 0 l 185 0 z "},"Ù":{"ha":1088,"x_min":174,"x_max":1074,"o":"m 475 -14 q 258 51 342 -14 q 175 258 175 117 q 178 305 175 281 q 185 356 181 329 l 269 839 l 174 894 l 178 917 l 508 917 l 503 894 l 389 839 l 307 376 q 298 322 301 350 q 294 272 294 294 q 351 110 294 160 q 511 60 408 60 q 624 89 569 60 q 718 178 678 118 q 774 328 758 238 l 864 842 l 740 894 l 746 917 l 1074 917 l 1069 894 l 956 840 l 871 356 q 792 141 847 222 q 656 23 738 60 q 475 -14 575 -14 m 638 986 l 458 1110 q 428 1153 431 1129 q 429 1197 426 1176 l 526 1197 l 651 986 l 638 986 z "},"Ú":{"ha":1088,"x_min":174,"x_max":1074,"o":"m 475 -14 q 258 51 342 -14 q 175 258 175 117 q 178 305 175 281 q 185 356 181 329 l 269 839 l 174 894 l 178 917 l 508 917 l 503 894 l 389 839 l 307 376 q 298 322 301 350 q 294 272 294 294 q 351 110 294 160 q 511 60 408 60 q 624 89 569 60 q 718 178 678 118 q 774 328 758 238 l 864 842 l 740 894 l 746 917 l 1074 917 l 1069 894 l 956 840 l 871 356 q 792 141 847 222 q 656 23 738 60 q 475 -14 575 -14 m 638 986 l 785 1197 l 893 1197 q 878 1155 889 1176 q 833 1110 867 1133 l 651 986 l 638 986 z "},"Û":{"ha":1088,"x_min":174,"x_max":1074,"o":"m 475 -14 q 258 51 342 -14 q 175 258 175 117 q 178 305 175 281 q 185 356 181 329 l 269 839 l 174 894 l 178 917 l 508 917 l 503 894 l 389 839 l 307 376 q 298 322 301 350 q 294 272 294 294 q 351 110 294 160 q 511 60 408 60 q 624 89 569 60 q 718 178 678 118 q 774 328 758 238 l 864 842 l 740 894 l 746 917 l 1074 917 l 1069 894 l 956 840 l 871 356 q 792 141 847 222 q 656 23 738 60 q 475 -14 575 -14 m 443 986 l 661 1197 l 700 1197 l 832 986 l 818 986 l 665 1100 l 457 986 l 443 986 z "},"Ũ":{"ha":1088,"x_min":174,"x_max":1074,"o":"m 475 -14 q 258 51 342 -14 q 175 258 175 117 q 178 305 175 281 q 185 356 181 329 l 269 839 l 174 894 l 178 917 l 508 917 l 503 894 l 389 839 l 307 376 q 298 322 301 350 q 294 272 294 294 q 351 110 294 160 q 511 60 408 60 q 624 89 569 60 q 718 178 678 118 q 774 328 758 238 l 864 842 l 740 894 l 746 917 l 1074 917 l 1069 894 l 956 840 l 871 356 q 792 141 847 222 q 656 23 738 60 q 475 -14 575 -14 m 446 1008 q 506 1114 481 1081 q 551 1157 531 1147 q 594 1167 571 1167 q 656 1146 629 1167 q 707 1105 683 1125 q 758 1085 731 1085 q 802 1098 782 1085 q 856 1167 822 1111 l 878 1167 q 818 1061 843 1094 q 772 1018 793 1028 q 729 1008 751 1008 q 668 1029 694 1008 q 618 1070 642 1050 q 567 1090 594 1090 q 522 1077 543 1090 q 468 1008 501 1064 l 446 1008 z "},"Ü":{"ha":1088,"x_min":174,"x_max":1074,"o":"m 475 -14 q 258 51 342 -14 q 175 258 175 117 q 178 305 175 281 q 185 356 181 329 l 269 839 l 174 894 l 178 917 l 508 917 l 503 894 l 389 839 l 307 376 q 298 322 301 350 q 294 272 294 294 q 351 110 294 160 q 511 60 408 60 q 624 89 569 60 q 718 178 678 118 q 774 328 758 238 l 864 842 l 740 894 l 746 917 l 1074 917 l 1069 894 l 956 840 l 871 356 q 792 141 847 222 q 656 23 738 60 q 475 -14 575 -14 m 546 1029 q 501 1047 519 1029 q 483 1092 483 1065 q 501 1136 483 1118 q 546 1154 519 1154 q 590 1136 572 1154 q 608 1092 608 1118 q 590 1047 608 1065 q 546 1029 572 1029 m 782 1029 q 738 1047 756 1029 q 719 1092 719 1065 q 738 1136 719 1118 q 782 1154 756 1154 q 826 1136 808 1154 q 844 1092 844 1118 q 826 1047 844 1065 q 782 1029 808 1029 z "},"Ū":{"ha":1088,"x_min":174,"x_max":1074,"o":"m 475 -14 q 258 51 342 -14 q 175 258 175 117 q 178 305 175 281 q 185 356 181 329 l 269 839 l 174 894 l 178 917 l 508 917 l 503 894 l 389 839 l 307 376 q 298 322 301 350 q 294 272 294 294 q 351 110 294 160 q 511 60 408 60 q 624 89 569 60 q 718 178 678 118 q 774 328 758 238 l 864 842 l 740 894 l 746 917 l 1074 917 l 1069 894 l 956 840 l 871 356 q 792 141 847 222 q 656 23 738 60 q 475 -14 575 -14 m 481 1065 l 492 1126 l 843 1126 l 831 1065 l 481 1065 z "},"Ŭ":{"ha":1088,"x_min":174,"x_max":1074,"o":"m 475 -14 q 258 51 342 -14 q 175 258 175 117 q 178 305 175 281 q 185 356 181 329 l 269 839 l 174 894 l 178 917 l 508 917 l 503 894 l 389 839 l 307 376 q 298 322 301 350 q 294 272 294 294 q 351 110 294 160 q 511 60 408 60 q 624 89 569 60 q 718 178 678 118 q 774 328 758 238 l 864 842 l 740 894 l 746 917 l 1074 917 l 1069 894 l 956 840 l 871 356 q 792 141 847 222 q 656 23 738 60 q 475 -14 575 -14 m 644 986 q 523 1039 556 986 q 486 1197 490 1092 l 500 1197 q 530 1111 510 1139 q 580 1074 550 1083 q 650 1065 610 1065 q 726 1073 690 1065 q 794 1108 761 1081 q 858 1197 826 1136 l 872 1197 q 644 986 807 986 z "},"Ů":{"ha":1088,"x_min":174,"x_max":1074,"o":"m 475 -14 q 258 51 342 -14 q 175 258 175 117 q 178 305 175 281 q 185 356 181 329 l 269 839 l 174 894 l 178 917 l 508 917 l 503 894 l 389 839 l 307 376 q 298 322 301 350 q 294 272 294 294 q 351 110 294 160 q 511 60 408 60 q 624 89 569 60 q 718 178 678 118 q 774 328 758 238 l 864 842 l 740 894 l 746 917 l 1074 917 l 1069 894 l 956 840 l 871 356 q 792 141 847 222 q 656 23 738 60 q 475 -14 575 -14 m 644 986 q 574 1013 596 986 q 551 1081 551 1039 q 588 1176 551 1135 q 685 1217 624 1217 q 755 1190 732 1217 q 778 1122 778 1164 q 742 1028 778 1069 q 644 986 706 986 m 651 1017 q 704 1047 686 1017 q 722 1121 722 1078 q 713 1171 722 1154 q 678 1188 703 1188 q 626 1160 646 1188 q 606 1085 606 1132 q 651 1017 606 1017 z "},"Ű":{"ha":1088,"x_min":174,"x_max":1074,"o":"m 475 -14 q 258 51 342 -14 q 175 258 175 117 q 178 305 175 281 q 185 356 181 329 l 269 839 l 174 894 l 178 917 l 508 917 l 503 894 l 389 839 l 307 376 q 298 322 301 350 q 294 272 294 294 q 351 110 294 160 q 511 60 408 60 q 624 89 569 60 q 718 178 678 118 q 774 328 758 238 l 864 842 l 740 894 l 746 917 l 1074 917 l 1069 894 l 956 840 l 871 356 q 792 141 847 222 q 656 23 738 60 q 475 -14 575 -14 m 556 986 l 668 1197 l 746 1197 q 744 1154 749 1176 q 714 1110 740 1132 l 569 986 l 556 986 m 707 986 l 844 1197 l 922 1197 q 922 1153 925 1176 q 892 1110 918 1129 l 719 986 l 707 986 z "},"Ų":{"ha":1088,"x_min":174,"x_max":1074,"o":"m 565 -268 q 444 -333 519 -333 q 362 -303 392 -333 q 332 -221 332 -274 q 363 -122 332 -172 q 451 -14 394 -71 q 251 57 328 -8 q 175 258 175 122 q 178 305 175 281 q 185 356 181 329 l 269 839 l 174 894 l 178 917 l 508 917 l 503 894 l 389 839 l 307 376 q 299 325 301 350 q 297 278 297 300 q 358 108 297 157 q 511 60 418 60 q 616 87 561 60 q 714 172 671 114 q 774 328 757 231 l 864 842 l 740 894 l 746 917 l 1074 917 l 1069 894 l 956 840 l 871 356 q 794 145 849 225 q 663 28 740 65 q 494 -14 586 -10 q 417 -194 417 -115 q 438 -253 417 -235 q 494 -272 458 -272 q 526 -267 508 -272 q 564 -250 544 -262 l 568 -250 l 565 -268 z "},"Ụ":{"ha":1088,"x_min":174,"x_max":1074,"o":"m 475 -14 q 258 51 342 -14 q 175 258 175 117 q 178 305 175 281 q 185 356 181 329 l 269 839 l 174 894 l 178 917 l 508 917 l 503 894 l 389 839 l 307 376 q 298 322 301 350 q 294 272 294 294 q 351 110 294 160 q 511 60 408 60 q 624 89 569 60 q 718 178 678 118 q 774 328 758 238 l 864 842 l 740 894 l 746 917 l 1074 917 l 1069 894 l 956 840 l 871 356 q 792 141 847 222 q 656 23 738 60 q 475 -14 575 -14 z "},"Ȕ":{"ha":1088,"x_min":174,"x_max":1074,"o":"m 475 -14 q 258 51 342 -14 q 175 258 175 117 q 178 305 175 281 q 185 356 181 329 l 269 839 l 174 894 l 178 917 l 508 917 l 503 894 l 389 839 l 307 376 q 298 322 301 350 q 294 272 294 294 q 351 110 294 160 q 511 60 408 60 q 624 89 569 60 q 718 178 678 118 q 774 328 758 238 l 864 842 l 740 894 l 746 917 l 1074 917 l 1069 894 l 956 840 l 871 356 q 792 141 847 222 q 656 23 738 60 q 475 -14 575 -14 m 699 986 l 571 1119 q 545 1160 549 1143 q 546 1197 542 1176 l 622 1197 l 713 986 l 699 986 m 557 986 l 400 1119 q 371 1160 374 1142 q 372 1197 368 1178 l 449 1197 l 571 986 l 557 986 z "},"Ȗ":{"ha":1088,"x_min":174,"x_max":1074,"o":"m 475 -14 q 258 51 342 -14 q 175 258 175 117 q 178 305 175 281 q 185 356 181 329 l 269 839 l 174 894 l 178 917 l 508 917 l 503 894 l 389 839 l 307 376 q 298 322 301 350 q 294 272 294 294 q 351 110 294 160 q 511 60 408 60 q 624 89 569 60 q 718 178 678 118 q 774 328 758 238 l 864 842 l 740 894 l 746 917 l 1074 917 l 1069 894 l 956 840 l 871 356 q 792 141 847 222 q 656 23 738 60 q 475 -14 575 -14 m 450 986 q 678 1197 515 1197 q 799 1144 767 1197 q 836 986 832 1092 l 822 986 q 792 1072 813 1044 q 742 1109 772 1100 q 672 1118 713 1118 q 597 1110 632 1118 q 528 1075 561 1103 q 464 986 496 1047 l 450 986 z "},"Ủ":{"ha":1088,"x_min":174,"x_max":1074,"o":"m 475 -14 q 258 51 342 -14 q 175 258 175 117 q 178 305 175 281 q 185 356 181 329 l 269 839 l 174 894 l 178 917 l 508 917 l 503 894 l 389 839 l 307 376 q 298 322 301 350 q 294 272 294 294 q 351 110 294 160 q 511 60 408 60 q 624 89 569 60 q 718 178 678 118 q 774 328 758 238 l 864 842 l 740 894 l 746 917 l 1074 917 l 1069 894 l 956 840 l 871 356 q 792 141 847 222 q 656 23 738 60 q 475 -14 575 -14 m 593 975 l 586 983 l 586 985 q 666 1023 639 1001 q 693 1082 693 1044 q 673 1122 693 1106 q 604 1147 653 1138 l 629 1215 q 730 1178 701 1208 q 758 1111 758 1147 q 593 975 758 1008 z "},"Ṹ":{"ha":1088,"x_min":174,"x_max":1074,"o":"m 475 -14 q 258 51 342 -14 q 175 258 175 117 q 178 305 175 281 q 185 356 181 329 l 269 839 l 174 894 l 178 917 l 508 917 l 503 894 l 389 839 l 307 376 q 298 322 301 350 q 294 272 294 294 q 351 110 294 160 q 511 60 408 60 q 624 89 569 60 q 718 178 678 118 q 774 328 758 238 l 864 842 l 740 894 l 746 917 l 1074 917 l 1069 894 l 956 840 l 871 356 q 792 141 847 222 q 656 23 738 60 q 475 -14 575 -14 z "},"Ṻ":{"ha":1088,"x_min":174,"x_max":1074,"o":"m 475 -14 q 258 51 342 -14 q 175 258 175 117 q 178 305 175 281 q 185 356 181 329 l 269 839 l 174 894 l 178 917 l 508 917 l 503 894 l 389 839 l 307 376 q 298 322 301 350 q 294 272 294 294 q 351 110 294 160 q 511 60 408 60 q 624 89 569 60 q 718 178 678 118 q 774 328 758 238 l 864 842 l 740 894 l 746 917 l 1074 917 l 1069 894 l 956 840 l 871 356 q 792 141 847 222 q 656 23 738 60 q 475 -14 575 -14 z "},"Ư":{"ha":1088,"x_min":174,"x_max":1244,"o":"m 475 -14 q 258 51 342 -14 q 175 258 175 117 q 178 305 175 281 q 185 356 181 329 l 269 839 l 174 894 l 178 917 l 508 917 l 503 894 l 389 839 l 307 376 q 299 325 301 350 q 297 278 297 300 q 358 108 297 157 q 511 60 418 60 q 616 87 561 60 q 714 172 671 114 q 774 328 757 231 l 864 842 l 740 894 l 746 917 l 1075 917 q 1131 935 1114 917 q 1154 988 1149 953 l 1161 1036 l 1171 1044 l 1213 1044 q 1237 1040 1229 1044 q 1244 1022 1244 1036 q 1207 935 1244 975 q 1099 894 1169 894 l 1069 894 l 956 840 l 871 356 q 790 139 847 219 q 652 22 733 58 q 475 -14 571 -14 z "},"Ứ":{"ha":1088,"x_min":174,"x_max":1244,"o":"m 475 -14 q 258 51 342 -14 q 175 258 175 117 q 178 305 175 281 q 185 356 181 329 l 269 839 l 174 894 l 178 917 l 508 917 l 503 894 l 389 839 l 307 376 q 299 325 301 350 q 297 278 297 300 q 358 108 297 157 q 511 60 418 60 q 616 87 561 60 q 714 172 671 114 q 774 328 757 231 l 864 842 l 740 894 l 746 917 l 1075 917 q 1131 935 1114 917 q 1154 988 1149 953 l 1161 1036 l 1171 1044 l 1213 1044 q 1237 1040 1229 1044 q 1244 1022 1244 1036 q 1207 935 1244 975 q 1099 894 1169 894 l 1069 894 l 956 840 l 871 356 q 790 139 847 219 q 652 22 733 58 q 475 -14 571 -14 m 638 986 l 785 1197 l 893 1197 q 878 1155 889 1176 q 833 1110 867 1133 l 651 986 l 638 986 z "},"Ự":{"ha":1088,"x_min":174,"x_max":1244,"o":"m 475 -14 q 258 51 342 -14 q 175 258 175 117 q 178 305 175 281 q 185 356 181 329 l 269 839 l 174 894 l 178 917 l 508 917 l 503 894 l 389 839 l 307 376 q 299 325 301 350 q 297 278 297 300 q 358 108 297 157 q 511 60 418 60 q 616 87 561 60 q 714 172 671 114 q 774 328 757 231 l 864 842 l 740 894 l 746 917 l 1075 917 q 1131 935 1114 917 q 1154 988 1149 953 l 1161 1036 l 1171 1044 l 1213 1044 q 1237 1040 1229 1044 q 1244 1022 1244 1036 q 1207 935 1244 975 q 1099 894 1169 894 l 1069 894 l 956 840 l 871 356 q 790 139 847 219 q 652 22 733 58 q 475 -14 571 -14 z "},"Ừ":{"ha":1088,"x_min":174,"x_max":1244,"o":"m 475 -14 q 258 51 342 -14 q 175 258 175 117 q 178 305 175 281 q 185 356 181 329 l 269 839 l 174 894 l 178 917 l 508 917 l 503 894 l 389 839 l 307 376 q 299 325 301 350 q 297 278 297 300 q 358 108 297 157 q 511 60 418 60 q 616 87 561 60 q 714 172 671 114 q 774 328 757 231 l 864 842 l 740 894 l 746 917 l 1075 917 q 1131 935 1114 917 q 1154 988 1149 953 l 1161 1036 l 1171 1044 l 1213 1044 q 1237 1040 1229 1044 q 1244 1022 1244 1036 q 1207 935 1244 975 q 1099 894 1169 894 l 1069 894 l 956 840 l 871 356 q 790 139 847 219 q 652 22 733 58 q 475 -14 571 -14 m 638 986 l 458 1110 q 428 1153 431 1129 q 429 1197 426 1176 l 526 1197 l 651 986 l 638 986 z "},"Ử":{"ha":1088,"x_min":174,"x_max":1244,"o":"m 475 -14 q 258 51 342 -14 q 175 258 175 117 q 178 305 175 281 q 185 356 181 329 l 269 839 l 174 894 l 178 917 l 508 917 l 503 894 l 389 839 l 307 376 q 299 325 301 350 q 297 278 297 300 q 358 108 297 157 q 511 60 418 60 q 616 87 561 60 q 714 172 671 114 q 774 328 757 231 l 864 842 l 740 894 l 746 917 l 1075 917 q 1131 935 1114 917 q 1154 988 1149 953 l 1161 1036 l 1171 1044 l 1213 1044 q 1237 1040 1229 1044 q 1244 1022 1244 1036 q 1207 935 1244 975 q 1099 894 1169 894 l 1069 894 l 956 840 l 871 356 q 790 139 847 219 q 652 22 733 58 q 475 -14 571 -14 m 593 975 l 586 983 l 586 985 q 666 1023 639 1001 q 693 1082 693 1044 q 673 1122 693 1106 q 604 1147 653 1138 l 629 1215 q 730 1178 701 1208 q 758 1111 758 1147 q 593 975 758 1008 z "},"Ữ":{"ha":1088,"x_min":174,"x_max":1244,"o":"m 475 -14 q 258 51 342 -14 q 175 258 175 117 q 178 305 175 281 q 185 356 181 329 l 269 839 l 174 894 l 178 917 l 508 917 l 503 894 l 389 839 l 307 376 q 299 325 301 350 q 297 278 297 300 q 358 108 297 157 q 511 60 418 60 q 616 87 561 60 q 714 172 671 114 q 774 328 757 231 l 864 842 l 740 894 l 746 917 l 1075 917 q 1131 935 1114 917 q 1154 988 1149 953 l 1161 1036 l 1171 1044 l 1213 1044 q 1237 1040 1229 1044 q 1244 1022 1244 1036 q 1207 935 1244 975 q 1099 894 1169 894 l 1069 894 l 956 840 l 871 356 q 790 139 847 219 q 652 22 733 58 q 475 -14 571 -14 m 446 1008 q 506 1114 481 1081 q 551 1157 531 1147 q 594 1167 571 1167 q 656 1146 629 1167 q 707 1105 683 1125 q 758 1085 731 1085 q 802 1098 782 1085 q 856 1167 822 1111 l 878 1167 q 818 1061 843 1094 q 772 1018 793 1028 q 729 1008 751 1008 q 668 1029 694 1008 q 618 1070 642 1050 q 567 1090 594 1090 q 522 1077 543 1090 q 468 1008 501 1064 l 446 1008 z "},"Ẁ":{"ha":1315,"x_min":125,"x_max":1385,"o":"m 314 -7 l 217 842 l 125 894 l 131 917 l 465 917 l 461 894 l 335 844 l 399 219 l 408 219 l 754 924 l 803 924 l 921 221 l 928 221 l 1201 847 l 1089 894 l 1093 917 l 1385 917 l 1381 894 l 1286 849 l 896 -7 l 847 -7 l 726 686 l 717 686 l 364 -7 l 314 -7 m 782 986 l 603 1110 q 573 1153 575 1129 q 574 1197 571 1176 l 671 1197 l 796 986 l 782 986 z "},"Ẃ":{"ha":1315,"x_min":125,"x_max":1385,"o":"m 314 -7 l 217 842 l 125 894 l 131 917 l 465 917 l 461 894 l 335 844 l 399 219 l 408 219 l 754 924 l 803 924 l 921 221 l 928 221 l 1201 847 l 1089 894 l 1093 917 l 1385 917 l 1381 894 l 1286 849 l 896 -7 l 847 -7 l 726 686 l 717 686 l 364 -7 l 314 -7 m 782 986 l 929 1197 l 1038 1197 q 1022 1155 1033 1176 q 978 1110 1011 1133 l 796 986 l 782 986 z "},"Ŵ":{"ha":1315,"x_min":125,"x_max":1385,"o":"m 314 -7 l 217 842 l 125 894 l 131 917 l 465 917 l 461 894 l 335 844 l 399 219 l 408 219 l 754 924 l 803 924 l 921 221 l 928 221 l 1201 847 l 1089 894 l 1093 917 l 1385 917 l 1381 894 l 1286 849 l 896 -7 l 847 -7 l 726 686 l 717 686 l 364 -7 l 314 -7 m 588 986 l 806 1197 l 844 1197 l 976 986 l 963 986 l 810 1100 l 601 986 l 588 986 z "},"Ẅ":{"ha":1315,"x_min":125,"x_max":1385,"o":"m 314 -7 l 217 842 l 125 894 l 131 917 l 465 917 l 461 894 l 335 844 l 399 219 l 408 219 l 754 924 l 803 924 l 921 221 l 928 221 l 1201 847 l 1089 894 l 1093 917 l 1385 917 l 1381 894 l 1286 849 l 896 -7 l 847 -7 l 726 686 l 717 686 l 364 -7 l 314 -7 m 690 1029 q 646 1047 664 1029 q 628 1092 628 1065 q 646 1136 628 1118 q 690 1154 664 1154 q 735 1136 717 1154 q 753 1092 753 1118 q 735 1047 753 1065 q 690 1029 717 1029 m 926 1029 q 882 1047 900 1029 q 864 1092 864 1065 q 882 1136 864 1118 q 926 1154 900 1154 q 971 1136 953 1154 q 989 1092 989 1118 q 971 1047 989 1065 q 926 1029 953 1029 z "},"Ỳ":{"ha":943,"x_min":132,"x_max":992,"o":"m 231 0 l 235 22 l 363 78 l 425 426 l 206 847 l 132 894 l 138 917 l 451 917 l 446 894 l 333 850 l 332 844 l 515 496 l 796 842 l 797 847 l 700 894 l 706 917 l 992 917 l 988 894 l 899 851 l 543 428 l 481 78 l 590 22 l 586 0 l 231 0 m 578 986 l 399 1110 q 369 1153 371 1129 q 369 1197 367 1176 l 467 1197 l 592 986 l 578 986 z "},"Ý":{"ha":943,"x_min":132,"x_max":992,"o":"m 231 0 l 235 22 l 363 78 l 425 426 l 206 847 l 132 894 l 138 917 l 451 917 l 446 894 l 333 850 l 332 844 l 515 496 l 796 842 l 797 847 l 700 894 l 706 917 l 992 917 l 988 894 l 899 851 l 543 428 l 481 78 l 590 22 l 586 0 l 231 0 m 578 986 l 725 1197 l 833 1197 q 818 1155 829 1176 q 774 1110 807 1133 l 592 986 l 578 986 z "},"Ŷ":{"ha":943,"x_min":132,"x_max":992,"o":"m 231 0 l 235 22 l 363 78 l 425 426 l 206 847 l 132 894 l 138 917 l 451 917 l 446 894 l 333 850 l 332 844 l 515 496 l 796 842 l 797 847 l 700 894 l 706 917 l 992 917 l 988 894 l 899 851 l 543 428 l 481 78 l 590 22 l 586 0 l 231 0 m 383 986 l 601 1197 l 640 1197 l 772 986 l 758 986 l 606 1100 l 397 986 l 383 986 z "},"Ÿ":{"ha":943,"x_min":132,"x_max":992,"o":"m 231 0 l 235 22 l 363 78 l 425 426 l 206 847 l 132 894 l 138 917 l 451 917 l 446 894 l 333 850 l 332 844 l 515 496 l 796 842 l 797 847 l 700 894 l 706 917 l 992 917 l 988 894 l 899 851 l 543 428 l 481 78 l 590 22 l 586 0 l 231 0 m 486 1029 q 442 1047 460 1029 q 424 1092 424 1065 q 442 1136 424 1118 q 486 1154 460 1154 q 531 1136 513 1154 q 549 1092 549 1118 q 531 1047 549 1065 q 486 1029 513 1029 m 722 1029 q 678 1047 696 1029 q 660 1092 660 1065 q 678 1136 660 1118 q 722 1154 696 1154 q 767 1136 749 1154 q 785 1092 785 1118 q 767 1047 785 1065 q 722 1029 749 1029 z "},"Ỹ":{"ha":943,"x_min":132,"x_max":992,"o":"m 231 0 l 235 22 l 363 78 l 425 426 l 206 847 l 132 894 l 138 917 l 451 917 l 446 894 l 333 850 l 332 844 l 515 496 l 796 842 l 797 847 l 700 894 l 706 917 l 992 917 l 988 894 l 899 851 l 543 428 l 481 78 l 590 22 l 586 0 l 231 0 m 386 1008 q 446 1114 421 1081 q 491 1157 471 1147 q 535 1167 511 1167 q 597 1146 569 1167 q 647 1105 624 1125 q 699 1085 671 1085 q 742 1098 722 1085 q 796 1167 763 1111 l 818 1167 q 758 1061 783 1094 q 713 1018 733 1028 q 669 1008 692 1008 q 608 1029 635 1008 q 558 1070 582 1050 q 507 1090 535 1090 q 463 1077 483 1090 q 408 1008 442 1064 l 386 1008 z "},"Ȳ":{"ha":943,"x_min":132,"x_max":992,"o":"m 231 0 l 235 22 l 363 78 l 425 426 l 206 847 l 132 894 l 138 917 l 451 917 l 446 894 l 333 850 l 332 844 l 515 496 l 796 842 l 797 847 l 700 894 l 706 917 l 992 917 l 988 894 l 899 851 l 543 428 l 481 78 l 590 22 l 586 0 l 231 0 m 421 1065 l 432 1126 l 783 1126 l 771 1065 l 421 1065 z "},"Ỵ":{"ha":943,"x_min":132,"x_max":992,"o":"m 231 0 l 235 22 l 363 78 l 425 426 l 206 847 l 132 894 l 138 917 l 451 917 l 446 894 l 333 850 l 332 844 l 515 496 l 796 842 l 797 847 l 700 894 l 706 917 l 992 917 l 988 894 l 899 851 l 543 428 l 481 78 l 590 22 l 586 0 l 231 0 z "},"Ỷ":{"ha":943,"x_min":132,"x_max":992,"o":"m 231 0 l 235 22 l 363 78 l 425 426 l 206 847 l 132 894 l 138 917 l 451 917 l 446 894 l 333 850 l 332 844 l 515 496 l 796 842 l 797 847 l 700 894 l 706 917 l 992 917 l 988 894 l 899 851 l 543 428 l 481 78 l 590 22 l 586 0 l 231 0 m 533 975 l 526 983 l 526 985 q 606 1023 579 1001 q 633 1082 633 1044 q 613 1122 633 1106 q 544 1147 593 1138 l 569 1215 q 670 1178 642 1208 q 699 1111 699 1147 q 533 975 699 1008 z "},"Ẏ":{"ha":943,"x_min":132,"x_max":992,"o":"m 231 0 l 235 22 l 363 78 l 425 426 l 206 847 l 132 894 l 138 917 l 451 917 l 446 894 l 333 850 l 332 844 l 515 496 l 796 842 l 797 847 l 700 894 l 706 917 l 992 917 l 988 894 l 899 851 l 543 428 l 481 78 l 590 22 l 586 0 l 231 0 m 603 1013 q 547 1036 571 1013 q 524 1092 524 1060 q 547 1147 524 1124 q 603 1171 571 1171 q 658 1147 635 1171 q 682 1092 682 1124 q 658 1036 682 1060 q 603 1013 635 1013 z "},"Ź":{"ha":858,"x_min":49,"x_max":810,"o":"m 49 0 l 57 49 l 651 847 l 319 847 l 203 664 l 181 664 l 225 917 l 810 917 l 801 868 l 204 69 l 569 69 l 688 267 l 710 267 l 663 0 l 49 0 m 524 986 l 671 1197 l 779 1197 q 764 1155 775 1176 q 719 1110 753 1133 l 538 986 l 524 986 z "},"Ž":{"ha":858,"x_min":49,"x_max":810,"o":"m 49 0 l 57 49 l 651 847 l 319 847 l 203 664 l 181 664 l 225 917 l 810 917 l 801 868 l 204 69 l 569 69 l 688 267 l 710 267 l 663 0 l 49 0 m 513 986 l 381 1197 l 394 1197 l 547 1083 l 756 1197 l 769 1197 l 551 986 l 513 986 z "},"Ż":{"ha":858,"x_min":49,"x_max":810,"o":"m 49 0 l 57 49 l 651 847 l 319 847 l 203 664 l 181 664 l 225 917 l 810 917 l 801 868 l 204 69 l 569 69 l 688 267 l 710 267 l 663 0 l 49 0 m 549 1013 q 493 1036 517 1013 q 469 1092 469 1060 q 493 1147 469 1124 q 549 1171 517 1171 q 604 1147 581 1171 q 628 1092 628 1124 q 604 1036 628 1060 q 549 1013 581 1013 z "},"Ẓ":{"ha":858,"x_min":49,"x_max":810,"o":"m 49 0 l 57 49 l 651 847 l 319 847 l 203 664 l 181 664 l 225 917 l 810 917 l 801 868 l 204 69 l 569 69 l 688 267 l 710 267 l 663 0 l 49 0 z "},"Ə":{"ha":857,"x_min":63,"x_max":794,"o":"m 329 -14 q 133 64 204 -14 q 63 285 63 142 q 65 343 63 313 q 74 407 67 374 l 86 417 l 672 417 q 683 561 683 485 q 622 767 683 692 q 429 843 561 843 q 272 808 342 843 q 133 710 203 772 l 128 710 l 132 735 q 281 875 189 819 q 483 931 372 931 q 713 842 632 931 q 794 600 794 753 q 761 366 794 476 q 666 170 728 256 q 519 35 604 85 q 329 -14 433 -14 m 169 290 q 186 171 169 224 q 242 88 203 118 q 354 57 282 57 q 549 138 472 57 q 658 347 625 218 l 172 347 q 171 319 172 333 q 169 290 169 304 z "},"Ŋ":{"ha":1078,"x_min":14,"x_max":1071,"o":"m 14 0 l 18 22 l 136 78 l 269 836 l 172 894 l 176 917 l 371 917 l 757 225 l 865 842 l 738 894 l 743 917 l 1071 917 l 1067 894 l 950 840 l 797 -36 q 747 -190 781 -133 q 674 -278 714 -246 q 596 -319 642 -304 q 508 -333 550 -333 q 476 -325 485 -333 q 472 -294 467 -317 l 489 -225 l 494 -219 l 538 -219 q 653 -184 617 -219 q 706 -64 690 -149 l 725 38 l 336 728 l 221 76 l 349 22 l 343 0 l 14 0 z "},"Ð":{"ha":1017,"x_min":14,"x_max":947,"o":"m 14 0 l 18 22 l 133 78 l 199 447 l 96 447 l 107 504 l 208 504 l 267 839 l 171 894 l 175 917 l 482 917 q 750 869 647 917 q 900 737 853 821 q 947 544 947 653 q 927 402 947 476 q 865 256 907 328 q 756 127 822 185 q 600 35 690 69 q 392 0 510 0 l 14 0 m 546 447 l 317 447 l 250 69 l 403 69 q 633 126 540 69 q 772 286 725 183 q 818 528 818 389 q 733 761 818 675 q 463 847 647 847 l 388 847 l 326 504 l 557 504 l 546 447 z "},"Þ":{"ha":863,"x_min":14,"x_max":792,"o":"m 503 917 l 499 894 l 386 839 l 368 733 l 450 733 q 698 679 604 733 q 792 507 792 625 q 744 369 792 433 q 606 264 696 304 q 392 224 517 224 l 278 224 l 251 78 l 358 22 l 354 0 l 14 0 l 18 22 l 133 78 l 267 839 l 167 894 l 171 917 l 503 917 m 443 664 l 356 664 l 289 293 l 424 293 q 603 351 544 293 q 661 497 661 408 q 604 624 661 585 q 443 664 547 664 z "},"Ǆ":{"ha":1861,"x_min":14,"x_max":1813,"o":"m 14 0 l 18 22 l 133 78 l 267 839 l 171 894 l 175 917 l 482 917 q 750 869 647 917 q 900 737 853 821 q 947 544 947 653 q 927 402 947 476 q 865 256 907 328 q 756 127 822 185 q 600 35 690 69 q 392 0 510 0 l 14 0 m 463 847 l 388 847 l 250 69 l 403 69 q 633 126 540 69 q 772 286 725 183 q 818 528 818 389 q 733 761 818 675 q 463 847 647 847 m 1051 0 l 1060 49 l 1654 847 l 1322 847 l 1206 664 l 1183 664 l 1228 917 l 1813 917 l 1804 868 l 1207 69 l 1572 69 l 1690 267 l 1713 267 l 1665 0 l 1051 0 m 1515 986 l 1383 1197 l 1397 1197 l 1550 1083 l 1758 1197 l 1772 1197 l 1554 986 l 1515 986 z "},"Ǉ":{"ha":1351,"x_min":14,"x_max":1344,"o":"m 14 0 l 18 22 l 133 78 l 267 839 l 171 894 l 175 917 l 518 917 l 514 894 l 386 839 l 251 69 l 572 69 l 701 308 l 724 308 l 669 0 l 14 0 m 783 -240 q 752 -227 764 -240 q 751 -181 740 -214 l 769 -126 l 778 -126 q 811 -136 799 -133 q 842 -139 824 -139 q 893 -125 869 -139 q 936 -67 917 -111 q 971 71 956 -22 l 1107 839 l 1011 894 l 1015 917 l 1344 917 l 1340 894 l 1226 839 l 1136 333 q 1063 53 1108 178 q 949 -137 1018 -71 q 876 -203 903 -181 q 829 -233 850 -225 q 783 -240 808 -240 z "},"Ǌ":{"ha":1585,"x_min":14,"x_max":1578,"o":"m 14 0 l 18 22 l 136 78 l 269 836 l 172 894 l 176 917 l 371 917 l 757 225 l 865 842 l 738 894 l 743 917 l 1071 917 l 1067 894 l 950 840 l 801 -7 l 750 -7 l 336 728 l 221 76 l 349 22 l 343 0 l 14 0 m 1017 -240 q 985 -227 997 -240 q 985 -181 974 -214 l 1003 -126 l 1011 -126 q 1044 -136 1032 -133 q 1075 -139 1057 -139 q 1126 -125 1103 -139 q 1169 -67 1150 -111 q 1204 71 1189 -22 l 1340 839 l 1244 894 l 1249 917 l 1578 917 l 1574 894 l 1460 839 l 1369 333 q 1297 53 1342 178 q 1182 -137 1251 -71 q 1110 -203 1136 -181 q 1063 -233 1083 -225 q 1017 -240 1042 -240 z "},"Ђ":{"ha":1099,"x_min":104,"x_max":992,"o":"m 171 0 l 176 22 l 317 78 l 454 847 l 253 847 l 126 636 l 104 636 l 153 917 l 924 917 l 874 636 l 851 636 l 799 847 l 574 847 l 504 457 q 614 508 550 488 q 744 529 678 529 q 931 456 871 529 q 967 239 992 383 q 931 98 956 169 q 873 -36 907 26 q 797 -137 839 -99 q 719 -204 749 -182 q 668 -233 690 -226 q 618 -240 646 -240 q 588 -232 600 -240 q 579 -201 576 -224 q 584 -187 581 -199 q 607 -126 588 -176 l 615 -126 q 651 -136 639 -133 q 683 -139 664 -139 q 738 -125 714 -139 q 783 -67 763 -111 q 818 71 803 -22 l 842 210 q 826 388 864 336 q 683 439 788 439 q 583 428 632 439 q 492 392 535 417 l 436 78 l 558 22 l 554 0 l 171 0 z "},"Є":{"ha":929,"x_min":83,"x_max":874,"o":"m 444 -14 q 249 34 329 -14 q 126 166 168 82 q 83 360 83 250 q 126 582 83 478 q 244 764 169 686 q 415 886 318 842 q 618 931 511 931 q 752 915 697 931 q 874 864 807 900 l 838 621 l 815 621 l 760 793 q 690 848 725 829 q 601 867 654 867 q 415 819 494 867 q 288 689 336 771 q 221 506 239 607 l 547 506 l 638 621 l 660 621 l 607 324 l 585 324 l 535 436 l 214 436 q 213 397 213 417 q 288 142 213 233 q 482 50 364 50 q 593 74 542 50 q 685 124 644 97 l 796 275 l 818 275 l 765 54 q 677 18 722 33 q 576 -6 632 3 q 444 -14 521 -14 z "},"Ѕ":{"ha":679,"x_min":0,"x_max":638,"o":"m 246 -14 q 110 2 164 -14 q 0 50 56 18 l 26 278 l 49 278 l 103 115 q 178 61 140 78 q 257 44 217 44 q 406 102 356 44 q 456 251 456 160 q 419 349 456 308 q 286 442 382 389 q 172 536 208 486 q 136 654 136 586 q 179 796 136 733 q 290 894 222 858 q 431 931 357 931 q 540 915 492 931 q 638 872 589 900 l 613 650 l 590 650 l 539 811 q 484 851 515 833 q 404 869 453 869 q 324 847 361 869 q 265 781 288 824 q 242 683 242 739 q 273 597 242 633 q 378 518 304 560 q 492 442 450 478 q 552 367 533 407 q 571 276 571 328 q 525 125 571 190 q 405 23 479 60 q 246 -14 331 -14 z "},"І":{"ha":507,"x_min":14,"x_max":493,"o":"m 14 0 l 18 22 l 124 78 l 258 839 l 158 894 l 163 917 l 493 917 l 489 894 l 376 839 l 242 78 l 349 22 l 344 0 l 14 0 z "},"Ї":{"ha":507,"x_min":14,"x_max":542,"o":"m 14 0 l 18 22 l 124 78 l 258 839 l 158 894 l 163 917 l 493 917 l 489 894 l 376 839 l 242 78 l 349 22 l 344 0 l 14 0 m 243 1029 q 199 1047 217 1029 q 181 1092 181 1065 q 199 1136 181 1118 q 243 1154 217 1154 q 288 1136 269 1154 q 306 1092 306 1118 q 288 1047 306 1065 q 243 1029 269 1029 m 479 1029 q 435 1047 453 1029 q 417 1092 417 1065 q 435 1136 417 1118 q 479 1154 453 1154 q 524 1136 506 1154 q 542 1092 542 1118 q 524 1047 542 1065 q 479 1029 506 1029 z "},"Ј":{"ha":521,"x_min":-90,"x_max":514,"o":"m -47 -240 q -78 -227 -67 -240 q -79 -181 -90 -214 l -61 -126 l -53 -126 q -19 -136 -32 -133 q 11 -139 -7 -139 q 63 -125 39 -139 q 106 -67 86 -111 q 140 71 125 -22 l 276 839 l 181 894 l 185 917 l 514 917 l 510 894 l 396 839 l 306 333 q 233 53 278 178 q 118 -137 188 -71 q 46 -203 72 -181 q -1 -233 19 -225 q -47 -240 -22 -240 z "},"Љ":{"ha":1350,"x_min":-17,"x_max":1260,"o":"m 408 772 q 324 387 368 542 q 217 126 279 232 q 115 14 164 42 q 28 -14 67 -14 q -10 -6 -3 -14 q -12 26 -17 3 l 1 103 l 7 108 l 21 108 q 155 194 97 108 q 256 431 213 281 q 331 772 299 581 l 342 839 l 240 894 l 244 917 l 971 917 l 967 894 l 840 839 l 788 539 l 929 539 q 1176 472 1093 539 q 1260 289 1260 406 q 1155 81 1260 163 q 833 0 1050 0 l 478 0 l 482 22 l 588 78 l 724 847 l 421 847 l 408 772 m 704 69 l 846 69 q 1063 128 990 69 q 1135 288 1135 188 q 904 469 1135 469 l 775 469 l 704 69 z "},"Њ":{"ha":1440,"x_min":14,"x_max":1350,"o":"m 14 0 l 18 22 l 124 78 l 258 839 l 158 894 l 163 917 l 493 917 l 489 894 l 376 839 l 319 521 l 756 521 l 813 839 l 713 894 l 717 917 l 1061 917 l 1057 894 l 931 839 l 874 521 l 1019 521 q 1267 458 1183 521 q 1350 285 1350 394 q 1245 81 1350 161 q 924 0 1140 0 l 568 0 l 572 22 l 678 78 l 744 451 l 308 451 l 242 78 l 349 22 l 344 0 l 14 0 m 794 69 l 936 69 q 1153 128 1081 69 q 1225 283 1225 186 q 994 451 1225 451 l 863 451 l 794 69 z "},"Ћ":{"ha":1175,"x_min":104,"x_max":1026,"o":"m 171 0 l 176 22 l 317 78 l 454 847 l 253 847 l 126 636 l 104 636 l 153 917 l 924 917 l 874 636 l 851 636 l 799 847 l 574 847 l 504 457 q 614 508 550 488 q 744 529 678 529 q 920 463 860 529 q 956 253 981 397 l 925 78 l 1026 22 l 1022 0 l 792 0 l 833 240 q 817 393 853 347 q 683 439 782 439 q 583 428 632 439 q 492 392 535 417 l 436 78 l 558 22 l 554 0 l 171 0 z "},"Џ":{"ha":1061,"x_min":14,"x_max":1047,"o":"m 375 0 l 14 0 l 18 22 l 131 78 l 265 839 l 158 894 l 163 917 l 493 917 l 489 894 l 383 839 l 247 69 l 683 69 l 819 839 l 713 894 l 717 917 l 1047 917 l 1043 894 l 938 839 l 803 78 l 903 22 l 899 0 l 531 0 l 424 -232 l 401 -232 l 375 0 z "},"А":{"ha":993,"x_min":-21,"x_max":882,"o":"m -21 0 l -15 22 l 67 65 l 557 924 l 617 924 l 799 72 l 882 22 l 876 0 l 547 0 l 551 22 l 678 71 l 626 331 l 297 331 l 149 67 l 261 22 l 257 0 l -21 0 m 336 400 l 613 400 l 540 764 l 336 400 z "},"Б":{"ha":883,"x_min":14,"x_max":807,"o":"m 163 917 l 807 917 l 765 678 l 743 678 l 690 847 l 378 847 l 321 525 l 465 525 q 708 460 625 525 q 790 282 790 396 q 687 79 790 158 q 369 0 583 0 l 14 0 l 18 22 l 124 78 l 258 839 l 158 894 l 163 917 m 240 69 l 382 69 q 594 126 524 69 q 665 281 665 183 q 440 456 665 456 l 308 456 l 240 69 z "},"В":{"ha":869,"x_min":14,"x_max":786,"o":"m 14 0 l 18 22 l 133 78 l 267 839 l 171 894 l 175 917 l 475 917 q 697 868 614 917 q 779 722 779 819 q 724 582 779 649 q 568 490 669 515 q 731 417 676 472 q 786 278 786 363 q 742 147 786 211 q 608 42 697 83 q 388 0 519 0 l 14 0 m 471 847 l 386 847 l 326 507 l 415 507 q 592 562 533 507 q 650 699 650 617 q 608 810 650 772 q 471 847 567 847 m 436 438 l 314 438 l 250 69 l 400 69 q 592 126 529 69 q 656 278 656 183 q 603 399 656 361 q 436 438 550 438 z "},"Г":{"ha":824,"x_min":14,"x_max":793,"o":"m 14 0 l 18 22 l 133 78 l 267 839 l 171 894 l 175 917 l 793 917 l 751 678 l 729 678 l 676 847 l 388 847 l 251 78 l 375 22 l 371 0 l 14 0 z "},"Ѓ":{"ha":824,"x_min":14,"x_max":793,"o":"m 14 0 l 18 22 l 133 78 l 267 839 l 171 894 l 175 917 l 793 917 l 751 678 l 729 678 l 676 847 l 388 847 l 251 78 l 375 22 l 371 0 l 14 0 z "},"Ғ":{"ha":824,"x_min":14,"x_max":793,"o":"m 14 0 l 18 22 l 133 78 l 199 447 l 94 447 l 106 504 l 208 504 l 267 839 l 171 894 l 175 917 l 793 917 l 751 678 l 729 678 l 676 847 l 388 847 l 326 504 l 557 504 l 546 447 l 317 447 l 251 78 l 375 22 l 371 0 l 14 0 z "},"Д":{"ha":1054,"x_min":-49,"x_max":1013,"o":"m 125 0 l -26 -232 l -49 -232 l 4 69 l 106 69 q 203 272 163 168 q 274 499 243 376 q 333 772 306 621 l 346 839 l 244 894 l 249 917 l 1013 917 l 1008 894 l 896 839 l 760 69 l 899 69 l 846 -232 l 824 -232 l 758 0 l 125 0 m 414 772 q 356 497 386 619 q 288 271 326 375 q 197 69 250 167 l 642 69 l 779 847 l 428 847 l 414 772 z "},"Е":{"ha":863,"x_min":14,"x_max":814,"o":"m 14 0 l 18 22 l 133 78 l 267 839 l 171 894 l 175 917 l 814 917 l 771 678 l 749 678 l 697 847 l 388 847 l 328 508 l 551 508 l 638 626 l 660 626 l 606 322 l 583 322 l 540 439 l 315 439 l 250 69 l 621 69 l 732 253 l 754 253 l 710 0 l 14 0 z "},"Ё":{"ha":863,"x_min":14,"x_max":814,"o":"m 14 0 l 18 22 l 133 78 l 267 839 l 171 894 l 175 917 l 814 917 l 771 678 l 749 678 l 697 847 l 388 847 l 328 508 l 551 508 l 638 626 l 660 626 l 606 322 l 583 322 l 540 439 l 315 439 l 250 69 l 621 69 l 732 253 l 754 253 l 710 0 l 14 0 m 456 1029 q 411 1047 429 1029 q 393 1092 393 1065 q 411 1136 393 1118 q 456 1154 429 1154 q 500 1136 482 1154 q 518 1092 518 1118 q 500 1047 518 1065 q 456 1029 482 1029 m 692 1029 q 647 1047 665 1029 q 629 1092 629 1065 q 647 1136 629 1118 q 692 1154 665 1154 q 736 1136 718 1154 q 754 1092 754 1118 q 736 1047 754 1065 q 692 1029 718 1029 z "},"Ж":{"ha":1396,"x_min":-29,"x_max":1388,"o":"m 467 0 l 469 22 l 586 78 l 718 839 l 624 894 l 626 917 l 957 917 l 953 894 l 838 839 l 704 78 l 800 22 l 796 0 l 467 0 m 1104 0 l 774 469 l 1192 847 l 1106 894 l 1110 917 l 1388 917 l 1382 894 l 1297 863 l 890 494 l 1193 72 l 1278 22 l 1274 0 l 1104 0 m 157 0 l -29 0 l -25 22 l 81 72 l 539 503 l 267 861 l 193 894 l 196 917 l 474 917 l 469 894 l 367 847 l 651 469 l 157 0 z "},"З":{"ha":864,"x_min":69,"x_max":781,"o":"m 507 868 q 417 855 457 868 q 331 808 376 842 l 207 625 l 182 625 l 232 868 q 358 913 293 894 q 525 931 422 931 q 668 902 611 931 q 753 827 725 874 q 781 726 781 781 q 756 625 781 675 q 681 536 731 575 q 556 479 631 497 q 708 408 660 461 q 756 281 756 356 q 708 142 756 210 q 575 31 661 75 q 371 -14 489 -14 q 239 -5 293 -14 q 145 19 185 4 q 69 54 106 35 l 93 275 l 117 275 l 183 106 q 253 66 211 83 q 369 49 294 49 q 510 81 454 49 q 595 162 567 113 q 624 263 624 211 q 572 391 624 344 q 413 438 519 438 l 303 438 l 317 507 l 422 507 q 548 540 497 507 q 625 622 599 572 q 651 722 651 672 q 616 824 651 781 q 507 868 581 868 z "},"И":{"ha":1089,"x_min":14,"x_max":1075,"o":"m 14 0 l 18 22 l 124 78 l 258 839 l 158 894 l 163 917 l 493 917 l 489 894 l 376 839 l 269 233 l 828 771 l 840 839 l 740 894 l 744 917 l 1075 917 l 1071 894 l 958 839 l 824 78 l 931 22 l 926 0 l 596 0 l 600 22 l 706 78 l 808 661 l 250 126 l 242 78 l 349 22 l 344 0 l 14 0 z "},"Й":{"ha":1089,"x_min":14,"x_max":1075,"o":"m 14 0 l 18 22 l 124 78 l 258 839 l 158 894 l 163 917 l 493 917 l 489 894 l 376 839 l 269 233 l 828 771 l 840 839 l 740 894 l 744 917 l 1075 917 l 1071 894 l 958 839 l 824 78 l 931 22 l 926 0 l 596 0 l 600 22 l 706 78 l 808 661 l 250 126 l 242 78 l 349 22 l 344 0 l 14 0 m 428 1197 l 547 1197 q 552 1073 535 1124 q 633 1022 569 1022 q 733 1073 697 1022 q 781 1197 768 1124 l 900 1197 q 815 1048 885 1110 q 628 986 744 986 q 462 1048 511 986 q 428 1197 413 1110 z "},"Ӣ":{"ha":1089,"x_min":14,"x_max":1075,"o":"m 14 0 l 18 22 l 124 78 l 258 839 l 158 894 l 163 917 l 493 917 l 489 894 l 376 839 l 269 233 l 828 771 l 840 839 l 740 894 l 744 917 l 1075 917 l 1071 894 l 958 839 l 824 78 l 931 22 l 926 0 l 596 0 l 600 22 l 706 78 l 808 661 l 250 126 l 242 78 l 349 22 l 344 0 l 14 0 z "},"К":{"ha":972,"x_min":14,"x_max":950,"o":"m 14 0 l 18 22 l 133 78 l 267 839 l 171 894 l 175 917 l 506 917 l 500 894 l 386 839 l 251 78 l 349 22 l 343 0 l 14 0 m 667 0 l 322 469 l 754 847 l 668 894 l 672 917 l 950 917 l 944 894 l 860 861 l 442 497 l 767 72 l 851 22 l 847 0 l 667 0 z "},"Ќ":{"ha":972,"x_min":14,"x_max":950,"o":"m 14 0 l 18 22 l 133 78 l 267 839 l 171 894 l 175 917 l 506 917 l 500 894 l 386 839 l 251 78 l 349 22 l 343 0 l 14 0 m 667 0 l 322 469 l 754 847 l 668 894 l 672 917 l 950 917 l 944 894 l 860 861 l 442 497 l 767 72 l 851 22 l 847 0 l 667 0 z "},"Л":{"ha":1003,"x_min":-17,"x_max":989,"o":"m 510 0 l 514 22 l 619 78 l 756 847 l 421 847 l 408 772 q 324 387 368 542 q 217 126 279 232 q 115 14 164 42 q 28 -14 67 -14 q -10 -6 -3 -14 q -12 26 -17 3 l 1 103 l 7 108 l 21 108 q 155 194 97 108 q 256 431 213 281 q 331 772 299 581 l 342 839 l 240 894 l 244 917 l 989 917 l 985 894 l 872 839 l 738 78 l 844 22 l 840 0 l 510 0 z "},"М":{"ha":1281,"x_min":14,"x_max":1267,"o":"m 14 0 l 18 22 l 132 78 l 296 838 l 181 894 l 186 917 l 433 917 l 617 168 l 1033 917 l 1267 917 l 1261 894 l 1144 840 l 1056 78 l 1139 22 l 1135 0 l 828 0 l 832 22 l 939 76 l 1022 756 l 596 -7 l 538 -7 l 354 756 l 214 76 l 311 22 l 307 0 l 14 0 z "},"Н":{"ha":1075,"x_min":14,"x_max":1061,"o":"m 14 0 l 18 22 l 124 78 l 258 839 l 158 894 l 163 917 l 493 917 l 489 894 l 376 839 l 318 507 l 768 507 l 826 839 l 726 894 l 731 917 l 1061 917 l 1057 894 l 944 839 l 810 78 l 917 22 l 913 0 l 582 0 l 586 22 l 692 78 l 756 438 l 306 438 l 242 78 l 349 22 l 344 0 l 14 0 z "},"О":{"ha":1064,"x_min":83,"x_max":981,"o":"m 461 -14 q 263 38 347 -14 q 131 181 178 89 q 83 392 83 272 q 122 593 83 496 q 231 767 161 690 q 396 888 301 843 q 601 932 490 932 q 801 881 717 932 q 933 737 886 829 q 981 525 981 644 q 942 326 981 422 q 835 153 904 231 q 670 31 765 76 q 461 -14 575 -14 m 506 53 q 647 89 583 53 q 758 190 711 125 q 830 337 804 254 q 856 514 856 419 q 819 699 856 619 q 716 823 782 778 q 564 868 650 868 q 381 806 461 868 q 255 640 300 744 q 210 406 210 535 q 247 222 210 301 q 351 97 285 142 q 506 53 417 53 z "},"П":{"ha":1061,"x_min":14,"x_max":1047,"o":"m 14 0 l 18 22 l 124 78 l 258 839 l 158 894 l 163 917 l 1047 917 l 1043 894 l 931 839 l 796 78 l 903 22 l 899 0 l 568 0 l 572 22 l 678 78 l 814 847 l 378 847 l 242 78 l 349 22 l 344 0 l 14 0 z "},"Р":{"ha":863,"x_min":14,"x_max":821,"o":"m 14 0 l 18 22 l 133 78 l 267 839 l 171 894 l 175 917 l 479 917 q 727 863 633 917 q 821 690 821 808 q 773 552 821 617 q 635 447 725 488 q 421 407 544 407 l 310 407 l 251 78 l 361 22 l 357 0 l 14 0 m 388 847 l 322 476 l 453 476 q 632 534 574 476 q 690 681 690 592 q 633 808 690 768 q 472 847 576 847 l 388 847 z "},"С":{"ha":929,"x_min":83,"x_max":874,"o":"m 444 -14 q 249 34 329 -14 q 126 166 168 82 q 83 360 83 250 q 126 582 83 478 q 244 764 169 686 q 415 886 318 842 q 618 931 511 931 q 752 915 697 931 q 874 864 807 900 l 838 621 l 815 621 l 760 793 q 690 848 725 829 q 601 867 654 867 q 435 829 507 867 q 313 726 363 792 q 238 576 264 660 q 213 397 213 492 q 288 142 213 233 q 482 50 364 50 q 593 74 542 50 q 685 124 644 97 l 796 275 l 818 275 l 765 54 q 677 18 722 33 q 576 -6 632 3 q 444 -14 521 -14 z "},"Т":{"ha":896,"x_min":104,"x_max":924,"o":"m 185 0 l 190 22 l 331 78 l 468 847 l 253 847 l 126 636 l 104 636 l 153 917 l 924 917 l 874 636 l 851 636 l 799 847 l 588 847 l 450 78 l 572 22 l 568 0 l 185 0 z "},"У":{"ha":963,"x_min":111,"x_max":1011,"o":"m 540 281 q 411 103 464 167 q 313 13 358 39 q 217 -14 268 -14 q 179 -6 186 -14 q 176 26 172 3 l 190 103 l 196 108 l 210 108 q 318 134 275 108 q 396 208 361 160 l 200 844 l 111 894 l 115 917 l 451 917 l 447 894 l 319 843 l 318 836 l 472 332 l 486 332 l 821 842 l 821 847 l 715 894 l 719 917 l 1011 917 l 1007 894 l 925 854 l 540 281 z "},"Ў":{"ha":963,"x_min":111,"x_max":1011,"o":"m 540 281 q 411 103 464 167 q 313 13 358 39 q 217 -14 268 -14 q 179 -6 186 -14 q 176 26 172 3 l 190 103 l 196 108 l 210 108 q 318 134 275 108 q 396 208 361 160 l 200 844 l 111 894 l 115 917 l 451 917 l 447 894 l 319 843 l 318 836 l 472 332 l 486 332 l 821 842 l 821 847 l 715 894 l 719 917 l 1011 917 l 1007 894 l 925 854 l 540 281 m 399 1197 l 518 1197 q 523 1073 506 1124 q 604 1022 540 1022 q 703 1073 668 1022 q 751 1197 739 1124 l 871 1197 q 785 1048 856 1110 q 599 986 715 986 q 433 1048 482 986 q 399 1197 383 1110 z "},"Ӯ":{"ha":963,"x_min":111,"x_max":1011,"o":"m 540 281 q 411 103 464 167 q 313 13 358 39 q 217 -14 268 -14 q 179 -6 186 -14 q 176 26 172 3 l 190 103 l 196 108 l 210 108 q 318 134 275 108 q 396 208 361 160 l 200 844 l 111 894 l 115 917 l 451 917 l 447 894 l 319 843 l 318 836 l 472 332 l 486 332 l 821 842 l 821 847 l 715 894 l 719 917 l 1011 917 l 1007 894 l 925 854 l 540 281 z "},"Ф":{"ha":1163,"x_min":49,"x_max":1107,"o":"m 338 -28 l 342 -6 l 447 50 l 458 111 q 151 195 254 115 q 49 415 49 275 q 113 605 49 518 q 296 747 176 692 q 579 806 415 801 l 590 867 l 490 922 l 494 944 l 825 944 l 821 922 l 708 867 l 697 806 q 1004 722 901 801 q 1107 501 1107 642 q 1043 312 1107 399 q 860 170 979 225 q 576 111 740 115 l 565 50 l 672 -6 l 668 -28 l 338 -28 m 982 488 q 906 673 982 606 q 688 747 829 740 l 586 171 q 809 215 721 171 q 940 330 897 258 q 982 488 982 401 m 174 429 q 250 244 174 311 q 468 169 326 176 l 569 746 q 347 702 435 746 q 216 587 258 658 q 174 429 174 515 z "},"Х":{"ha":975,"x_min":-35,"x_max":996,"o":"m -35 0 l -29 22 l 72 71 l 436 467 l 228 849 l 153 894 l 157 917 l 486 917 l 482 894 l 353 849 l 351 842 l 525 531 l 803 842 l 803 847 l 707 894 l 711 917 l 996 917 l 992 894 l 907 850 l 558 471 l 781 74 l 864 22 l 860 0 l 524 0 l 528 22 l 649 69 l 650 75 l 469 406 l 172 75 l 172 69 l 276 22 l 272 0 l -35 0 z "},"Ц":{"ha":1089,"x_min":14,"x_max":1047,"o":"m 811 0 l 14 0 l 18 22 l 131 78 l 265 839 l 158 894 l 163 917 l 493 917 l 489 894 l 383 839 l 247 69 l 683 69 l 819 839 l 713 894 l 717 917 l 1047 917 l 1043 894 l 938 839 l 801 69 l 940 69 l 888 -232 l 865 -232 l 811 0 z "},"Ч":{"ha":1001,"x_min":104,"x_max":988,"o":"m 508 0 l 513 22 l 618 78 l 679 424 q 578 397 631 407 q 467 386 525 386 q 286 415 358 386 q 185 510 214 443 q 178 694 156 578 l 204 839 l 104 894 l 108 917 l 439 917 l 435 894 l 322 839 l 296 693 q 315 510 272 563 q 474 457 357 457 q 588 465 536 457 q 692 490 639 472 l 753 839 l 653 894 l 657 917 l 988 917 l 983 894 l 871 839 l 736 78 l 843 22 l 839 0 l 508 0 z "},"Ш":{"ha":1457,"x_min":14,"x_max":1443,"o":"m 493 917 l 489 894 l 383 839 l 247 69 l 604 69 l 740 839 l 633 894 l 638 917 l 968 917 l 964 894 l 858 839 l 722 69 l 1079 69 l 1215 839 l 1108 894 l 1113 917 l 1443 917 l 1439 894 l 1333 839 l 1199 78 l 1299 22 l 1294 0 l 14 0 l 18 22 l 131 78 l 265 839 l 158 894 l 163 917 l 493 917 z "},"Щ":{"ha":1485,"x_min":14,"x_max":1443,"o":"m 493 917 l 489 894 l 383 839 l 247 69 l 604 69 l 740 839 l 633 894 l 638 917 l 968 917 l 964 894 l 858 839 l 722 69 l 1079 69 l 1215 839 l 1108 894 l 1113 917 l 1443 917 l 1439 894 l 1333 839 l 1197 69 l 1336 69 l 1283 -232 l 1261 -232 l 1207 0 l 14 0 l 18 22 l 131 78 l 265 839 l 158 894 l 163 917 l 493 917 z "},"Ъ":{"ha":1017,"x_min":90,"x_max":926,"o":"m 638 917 l 633 894 l 507 839 l 454 539 l 596 539 q 843 472 760 539 q 926 289 926 406 q 822 81 926 163 q 500 0 717 0 l 144 0 l 149 22 l 254 78 l 390 847 l 242 847 l 113 636 l 90 636 l 139 917 l 638 917 m 371 69 l 513 69 q 729 128 657 69 q 801 288 801 188 q 571 469 801 469 l 442 469 l 371 69 z "},"Ы":{"ha":1393,"x_min":14,"x_max":1379,"o":"m 163 917 l 507 917 l 503 894 l 376 839 l 324 539 l 465 539 q 713 472 629 539 q 796 289 796 406 q 691 81 796 163 q 369 0 586 0 l 14 0 l 18 22 l 124 78 l 258 839 l 158 894 l 163 917 m 240 69 l 382 69 q 599 128 526 69 q 671 288 671 188 q 440 469 671 469 l 311 469 l 240 69 m 900 0 l 904 22 l 1010 78 l 1144 839 l 1044 894 l 1049 917 l 1379 917 l 1375 894 l 1263 839 l 1128 78 l 1235 22 l 1231 0 l 900 0 z "},"Ь":{"ha":886,"x_min":14,"x_max":796,"o":"m 163 917 l 507 917 l 503 894 l 376 839 l 324 539 l 465 539 q 713 472 629 539 q 796 289 796 406 q 691 81 796 163 q 369 0 586 0 l 14 0 l 18 22 l 124 78 l 258 839 l 158 894 l 163 917 m 240 69 l 382 69 q 599 128 526 69 q 671 288 671 188 q 440 469 671 469 l 311 469 l 240 69 z "},"Э":{"ha":946,"x_min":69,"x_max":863,"o":"m 375 619 l 425 507 l 733 507 q 733 519 733 513 q 660 775 733 683 q 471 867 586 867 q 367 844 414 867 q 282 793 321 821 l 171 642 l 149 642 l 201 863 q 331 912 265 893 q 500 931 397 931 q 698 883 617 931 q 821 751 779 835 q 863 557 863 667 q 820 326 863 431 q 705 146 778 222 q 539 28 632 69 q 343 -14 446 -14 q 236 -8 281 -14 q 153 13 192 -1 q 69 53 114 28 l 106 296 l 128 296 l 183 124 q 255 69 218 88 q 356 50 292 50 q 541 101 463 50 q 667 240 619 151 q 729 438 715 328 l 413 438 l 322 322 l 300 322 l 353 619 l 375 619 z "},"Ю":{"ha":1425,"x_min":14,"x_max":1342,"o":"m 14 0 l 18 22 l 124 78 l 258 839 l 158 894 l 163 917 l 493 917 l 489 894 l 376 839 l 318 507 l 485 507 q 547 671 503 594 q 656 806 590 747 q 802 899 721 865 q 976 932 883 932 q 1169 881 1086 932 q 1297 737 1251 829 q 1342 525 1342 644 q 1305 326 1342 422 q 1200 153 1268 231 q 1040 31 1132 76 q 836 -14 947 -14 q 644 38 726 -14 q 517 181 563 89 q 472 392 472 272 q 474 438 472 415 l 306 438 l 242 78 l 349 22 l 344 0 l 14 0 m 881 53 q 1016 89 954 53 q 1123 190 1078 125 q 1192 337 1168 254 q 1217 514 1217 419 q 1182 699 1217 619 q 1085 823 1147 778 q 939 868 1022 868 q 763 806 839 868 q 642 640 686 744 q 599 406 599 535 q 634 222 599 301 q 733 97 669 142 q 881 53 797 53 z "},"Я":{"ha":949,"x_min":-32,"x_max":935,"o":"m 161 0 l -32 0 l -28 22 l 72 72 l 381 413 q 240 494 286 436 q 194 635 194 553 q 299 838 194 758 q 621 917 404 917 l 935 917 l 931 894 l 825 839 l 690 78 l 790 22 l 786 0 l 442 0 l 446 22 l 572 78 l 628 393 l 497 393 l 161 0 m 550 463 l 640 463 l 708 847 l 608 847 q 392 790 464 847 q 319 636 319 733 q 550 463 319 463 z "},"Ґ":{"ha":822,"x_min":14,"x_max":832,"o":"m 14 0 l 18 22 l 133 78 l 267 839 l 171 894 l 175 917 l 668 917 l 810 1149 l 832 1149 l 781 847 l 388 847 l 251 78 l 375 22 l 371 0 l 14 0 z "},"Қ":{"ha":1000,"x_min":14,"x_max":950,"o":"m 14 0 l 18 22 l 133 78 l 267 839 l 171 894 l 175 917 l 506 917 l 500 894 l 386 839 l 251 78 l 349 22 l 343 0 l 14 0 m 667 0 l 322 469 l 754 847 l 668 894 l 672 917 l 950 917 l 944 894 l 860 861 l 442 497 l 769 69 l 908 69 l 856 -232 l 833 -232 l 779 0 l 667 0 z "},"Җ":{"ha":1424,"x_min":-29,"x_max":1388,"o":"m 467 0 l 469 22 l 586 78 l 718 839 l 624 894 l 626 917 l 957 917 l 953 894 l 838 839 l 704 78 l 800 22 l 796 0 l 467 0 m 1104 0 l 774 469 l 1192 847 l 1106 894 l 1110 917 l 1388 917 l 1382 894 l 1297 863 l 890 496 l 1196 69 l 1332 69 l 1279 -232 l 1257 -232 l 1203 0 l 1104 0 m 157 0 l -29 0 l -25 22 l 76 72 l 538 506 l 267 861 l 193 894 l 196 917 l 474 917 l 469 894 l 367 847 l 651 469 l 157 0 z "},"Ҳ":{"ha":1014,"x_min":-35,"x_max":996,"o":"m -35 0 l -29 22 l 72 71 l 436 467 l 228 849 l 153 894 l 157 917 l 486 917 l 482 894 l 353 849 l 351 842 l 525 531 l 803 842 l 803 847 l 707 894 l 711 917 l 996 917 l 992 894 l 907 850 l 558 471 l 783 69 l 922 69 l 869 -232 l 847 -232 l 793 0 l 524 0 l 528 22 l 649 69 l 650 75 l 469 406 l 172 75 l 172 69 l 276 22 l 272 0 l -35 0 z "},"Ң":{"ha":1103,"x_min":14,"x_max":1061,"o":"m 14 0 l 18 22 l 124 78 l 258 839 l 158 894 l 163 917 l 493 917 l 489 894 l 376 839 l 318 507 l 768 507 l 826 839 l 726 894 l 731 917 l 1061 917 l 1057 894 l 944 839 l 808 69 l 947 69 l 894 -232 l 872 -232 l 818 0 l 582 0 l 586 22 l 692 78 l 756 438 l 306 438 l 242 78 l 349 22 l 344 0 l 14 0 z "},"Ҷ":{"ha":1061,"x_min":136,"x_max":1019,"o":"m 540 0 l 544 22 l 650 78 l 711 424 q 610 397 663 407 q 499 386 557 386 q 318 415 390 386 q 217 510 246 443 q 210 694 189 578 l 236 839 l 136 894 l 140 917 l 471 917 l 467 894 l 354 839 l 328 693 q 347 510 304 563 q 506 457 389 457 q 619 465 568 457 q 724 490 671 472 l 785 839 l 685 894 l 689 917 l 1019 917 l 1015 894 l 903 839 l 767 69 l 906 69 l 853 -232 l 831 -232 l 776 0 l 540 0 z "},"Ү":{"ha":943,"x_min":132,"x_max":992,"o":"m 231 0 l 235 22 l 363 78 l 425 426 l 206 847 l 132 894 l 138 917 l 451 917 l 446 894 l 333 850 l 332 844 l 515 496 l 796 842 l 797 847 l 700 894 l 706 917 l 992 917 l 988 894 l 899 851 l 543 428 l 481 78 l 590 22 l 586 0 l 231 0 z "},"Ұ":{"ha":943,"x_min":132,"x_max":992,"o":"m 231 0 l 235 22 l 363 78 l 413 360 l 206 360 l 217 429 l 424 429 l 206 847 l 132 894 l 138 917 l 451 917 l 446 894 l 333 850 l 332 844 l 515 496 l 796 842 l 797 847 l 700 894 l 706 917 l 992 917 l 988 894 l 899 851 l 544 429 l 750 429 l 739 360 l 531 360 l 481 78 l 590 22 l 586 0 l 231 0 z "},"Һ":{"ha":1001,"x_min":65,"x_max":949,"o":"m 544 917 l 540 894 l 435 839 l 374 493 q 475 520 422 510 q 586 531 528 531 q 767 502 694 531 q 868 406 839 474 q 875 222 897 339 l 849 78 l 949 22 l 944 0 l 614 0 l 618 22 l 731 78 l 757 224 q 738 407 781 354 q 579 460 696 460 q 465 452 517 460 q 361 426 414 444 l 300 78 l 400 22 l 396 0 l 65 0 l 69 22 l 182 78 l 317 839 l 210 894 l 214 917 l 544 917 z "},"Ӏ":{"ha":507,"x_min":14,"x_max":493,"o":"m 14 0 l 18 22 l 124 78 l 258 839 l 158 894 l 163 917 l 493 917 l 489 894 l 376 839 l 242 78 l 349 22 l 344 0 l 14 0 z "},"Ә":{"ha":857,"x_min":63,"x_max":794,"o":"m 329 -14 q 133 64 204 -14 q 63 285 63 142 q 65 343 63 313 q 74 407 67 374 l 86 417 l 672 417 q 683 561 683 485 q 622 767 683 692 q 429 843 561 843 q 272 808 342 843 q 133 710 203 772 l 128 710 l 132 735 q 281 875 189 819 q 483 931 372 931 q 713 842 632 931 q 794 600 794 753 q 761 366 794 476 q 666 170 728 256 q 519 35 604 85 q 329 -14 433 -14 m 169 290 q 186 171 169 224 q 242 88 203 118 q 354 57 282 57 q 549 138 472 57 q 658 347 625 218 l 172 347 q 171 319 172 333 q 169 290 169 304 z "},"Ө":{"ha":1064,"x_min":83,"x_max":981,"o":"m 461 -14 q 263 38 347 -14 q 131 181 178 89 q 83 392 83 272 q 122 593 83 496 q 231 767 161 690 q 396 888 301 843 q 601 932 490 932 q 801 881 717 932 q 933 737 886 829 q 981 525 981 644 q 942 326 981 422 q 835 153 904 231 q 670 31 765 76 q 461 -14 575 -14 m 564 868 q 403 822 475 868 q 283 694 331 775 q 218 510 235 614 l 856 510 l 856 514 q 819 699 856 619 q 716 823 782 778 q 564 868 650 868 m 506 53 q 672 105 599 53 q 792 244 744 157 q 851 440 839 332 l 211 440 q 210 406 210 424 q 247 222 210 301 q 351 97 285 142 q 506 53 417 53 z "},"Ѣ":{"ha":994,"x_min":49,"x_max":904,"o":"m 188 683 l 71 528 l 49 528 l 88 753 l 365 753 l 381 839 l 281 894 l 285 917 l 629 917 l 625 894 l 499 839 l 483 753 l 808 753 l 768 528 l 746 528 l 683 683 l 471 683 l 436 483 l 588 483 q 824 427 744 483 q 904 267 904 371 q 859 131 904 192 q 722 35 814 71 q 492 0 631 0 l 136 0 l 140 22 l 246 78 l 353 683 l 188 683 m 363 69 l 504 69 q 710 124 642 69 q 779 265 779 178 q 563 414 779 414 l 424 414 l 363 69 z "},"Ѳ":{"ha":1064,"x_min":83,"x_max":981,"o":"m 461 -14 q 263 38 347 -14 q 131 181 178 89 q 83 392 83 272 q 122 593 83 496 q 231 767 161 690 q 396 888 301 843 q 601 932 490 932 q 801 881 717 932 q 933 737 886 829 q 981 525 981 644 q 942 326 981 422 q 835 153 904 231 q 670 31 765 76 q 461 -14 575 -14 m 564 868 q 394 817 469 868 q 272 676 319 765 q 214 474 225 586 q 366 526 290 518 q 513 522 442 533 q 648 495 585 510 q 764 478 711 481 q 856 504 817 475 q 856 514 856 504 q 819 699 856 619 q 716 823 782 778 q 564 868 650 868 m 506 53 q 673 106 599 53 q 794 247 747 158 q 851 446 840 336 q 736 398 794 408 q 620 394 678 388 q 507 413 563 400 q 399 438 451 426 q 300 447 347 449 q 210 421 253 446 q 210 406 210 418 q 247 222 210 301 q 351 97 285 142 q 506 53 417 53 z "},"Ѵ":{"ha":1038,"x_min":125,"x_max":1068,"o":"m 815 656 l 450 -7 l 390 -7 l 208 846 l 125 894 l 131 917 l 460 917 l 456 894 l 332 847 l 471 178 l 478 178 l 715 638 q 793 768 756 714 q 865 857 831 822 q 944 914 906 897 q 1024 931 983 931 q 1062 922 1056 931 q 1064 890 1068 914 l 1051 814 l 1044 808 l 1031 808 q 903 768 950 808 q 815 656 856 728 z "},"ȷ":{"ha":400,"x_min":-106,"x_max":297,"o":"m -106 -319 l -106 -297 q -23 -230 -58 -267 q 37 -142 13 -193 q 75 -14 61 -90 l 174 542 l 53 589 l 53 597 l 293 639 l 297 639 l 183 0 q 88 -183 164 -103 q -106 -319 13 -262 z "},"ĸ":{"ha":668,"x_min":47,"x_max":647,"o":"m 61 0 l 156 540 l 47 589 l 47 597 l 275 639 l 279 639 l 167 0 l 61 0 m 489 -14 q 437 3 456 -14 q 403 47 418 19 q 368 110 388 75 l 236 350 l 236 357 q 399 525 338 464 q 499 613 461 586 q 567 639 536 639 q 595 635 583 639 q 614 626 607 632 q 625 614 619 621 q 631 597 631 607 q 628 586 631 594 l 604 528 l 597 522 l 571 532 q 556 536 564 535 q 528 538 547 538 q 498 533 515 538 q 461 511 481 528 l 329 396 l 469 151 q 505 102 490 117 q 539 88 519 88 q 584 113 564 88 q 629 192 604 139 l 647 183 q 569 32 603 78 q 489 -14 536 -14 z "},"ẗ":{"ha":436,"x_min":65,"x_max":490,"o":"m 182 -14 q 113 15 136 -14 q 89 97 89 44 q 90 122 89 108 q 94 150 92 136 l 168 564 l 65 564 l 65 572 l 183 625 l 303 778 l 311 778 l 285 625 l 458 625 l 458 564 l 274 564 l 211 211 q 207 178 208 193 q 206 153 206 164 q 217 106 206 119 q 246 92 228 92 q 315 128 278 92 q 382 232 351 164 l 400 224 q 298 39 354 92 q 182 -14 242 -14 m 192 935 q 147 953 165 935 q 129 997 129 971 q 147 1042 129 1024 q 192 1060 165 1060 q 236 1042 218 1060 q 254 997 254 1024 q 236 953 254 971 q 192 935 218 935 m 428 935 q 383 953 401 935 q 365 997 365 971 q 383 1042 365 1024 q 428 1060 401 1060 q 472 1042 454 1060 q 490 997 490 1024 q 472 953 490 971 q 428 935 454 935 z "},"a":{"ha":881,"x_min":-21,"x_max":769,"o":"m -21 0 l -17 22 l 58 61 l 479 785 l 542 785 l 696 65 l 769 22 l 765 0 l 471 0 l 475 22 l 582 65 l 536 283 l 260 283 l 133 61 l 228 22 l 222 0 l -21 0 m 293 343 l 524 343 l 461 636 l 293 343 z "},"b":{"ha":781,"x_min":14,"x_max":697,"o":"m 14 0 l 18 22 l 118 78 l 232 700 l 150 756 l 154 778 l 428 778 q 620 737 549 778 q 692 614 692 696 q 647 490 692 544 q 524 413 601 436 q 653 350 610 396 q 697 236 697 304 q 658 125 697 179 q 543 35 619 71 q 351 0 467 0 l 14 0 m 422 715 l 347 715 l 294 432 l 374 432 q 527 478 476 432 q 578 594 578 525 q 541 684 578 653 q 422 715 504 715 m 392 369 l 283 369 l 226 63 l 367 63 q 528 110 475 63 q 582 236 582 157 q 536 338 582 306 q 392 369 490 369 z "},"c":{"ha":846,"x_min":83,"x_max":790,"o":"m 426 -14 q 175 76 267 -14 q 83 314 83 165 q 120 499 83 413 q 223 652 157 586 q 376 756 289 718 q 565 793 464 793 q 683 780 635 793 q 790 736 732 767 l 758 529 l 735 529 l 689 674 q 627 718 660 704 q 549 732 594 732 q 357 676 435 732 q 240 529 279 621 q 200 329 200 438 q 267 119 200 194 q 442 43 335 43 q 544 60 500 43 q 622 101 588 78 l 717 232 l 739 232 l 693 49 q 583 4 644 22 q 426 -14 522 -14 z "},"d":{"ha":926,"x_min":14,"x_max":857,"o":"m 14 0 l 18 22 l 121 78 l 236 700 l 153 756 l 157 778 l 458 778 q 680 736 592 778 q 813 621 768 694 q 857 453 857 547 q 799 219 857 322 q 632 58 742 117 q 365 0 522 0 l 14 0 m 433 715 l 351 715 l 229 63 l 358 63 q 579 109 494 63 q 702 240 664 156 q 740 438 740 325 q 666 640 740 564 q 433 715 592 715 z "},"e":{"ha":781,"x_min":14,"x_max":732,"o":"m 14 0 l 18 22 l 121 78 l 236 700 l 153 756 l 157 778 l 732 778 l 694 575 l 671 575 l 631 715 l 351 715 l 299 435 l 500 435 l 576 532 l 599 532 l 549 267 l 525 267 l 490 372 l 288 372 l 229 63 l 563 63 l 656 215 l 678 215 l 640 0 l 14 0 z "},"f":{"ha":757,"x_min":14,"x_max":726,"o":"m 14 0 l 18 22 l 121 78 l 235 700 l 151 756 l 156 778 l 726 778 l 689 575 l 665 575 l 622 715 l 350 715 l 297 435 l 486 435 l 563 532 l 585 532 l 533 267 l 511 267 l 475 372 l 286 372 l 232 78 l 340 22 l 336 0 l 14 0 z "},"g":{"ha":917,"x_min":83,"x_max":824,"o":"m 400 -14 q 233 26 304 -14 q 122 139 161 67 q 83 304 83 211 q 122 501 83 411 q 226 656 160 590 q 380 757 293 721 q 565 793 467 793 q 692 781 639 793 q 807 735 746 768 l 776 531 l 753 531 l 710 669 q 640 717 676 703 q 550 732 604 732 q 363 681 442 732 q 242 540 285 629 q 199 335 199 450 q 267 122 199 200 q 444 44 335 44 q 513 49 479 44 q 585 68 547 54 l 619 267 l 526 318 l 531 340 l 824 340 l 819 318 l 731 267 l 699 79 q 565 11 640 36 q 400 -14 489 -14 z "},"h":{"ha":947,"x_min":14,"x_max":933,"o":"m 14 0 l 18 22 l 110 78 l 224 700 l 139 756 l 143 778 l 438 778 l 433 756 l 335 700 l 286 433 l 671 433 l 719 700 l 635 756 l 639 778 l 933 778 l 929 756 l 831 700 l 717 78 l 807 22 l 803 0 l 510 0 l 513 22 l 606 78 l 660 371 l 275 371 l 221 78 l 311 22 l 307 0 l 14 0 z "},"i":{"ha":446,"x_min":14,"x_max":432,"o":"m 14 0 l 18 22 l 110 78 l 221 700 l 136 756 l 140 778 l 432 778 l 428 756 l 332 700 l 221 78 l 310 22 l 306 0 l 14 0 z "},"ı":{"ha":446,"x_min":14,"x_max":432,"o":"m 14 0 l 18 22 l 110 78 l 221 700 l 136 756 l 140 778 l 432 778 l 428 756 l 332 700 l 221 78 l 310 22 l 306 0 l 14 0 z "},"j":{"ha":443,"x_min":-90,"x_max":436,"o":"m -53 -204 q -80 -192 -69 -204 q -81 -150 -90 -181 l -62 -93 l -56 -93 q -27 -101 -37 -99 q -1 -104 -17 -104 q 42 -94 22 -104 q 78 -49 63 -83 q 107 60 94 -14 l 221 700 l 140 756 l 144 778 l 436 778 l 432 756 l 332 700 l 258 283 q 193 43 235 150 q 93 -121 151 -64 q 13 -185 46 -167 q -53 -204 -21 -204 z "},"k":{"ha":851,"x_min":14,"x_max":829,"o":"m 14 0 l 18 22 l 118 78 l 231 700 l 149 756 l 153 778 l 447 778 l 443 756 l 342 700 l 229 78 l 311 22 l 307 0 l 14 0 m 569 0 l 292 399 l 631 713 l 560 756 l 564 778 l 829 778 l 824 756 l 735 717 l 403 421 l 650 76 l 736 22 l 732 0 l 569 0 z "},"l":{"ha":749,"x_min":14,"x_max":642,"o":"m 14 0 l 18 22 l 118 78 l 232 700 l 150 756 l 154 778 l 460 778 l 456 756 l 343 700 l 228 63 l 510 63 l 619 263 l 642 263 l 593 0 l 14 0 z "},"m":{"ha":1129,"x_min":14,"x_max":1115,"o":"m 14 0 l 18 22 l 118 78 l 257 703 l 158 756 l 163 778 l 394 778 l 543 165 l 889 778 l 1115 778 l 1110 756 l 1006 703 l 932 78 l 1004 22 l 1000 0 l 722 0 l 726 22 l 819 78 l 889 644 l 517 -6 l 467 -6 l 310 654 l 188 79 l 271 22 l 267 0 l 14 0 z "},"n":{"ha":938,"x_min":14,"x_max":931,"o":"m 14 0 l 18 22 l 122 78 l 235 699 l 151 756 l 156 778 l 335 778 l 663 194 l 753 703 l 647 756 l 651 778 l 931 778 l 926 756 l 822 703 l 697 -6 l 653 -6 l 292 629 l 192 76 l 300 22 l 296 0 l 14 0 z "},"o":{"ha":956,"x_min":83,"x_max":872,"o":"m 419 -14 q 244 30 319 -14 q 126 152 168 74 q 83 332 83 231 q 117 508 83 425 q 213 656 151 592 q 356 757 274 721 q 535 793 438 793 q 713 749 636 793 q 831 626 789 704 q 872 446 872 547 q 839 272 872 354 q 745 124 806 189 q 601 23 685 60 q 419 -14 518 -14 m 444 47 q 607 101 536 47 q 717 242 678 154 q 757 436 757 331 q 694 651 757 567 q 515 735 632 735 q 351 683 422 735 q 240 542 281 631 q 199 344 199 453 q 262 131 199 214 q 444 47 325 47 z "},"p":{"ha":774,"x_min":14,"x_max":732,"o":"m 14 0 l 18 22 l 118 78 l 233 700 l 151 756 l 156 778 l 436 778 q 651 732 569 778 q 732 586 732 686 q 692 462 732 518 q 576 372 651 406 q 397 339 501 339 l 278 339 l 229 78 l 322 22 l 318 0 l 14 0 m 347 715 l 289 401 l 406 401 q 562 450 511 401 q 613 576 613 499 q 563 681 613 647 q 424 715 514 715 l 347 715 z "},"q":{"ha":957,"x_min":83,"x_max":904,"o":"m 729 -207 q 624 -193 678 -207 q 507 -137 571 -179 q 358 -10 443 -94 q 158 102 233 10 q 83 332 83 194 q 117 508 83 425 q 213 656 151 592 q 356 757 274 721 q 535 793 438 793 q 713 749 636 793 q 831 626 789 704 q 872 446 872 547 q 826 243 872 338 q 699 83 781 149 q 510 -6 617 17 q 633 -100 582 -67 q 732 -146 685 -133 q 839 -158 779 -158 q 904 -147 878 -158 l 900 -169 q 824 -196 869 -185 q 729 -207 778 -207 m 444 47 q 607 101 536 47 q 717 242 678 154 q 757 436 757 331 q 694 651 757 567 q 515 735 632 735 q 351 683 422 735 q 240 542 281 631 q 199 344 199 453 q 262 131 199 214 q 444 47 325 47 z "},"r":{"ha":765,"x_min":14,"x_max":710,"o":"m 14 0 l 18 22 l 118 78 l 232 700 l 150 756 l 154 778 l 417 778 q 617 730 544 778 q 689 600 689 682 q 631 452 689 508 q 488 374 574 396 l 635 72 l 710 22 l 706 0 l 547 0 l 379 360 l 281 360 l 229 78 l 306 22 l 301 0 l 14 0 m 406 715 l 346 715 l 292 422 l 396 422 q 525 468 479 422 q 571 585 571 514 q 531 681 571 646 q 406 715 492 715 z "},"s":{"ha":600,"x_min":0,"x_max":558,"o":"m 213 -14 q 96 0 143 -14 q 0 40 49 14 l 24 235 l 47 235 l 90 100 q 148 58 115 76 q 225 40 181 40 q 354 83 314 40 q 394 199 394 126 q 376 270 394 242 q 326 321 358 299 q 251 368 294 343 q 153 447 186 403 q 121 557 121 490 q 157 681 121 628 q 251 763 193 733 q 378 793 310 793 q 474 780 432 793 q 558 743 517 767 l 536 554 l 513 554 l 474 688 q 424 722 451 707 q 356 738 397 738 q 262 700 303 738 q 221 599 221 663 q 247 516 221 550 q 329 450 272 482 q 455 356 414 403 q 496 233 496 310 q 458 103 496 160 q 356 17 421 47 q 213 -14 292 -14 z "},"t":{"ha":796,"x_min":104,"x_max":824,"o":"m 175 0 l 179 22 l 303 78 l 421 715 l 233 715 l 126 539 l 104 539 l 147 778 l 824 778 l 782 539 l 758 539 l 717 715 l 533 715 l 414 78 l 519 22 l 515 0 l 175 0 z "},"u":{"ha":979,"x_min":174,"x_max":965,"o":"m 440 -14 q 251 42 325 -14 q 176 219 176 97 q 185 300 176 256 l 257 700 l 174 756 l 178 778 l 474 778 l 469 756 l 368 700 l 299 318 q 290 232 290 269 q 338 94 290 135 q 465 53 386 53 q 628 110 567 53 q 708 276 689 168 l 786 703 l 681 756 l 685 778 l 965 778 l 963 756 l 861 701 l 789 300 q 440 -14 732 -14 z "},"v":{"ha":846,"x_min":125,"x_max":888,"o":"m 339 -6 l 199 710 l 125 756 l 129 778 l 424 778 l 419 756 l 313 714 l 418 157 l 426 157 l 733 715 l 639 756 l 643 778 l 888 778 l 883 756 l 810 717 l 401 -6 l 339 -6 z "},"w":{"ha":1151,"x_min":125,"x_max":1221,"o":"m 282 -6 l 199 713 l 125 756 l 129 778 l 426 778 l 422 756 l 313 713 l 368 197 l 376 197 l 665 785 l 721 785 l 822 197 l 829 197 l 1058 711 l 964 756 l 968 778 l 1221 778 l 1217 756 l 1139 715 l 803 -6 l 744 -6 l 643 574 l 635 574 l 340 -6 l 282 -6 z "},"x":{"ha":860,"x_min":-35,"x_max":881,"o":"m -35 0 l -31 22 l 67 71 l 382 399 l 208 710 l 138 756 l 143 778 l 446 778 l 442 756 l 336 713 l 335 707 l 472 458 l 710 711 l 710 715 l 626 756 l 631 778 l 881 778 l 876 756 l 801 719 l 501 407 l 692 65 l 767 22 l 763 0 l 461 0 l 465 22 l 565 63 l 567 67 l 413 344 l 154 71 l 154 67 l 243 22 l 239 0 l -35 0 z "},"y":{"ha":840,"x_min":132,"x_max":889,"o":"m 218 0 l 222 22 l 336 78 l 388 361 l 197 717 l 132 756 l 136 778 l 418 778 l 414 756 l 319 718 l 319 714 l 475 419 l 715 711 l 717 715 l 635 756 l 639 778 l 889 778 l 885 756 l 806 718 l 499 358 l 447 78 l 542 22 l 538 0 l 218 0 z "},"z":{"ha":776,"x_min":49,"x_max":728,"o":"m 49 0 l 56 42 l 575 715 l 282 715 l 185 563 l 163 563 l 201 778 l 728 778 l 719 736 l 200 63 l 518 63 l 617 226 l 639 226 l 599 0 l 49 0 z "},"à":{"ha":881,"x_min":-21,"x_max":769,"o":"m -21 0 l -17 22 l 58 61 l 479 785 l 542 785 l 696 65 l 769 22 l 765 0 l 471 0 l 475 22 l 582 65 l 536 283 l 260 283 l 133 61 l 228 22 l 222 0 l -21 0 m 293 343 l 524 343 l 461 636 l 293 343 m 517 882 l 338 1040 q 308 1085 311 1063 q 308 1128 306 1107 l 406 1128 l 531 882 l 517 882 z "},"á":{"ha":881,"x_min":-21,"x_max":774,"o":"m -21 0 l -17 22 l 58 61 l 479 785 l 542 785 l 696 65 l 769 22 l 765 0 l 471 0 l 475 22 l 582 65 l 536 283 l 260 283 l 133 61 l 228 22 l 222 0 l -21 0 m 293 343 l 524 343 l 461 636 l 293 343 m 518 882 l 665 1128 l 774 1128 q 757 1088 769 1107 q 714 1040 744 1068 l 532 882 l 518 882 z "},"â":{"ha":881,"x_min":-21,"x_max":769,"o":"m -21 0 l -17 22 l 58 61 l 479 785 l 542 785 l 696 65 l 769 22 l 765 0 l 471 0 l 475 22 l 582 65 l 536 283 l 260 283 l 133 61 l 228 22 l 222 0 l -21 0 m 293 343 l 524 343 l 461 636 l 293 343 m 328 882 l 547 1128 l 586 1128 l 717 882 l 703 882 l 550 1024 l 342 882 l 328 882 z "},"ã":{"ha":881,"x_min":-21,"x_max":769,"o":"m -21 0 l -17 22 l 58 61 l 479 785 l 542 785 l 696 65 l 769 22 l 765 0 l 471 0 l 475 22 l 582 65 l 536 283 l 260 283 l 133 61 l 228 22 l 222 0 l -21 0 m 293 343 l 524 343 l 461 636 l 293 343 m 331 918 q 394 1033 368 996 q 440 1080 419 1069 q 486 1090 461 1090 q 530 1076 511 1090 q 565 1044 549 1063 q 598 1011 581 1025 q 638 997 615 997 q 683 1013 661 997 q 740 1090 704 1028 l 763 1090 q 699 976 725 1013 q 652 928 674 939 q 607 918 631 918 q 563 932 582 918 q 528 965 544 946 q 495 997 513 983 q 456 1011 478 1011 q 410 996 432 1011 q 353 918 389 981 l 331 918 z "},"ä":{"ha":881,"x_min":-21,"x_max":769,"o":"m -21 0 l -17 22 l 58 61 l 479 785 l 542 785 l 696 65 l 769 22 l 765 0 l 471 0 l 475 22 l 582 65 l 536 283 l 260 283 l 133 61 l 228 22 l 222 0 l -21 0 m 293 343 l 524 343 l 461 636 l 293 343 m 428 942 q 383 960 401 942 q 365 1004 365 978 q 383 1049 365 1031 q 428 1067 401 1067 q 472 1049 454 1067 q 490 1004 490 1031 q 472 960 490 978 q 428 942 454 942 m 664 942 q 619 960 638 942 q 601 1004 601 978 q 619 1049 601 1031 q 664 1067 638 1067 q 708 1049 690 1067 q 726 1004 726 1031 q 708 960 726 978 q 664 942 690 942 z "},"ā":{"ha":881,"x_min":-21,"x_max":769,"o":"m -21 0 l -17 22 l 58 61 l 479 785 l 542 785 l 696 65 l 769 22 l 765 0 l 471 0 l 475 22 l 582 65 l 536 283 l 260 283 l 133 61 l 228 22 l 222 0 l -21 0 m 293 343 l 524 343 l 461 636 l 293 343 m 365 972 l 376 1033 l 728 1033 l 715 972 l 365 972 z "},"ă":{"ha":881,"x_min":-21,"x_max":769,"o":"m -21 0 l -17 22 l 58 61 l 479 785 l 542 785 l 696 65 l 769 22 l 765 0 l 471 0 l 475 22 l 582 65 l 536 283 l 260 283 l 133 61 l 228 22 l 222 0 l -21 0 m 293 343 l 524 343 l 461 636 l 293 343 m 531 896 q 409 953 442 896 q 372 1128 376 1011 l 386 1128 q 417 1027 397 1060 q 467 985 438 994 q 536 975 496 975 q 610 984 576 975 q 677 1026 644 993 q 744 1128 710 1058 l 758 1128 q 667 953 722 1011 q 531 896 613 896 z "},"å":{"ha":881,"x_min":-21,"x_max":769,"o":"m -21 0 l -17 22 l 58 61 l 479 785 l 542 785 l 696 65 l 769 22 l 765 0 l 471 0 l 475 22 l 582 65 l 536 283 l 260 283 l 133 61 l 228 22 l 222 0 l -21 0 m 293 343 l 524 343 l 461 636 l 293 343 m 526 889 q 456 915 478 889 q 433 983 433 942 q 469 1078 433 1038 q 567 1119 506 1119 q 637 1093 614 1119 q 660 1025 660 1067 q 624 931 660 972 q 526 889 588 889 m 533 919 q 586 950 568 919 q 604 1024 604 981 q 594 1074 604 1057 q 560 1090 585 1090 q 508 1063 528 1090 q 488 988 488 1035 q 533 919 488 919 z "},"ǻ":{"ha":881,"x_min":-21,"x_max":829,"o":"m -21 0 l -17 22 l 58 61 l 479 785 l 542 785 l 696 65 l 769 22 l 765 0 l 471 0 l 475 22 l 582 65 l 536 283 l 260 283 l 133 61 l 228 22 l 222 0 l -21 0 m 293 343 l 524 343 l 461 636 l 293 343 m 526 889 q 456 915 478 889 q 433 983 433 942 q 469 1078 433 1038 q 567 1119 506 1119 q 637 1093 614 1119 q 660 1025 660 1067 q 624 931 660 972 q 526 889 588 889 m 533 919 q 586 950 568 919 q 604 1024 604 981 q 594 1074 604 1057 q 560 1090 585 1090 q 508 1063 528 1090 q 488 988 488 1035 q 533 919 488 919 m 574 1192 l 721 1438 l 829 1438 q 813 1397 825 1417 q 769 1350 800 1378 l 588 1192 l 574 1192 z "},"ạ":{"ha":881,"x_min":-21,"x_max":769,"o":"m -21 0 l -17 22 l 58 61 l 479 785 l 542 785 l 696 65 l 769 22 l 765 0 l 471 0 l 475 22 l 582 65 l 536 283 l 260 283 l 133 61 l 228 22 l 222 0 l -21 0 m 293 343 l 524 343 l 461 636 l 293 343 m 325 -290 q 269 -267 293 -290 q 246 -211 246 -243 q 269 -156 246 -179 q 325 -132 293 -132 q 381 -156 357 -132 q 404 -211 404 -179 q 381 -267 404 -243 q 325 -290 357 -290 z "},"ą":{"ha":881,"x_min":-21,"x_max":769,"o":"m -21 0 l -17 22 l 58 61 l 479 785 l 542 785 l 696 65 l 769 22 l 765 0 l 646 0 q 580 -103 603 -54 q 557 -194 557 -151 q 578 -253 557 -235 q 635 -272 599 -272 q 668 -267 650 -272 q 704 -250 686 -262 l 708 -250 l 706 -268 q 585 -333 660 -333 q 503 -303 533 -333 q 472 -221 472 -274 q 508 -116 472 -169 q 606 0 543 -62 l 471 0 l 475 22 l 582 65 l 536 283 l 260 283 l 133 61 l 228 22 l 222 0 l -21 0 m 293 343 l 524 343 l 461 636 l 293 343 z "},"ȁ":{"ha":881,"x_min":-21,"x_max":769,"o":"m -21 0 l -17 22 l 58 61 l 479 785 l 542 785 l 696 65 l 769 22 l 765 0 l 471 0 l 475 22 l 582 65 l 536 283 l 260 283 l 133 61 l 228 22 l 222 0 l -21 0 m 293 343 l 524 343 l 461 636 l 293 343 m 583 882 l 451 1047 q 430 1088 433 1071 q 431 1128 426 1106 l 507 1128 l 597 882 l 583 882 m 442 882 l 281 1047 q 256 1090 258 1069 q 257 1128 253 1110 l 333 1128 l 456 882 l 442 882 z "},"ȃ":{"ha":881,"x_min":-21,"x_max":769,"o":"m -21 0 l -17 22 l 58 61 l 479 785 l 542 785 l 696 65 l 769 22 l 765 0 l 471 0 l 475 22 l 582 65 l 536 283 l 260 283 l 133 61 l 228 22 l 222 0 l -21 0 m 293 343 l 524 343 l 461 636 l 293 343 m 332 896 q 423 1070 368 1013 q 560 1128 478 1128 q 681 1070 649 1128 q 718 896 714 1013 l 704 896 q 673 997 693 964 q 624 1039 653 1029 q 554 1049 594 1049 q 480 1040 514 1049 q 413 998 446 1031 q 346 896 381 965 l 332 896 z "},"ắ":{"ha":881,"x_min":-21,"x_max":778,"o":"m -21 0 l -17 22 l 58 61 l 479 785 l 542 785 l 696 65 l 769 22 l 765 0 l 471 0 l 475 22 l 582 65 l 536 283 l 260 283 l 133 61 l 228 22 l 222 0 l -21 0 m 293 343 l 524 343 l 461 636 l 293 343 z "},"ặ":{"ha":881,"x_min":-21,"x_max":769,"o":"m -21 0 l -17 22 l 58 61 l 479 785 l 542 785 l 696 65 l 769 22 l 765 0 l 471 0 l 475 22 l 582 65 l 536 283 l 260 283 l 133 61 l 228 22 l 222 0 l -21 0 m 293 343 l 524 343 l 461 636 l 293 343 m 531 896 q 409 953 442 896 q 372 1128 376 1011 l 386 1128 q 417 1027 397 1060 q 467 985 438 994 q 536 975 496 975 q 610 984 576 975 q 677 1026 644 993 q 744 1128 710 1058 l 758 1128 q 667 953 722 1011 q 531 896 613 896 m 325 -290 q 269 -267 293 -290 q 246 -211 246 -243 q 269 -156 246 -179 q 325 -132 293 -132 q 381 -156 357 -132 q 404 -211 404 -179 q 381 -267 404 -243 q 325 -290 357 -290 z "},"ằ":{"ha":881,"x_min":-21,"x_max":769,"o":"m -21 0 l -17 22 l 58 61 l 479 785 l 542 785 l 696 65 l 769 22 l 765 0 l 471 0 l 475 22 l 582 65 l 536 283 l 260 283 l 133 61 l 228 22 l 222 0 l -21 0 m 293 343 l 524 343 l 461 636 l 293 343 z "},"ẳ":{"ha":881,"x_min":-21,"x_max":769,"o":"m -21 0 l -17 22 l 58 61 l 479 785 l 542 785 l 696 65 l 769 22 l 765 0 l 471 0 l 475 22 l 582 65 l 536 283 l 260 283 l 133 61 l 228 22 l 222 0 l -21 0 m 293 343 l 524 343 l 461 636 l 293 343 z "},"ẵ":{"ha":881,"x_min":-21,"x_max":799,"o":"m -21 0 l -17 22 l 58 61 l 479 785 l 542 785 l 696 65 l 769 22 l 765 0 l 471 0 l 475 22 l 582 65 l 536 283 l 260 283 l 133 61 l 228 22 l 222 0 l -21 0 m 293 343 l 524 343 l 461 636 l 293 343 z "},"ấ":{"ha":881,"x_min":-21,"x_max":894,"o":"m -21 0 l -17 22 l 58 61 l 479 785 l 542 785 l 696 65 l 769 22 l 765 0 l 471 0 l 475 22 l 582 65 l 536 283 l 260 283 l 133 61 l 228 22 l 222 0 l -21 0 m 293 343 l 524 343 l 461 636 l 293 343 m 699 1031 l 788 1229 l 894 1229 q 878 1188 890 1208 q 838 1143 867 1168 l 710 1031 l 699 1031 m 328 882 l 547 1128 l 586 1128 l 717 882 l 703 882 l 550 1024 l 342 882 l 328 882 z "},"ậ":{"ha":881,"x_min":-21,"x_max":769,"o":"m -21 0 l -17 22 l 58 61 l 479 785 l 542 785 l 696 65 l 769 22 l 765 0 l 471 0 l 475 22 l 582 65 l 536 283 l 260 283 l 133 61 l 228 22 l 222 0 l -21 0 m 293 343 l 524 343 l 461 636 l 293 343 m 328 882 l 547 1128 l 586 1128 l 717 882 l 703 882 l 550 1024 l 342 882 l 328 882 m 325 -290 q 269 -267 293 -290 q 246 -211 246 -243 q 269 -156 246 -179 q 325 -132 293 -132 q 381 -156 357 -132 q 404 -211 404 -179 q 381 -267 404 -243 q 325 -290 357 -290 z "},"ầ":{"ha":881,"x_min":-21,"x_max":769,"o":"m -21 0 l -17 22 l 58 61 l 479 785 l 542 785 l 696 65 l 769 22 l 765 0 l 471 0 l 475 22 l 582 65 l 536 283 l 260 283 l 133 61 l 228 22 l 222 0 l -21 0 m 293 343 l 524 343 l 461 636 l 293 343 m 372 1031 l 240 1142 q 212 1186 215 1164 q 211 1229 208 1208 l 304 1229 l 386 1031 l 372 1031 m 328 882 l 547 1128 l 586 1128 l 717 882 l 703 882 l 550 1024 l 342 882 l 328 882 z "},"ẩ":{"ha":881,"x_min":-21,"x_max":769,"o":"m -21 0 l -17 22 l 58 61 l 479 785 l 542 785 l 696 65 l 769 22 l 765 0 l 471 0 l 475 22 l 582 65 l 536 283 l 260 283 l 133 61 l 228 22 l 222 0 l -21 0 m 293 343 l 524 343 l 461 636 l 293 343 z "},"ẫ":{"ha":881,"x_min":-21,"x_max":818,"o":"m -21 0 l -17 22 l 58 61 l 479 785 l 542 785 l 696 65 l 769 22 l 765 0 l 471 0 l 475 22 l 582 65 l 536 283 l 260 283 l 133 61 l 228 22 l 222 0 l -21 0 m 293 343 l 524 343 l 461 636 l 293 343 z "},"ả":{"ha":881,"x_min":-21,"x_max":769,"o":"m -21 0 l -17 22 l 58 61 l 479 785 l 542 785 l 696 65 l 769 22 l 765 0 l 471 0 l 475 22 l 582 65 l 536 283 l 260 283 l 133 61 l 228 22 l 222 0 l -21 0 m 293 343 l 524 343 l 461 636 l 293 343 m 468 896 l 468 897 q 548 935 521 914 q 575 994 575 957 q 555 1034 575 1018 q 486 1060 535 1050 l 511 1128 q 612 1090 583 1121 q 640 1024 640 1060 q 475 888 640 921 l 468 896 z "},"æ":{"ha":1186,"x_min":-21,"x_max":1138,"o":"m -21 0 l -17 22 l 61 60 l 640 778 l 1138 778 l 1100 575 l 1076 575 l 1036 715 l 757 715 l 704 435 l 906 435 l 982 532 l 1004 532 l 954 267 l 931 267 l 896 372 l 693 372 l 635 63 l 968 63 l 1061 215 l 1083 215 l 1046 0 l 419 0 l 424 22 l 526 78 l 564 283 l 321 283 l 144 61 l 231 22 l 226 0 l -21 0 m 369 343 l 575 343 l 639 682 l 369 343 z "},"ǽ":{"ha":1186,"x_min":-21,"x_max":1138,"o":"m -21 0 l -17 22 l 61 60 l 640 778 l 1138 778 l 1100 575 l 1076 575 l 1036 715 l 757 715 l 704 435 l 906 435 l 982 532 l 1004 532 l 954 267 l 931 267 l 896 372 l 693 372 l 635 63 l 968 63 l 1061 215 l 1083 215 l 1046 0 l 419 0 l 424 22 l 526 78 l 564 283 l 321 283 l 144 61 l 231 22 l 226 0 l -21 0 m 369 343 l 575 343 l 639 682 l 369 343 m 736 882 l 883 1128 l 992 1128 q 975 1088 988 1107 q 932 1040 963 1068 l 750 882 l 736 882 z "},"ć":{"ha":846,"x_min":83,"x_max":825,"o":"m 426 -14 q 175 76 267 -14 q 83 314 83 165 q 120 499 83 413 q 223 652 157 586 q 376 756 289 718 q 565 793 464 793 q 683 780 635 793 q 790 736 732 767 l 758 529 l 735 529 l 689 674 q 627 718 660 704 q 549 732 594 732 q 357 676 435 732 q 240 529 279 621 q 200 329 200 438 q 267 119 200 194 q 442 43 335 43 q 544 60 500 43 q 622 101 588 78 l 717 232 l 739 232 l 693 49 q 583 4 644 22 q 426 -14 522 -14 m 569 882 l 717 1128 l 825 1128 q 808 1088 821 1107 q 765 1040 796 1068 l 583 882 l 569 882 z "},"ĉ":{"ha":846,"x_min":83,"x_max":790,"o":"m 426 -14 q 175 76 267 -14 q 83 314 83 165 q 120 499 83 413 q 223 652 157 586 q 376 756 289 718 q 565 793 464 793 q 683 780 635 793 q 790 736 732 767 l 758 529 l 735 529 l 689 674 q 627 718 660 704 q 549 732 594 732 q 357 676 435 732 q 240 529 279 621 q 200 329 200 438 q 267 119 200 194 q 442 43 335 43 q 544 60 500 43 q 622 101 588 78 l 717 232 l 739 232 l 693 49 q 583 4 644 22 q 426 -14 522 -14 m 379 882 l 599 1128 l 638 1128 l 768 882 l 754 882 l 601 1024 l 393 882 l 379 882 z "},"č":{"ha":846,"x_min":83,"x_max":815,"o":"m 426 -14 q 175 76 267 -14 q 83 314 83 165 q 120 499 83 413 q 223 652 157 586 q 376 756 289 718 q 565 793 464 793 q 683 780 635 793 q 790 736 732 767 l 758 529 l 735 529 l 689 674 q 627 718 660 704 q 549 732 594 732 q 357 676 435 732 q 240 529 279 621 q 200 329 200 438 q 267 119 200 194 q 442 43 335 43 q 544 60 500 43 q 622 101 588 78 l 717 232 l 739 232 l 693 49 q 583 4 644 22 q 426 -14 522 -14 m 558 882 l 426 1128 l 440 1128 l 593 986 l 801 1128 l 815 1128 l 597 882 l 558 882 z "},"ċ":{"ha":846,"x_min":83,"x_max":790,"o":"m 426 -14 q 175 76 267 -14 q 83 314 83 165 q 120 499 83 413 q 223 652 157 586 q 376 756 289 718 q 565 793 464 793 q 683 780 635 793 q 790 736 732 767 l 758 529 l 735 529 l 689 674 q 627 718 660 704 q 549 732 594 732 q 357 676 435 732 q 240 529 279 621 q 200 329 200 438 q 267 119 200 194 q 442 43 335 43 q 544 60 500 43 q 622 101 588 78 l 717 232 l 739 232 l 693 49 q 583 4 644 22 q 426 -14 522 -14 m 596 925 q 540 949 564 925 q 517 1004 517 972 q 540 1060 517 1036 q 596 1083 564 1083 q 651 1060 628 1083 q 675 1004 675 1036 q 651 949 675 972 q 596 925 628 925 z "},"ç":{"ha":846,"x_min":83,"x_max":790,"o":"m 358 -333 q 293 -322 322 -333 q 250 -292 264 -311 l 253 -276 l 257 -276 q 294 -290 275 -285 q 342 -296 314 -296 q 431 -229 431 -296 q 403 -174 431 -194 q 311 -132 376 -153 l 388 -12 q 164 86 244 -1 q 83 314 83 174 q 120 499 83 413 q 223 652 157 586 q 376 756 289 718 q 565 793 464 793 q 683 780 635 793 q 790 736 732 767 l 758 529 l 735 529 l 689 674 q 627 718 660 704 q 549 732 594 732 q 357 676 435 732 q 240 529 279 621 q 200 329 200 438 q 267 119 200 194 q 442 43 335 43 q 544 60 500 43 q 622 101 588 78 l 717 232 l 739 232 l 693 49 q 583 4 644 22 q 428 -14 522 -14 l 388 -76 q 476 -131 450 -100 q 503 -210 503 -161 q 465 -297 503 -261 q 358 -333 426 -333 z "},"ḉ":{"ha":846,"x_min":83,"x_max":825,"o":"m 569 882 l 717 1128 l 825 1128 q 808 1087 821 1107 q 765 1040 796 1067 l 583 882 l 569 882 m 358 -333 q 293 -322 322 -333 q 250 -292 264 -311 l 253 -276 l 257 -276 q 294 -290 275 -285 q 342 -296 314 -296 q 431 -229 431 -296 q 403 -174 431 -194 q 311 -132 376 -153 l 388 -12 q 164 86 244 -1 q 83 314 83 174 q 120 499 83 413 q 223 652 157 586 q 376 756 289 718 q 565 793 464 793 q 683 780 635 793 q 790 736 732 767 l 758 529 l 735 529 l 689 674 q 627 718 660 704 q 549 732 594 732 q 357 676 435 732 q 240 529 279 621 q 200 329 200 438 q 267 119 200 194 q 442 43 335 43 q 544 60 500 43 q 622 101 588 78 l 717 232 l 739 232 l 693 49 q 583 4 644 22 q 428 -14 522 -14 l 388 -76 q 476 -131 450 -100 q 503 -210 503 -161 q 465 -297 503 -261 q 358 -333 426 -333 z "},"ď":{"ha":926,"x_min":14,"x_max":857,"o":"m 14 0 l 18 22 l 121 78 l 236 700 l 153 756 l 157 778 l 458 778 q 680 736 592 778 q 813 621 768 694 q 857 453 857 547 q 799 219 857 322 q 632 58 742 117 q 365 0 522 0 l 14 0 m 433 715 l 351 715 l 229 63 l 358 63 q 579 109 494 63 q 702 240 664 156 q 740 438 740 325 q 666 640 740 564 q 433 715 592 715 m 493 882 l 361 1128 l 375 1128 l 528 986 l 736 1128 l 750 1128 l 532 882 l 493 882 z "},"đ":{"ha":926,"x_min":14,"x_max":857,"o":"m 14 0 l 18 22 l 121 78 l 176 376 l 85 376 l 94 432 l 186 432 l 236 700 l 154 756 l 158 778 l 458 778 q 680 736 592 778 q 813 621 768 694 q 857 453 857 547 q 799 219 857 322 q 632 58 742 117 q 365 0 522 0 l 14 0 m 492 376 l 288 376 l 229 63 l 358 63 q 579 109 494 63 q 702 240 664 156 q 740 438 740 325 q 666 640 740 564 q 433 715 592 715 l 351 715 l 299 432 l 501 432 l 492 376 z "},"ḍ":{"ha":926,"x_min":14,"x_max":857,"o":"m 14 0 l 18 22 l 121 78 l 236 700 l 153 756 l 157 778 l 458 778 q 680 736 592 778 q 813 621 768 694 q 857 453 857 547 q 799 219 857 322 q 632 58 742 117 q 365 0 522 0 l 14 0 m 433 715 l 351 715 l 229 63 l 358 63 q 579 109 494 63 q 702 240 664 156 q 740 438 740 325 q 666 640 740 564 q 433 715 592 715 m 354 -290 q 299 -267 322 -290 q 275 -211 275 -243 q 299 -156 275 -179 q 354 -132 322 -132 q 410 -156 386 -132 q 433 -211 433 -179 q 410 -267 433 -243 q 354 -290 386 -290 z "},"ḏ":{"ha":926,"x_min":14,"x_max":857,"o":"m 14 0 l 18 22 l 121 78 l 236 700 l 153 756 l 157 778 l 458 778 q 680 736 592 778 q 813 621 768 694 q 857 453 857 547 q 799 219 857 322 q 632 58 742 117 q 365 0 522 0 l 14 0 m 433 715 l 351 715 l 229 63 l 358 63 q 579 109 494 63 q 702 240 664 156 q 740 438 740 325 q 666 640 740 564 q 433 715 592 715 m 171 -237 l 182 -176 l 533 -176 l 522 -237 l 171 -237 z "},"è":{"ha":781,"x_min":14,"x_max":732,"o":"m 14 0 l 18 22 l 121 78 l 236 700 l 153 756 l 157 778 l 732 778 l 694 575 l 671 575 l 631 715 l 351 715 l 299 435 l 500 435 l 576 532 l 599 532 l 549 267 l 525 267 l 490 372 l 288 372 l 229 63 l 563 63 l 656 215 l 678 215 l 640 0 l 14 0 m 497 882 l 318 1040 q 289 1085 292 1063 q 289 1128 286 1107 l 386 1128 l 511 882 l 497 882 z "},"é":{"ha":781,"x_min":14,"x_max":754,"o":"m 14 0 l 18 22 l 121 78 l 236 700 l 153 756 l 157 778 l 732 778 l 694 575 l 671 575 l 631 715 l 351 715 l 299 435 l 500 435 l 576 532 l 599 532 l 549 267 l 525 267 l 490 372 l 288 372 l 229 63 l 563 63 l 656 215 l 678 215 l 640 0 l 14 0 m 499 882 l 646 1128 l 754 1128 q 738 1088 750 1107 q 694 1040 725 1068 l 513 882 l 499 882 z "},"ê":{"ha":781,"x_min":14,"x_max":732,"o":"m 14 0 l 18 22 l 121 78 l 236 700 l 153 756 l 157 778 l 732 778 l 694 575 l 671 575 l 631 715 l 351 715 l 299 435 l 500 435 l 576 532 l 599 532 l 549 267 l 525 267 l 490 372 l 288 372 l 229 63 l 563 63 l 656 215 l 678 215 l 640 0 l 14 0 m 308 882 l 528 1128 l 567 1128 l 697 882 l 683 882 l 531 1024 l 322 882 l 308 882 z "},"ě":{"ha":781,"x_min":14,"x_max":744,"o":"m 14 0 l 18 22 l 121 78 l 236 700 l 153 756 l 157 778 l 732 778 l 694 575 l 671 575 l 631 715 l 351 715 l 299 435 l 500 435 l 576 532 l 599 532 l 549 267 l 525 267 l 490 372 l 288 372 l 229 63 l 563 63 l 656 215 l 678 215 l 640 0 l 14 0 m 488 882 l 356 1128 l 369 1128 l 522 986 l 731 1128 l 744 1128 l 526 882 l 488 882 z "},"ẽ":{"ha":781,"x_min":14,"x_max":743,"o":"m 14 0 l 18 22 l 121 78 l 236 700 l 153 756 l 157 778 l 732 778 l 694 575 l 671 575 l 631 715 l 351 715 l 299 435 l 500 435 l 576 532 l 599 532 l 549 267 l 525 267 l 490 372 l 288 372 l 229 63 l 563 63 l 656 215 l 678 215 l 640 0 l 14 0 m 311 918 q 374 1033 349 996 q 421 1080 400 1069 q 467 1090 442 1090 q 510 1076 492 1090 q 545 1044 529 1063 q 578 1011 561 1025 q 618 997 596 997 q 663 1013 642 997 q 721 1090 685 1028 l 743 1090 q 680 976 706 1013 q 633 928 654 939 q 588 918 611 918 q 544 932 563 918 q 509 965 525 946 q 476 997 493 983 q 436 1011 458 1011 q 391 996 413 1011 q 333 918 369 981 l 311 918 z "},"ë":{"ha":781,"x_min":14,"x_max":732,"o":"m 14 0 l 18 22 l 121 78 l 236 700 l 153 756 l 157 778 l 732 778 l 694 575 l 671 575 l 631 715 l 351 715 l 299 435 l 500 435 l 576 532 l 599 532 l 549 267 l 525 267 l 490 372 l 288 372 l 229 63 l 563 63 l 656 215 l 678 215 l 640 0 l 14 0 m 408 942 q 364 960 382 942 q 346 1004 346 978 q 364 1049 346 1031 q 408 1067 382 1067 q 453 1049 435 1067 q 471 1004 471 1031 q 453 960 471 978 q 408 942 435 942 m 644 942 q 600 960 618 942 q 582 1004 582 978 q 600 1049 582 1031 q 644 1067 618 1067 q 689 1049 671 1067 q 707 1004 707 1031 q 689 960 707 978 q 644 942 671 942 z "},"ē":{"ha":781,"x_min":14,"x_max":732,"o":"m 14 0 l 18 22 l 121 78 l 236 700 l 153 756 l 157 778 l 732 778 l 694 575 l 671 575 l 631 715 l 351 715 l 299 435 l 500 435 l 576 532 l 599 532 l 549 267 l 525 267 l 490 372 l 288 372 l 229 63 l 563 63 l 656 215 l 678 215 l 640 0 l 14 0 m 346 972 l 357 1033 l 708 1033 l 696 972 l 346 972 z "},"ĕ":{"ha":781,"x_min":14,"x_max":739,"o":"m 14 0 l 18 22 l 121 78 l 236 700 l 153 756 l 157 778 l 732 778 l 694 575 l 671 575 l 631 715 l 351 715 l 299 435 l 500 435 l 576 532 l 599 532 l 549 267 l 525 267 l 490 372 l 288 372 l 229 63 l 563 63 l 656 215 l 678 215 l 640 0 l 14 0 m 511 896 q 390 953 422 896 q 353 1128 357 1011 l 367 1128 q 398 1027 378 1060 q 447 985 418 994 q 517 975 476 975 q 591 984 557 975 q 658 1026 625 993 q 725 1128 690 1058 l 739 1128 q 648 953 703 1011 q 511 896 593 896 z "},"ė":{"ha":781,"x_min":14,"x_max":732,"o":"m 14 0 l 18 22 l 121 78 l 236 700 l 153 756 l 157 778 l 732 778 l 694 575 l 671 575 l 631 715 l 351 715 l 299 435 l 500 435 l 576 532 l 599 532 l 549 267 l 525 267 l 490 372 l 288 372 l 229 63 l 563 63 l 656 215 l 678 215 l 640 0 l 14 0 m 525 925 q 469 949 493 925 q 446 1004 446 972 q 469 1060 446 1036 q 525 1083 493 1083 q 581 1060 557 1083 q 604 1004 604 1036 q 581 949 604 972 q 525 925 557 925 z "},"ę":{"ha":781,"x_min":14,"x_max":732,"o":"m 14 0 l 18 22 l 121 78 l 236 700 l 153 756 l 157 778 l 732 778 l 694 575 l 671 575 l 631 715 l 351 715 l 299 435 l 500 435 l 576 532 l 599 532 l 549 267 l 525 267 l 490 372 l 288 372 l 229 63 l 563 63 l 656 215 l 678 215 l 640 0 l 551 0 q 485 -103 508 -54 q 463 -194 463 -151 q 483 -253 463 -235 q 540 -272 504 -272 q 574 -267 556 -272 q 610 -250 592 -262 l 614 -250 l 611 -268 q 490 -333 565 -333 q 408 -303 439 -333 q 378 -221 378 -274 q 413 -116 378 -169 q 511 0 449 -62 l 14 0 z "},"ẹ":{"ha":781,"x_min":14,"x_max":732,"o":"m 14 0 l 18 22 l 121 78 l 236 700 l 153 756 l 157 778 l 732 778 l 694 575 l 671 575 l 631 715 l 351 715 l 299 435 l 500 435 l 576 532 l 599 532 l 549 267 l 525 267 l 490 372 l 288 372 l 229 63 l 563 63 l 656 215 l 678 215 l 640 0 l 14 0 m 326 -290 q 271 -267 294 -290 q 247 -211 247 -243 q 271 -156 247 -179 q 326 -132 294 -132 q 382 -156 358 -132 q 406 -211 406 -179 q 382 -267 406 -243 q 326 -290 358 -290 z "},"ȅ":{"ha":781,"x_min":14,"x_max":732,"o":"m 14 0 l 18 22 l 121 78 l 236 700 l 153 756 l 157 778 l 732 778 l 694 575 l 671 575 l 631 715 l 351 715 l 299 435 l 500 435 l 576 532 l 599 532 l 549 267 l 525 267 l 490 372 l 288 372 l 229 63 l 563 63 l 656 215 l 678 215 l 640 0 l 14 0 m 564 882 l 432 1047 q 410 1088 414 1071 q 411 1128 407 1106 l 488 1128 l 578 882 l 564 882 m 422 882 l 261 1047 q 236 1090 239 1069 q 238 1128 233 1110 l 314 1128 l 436 882 l 422 882 z "},"ȇ":{"ha":781,"x_min":14,"x_max":732,"o":"m 14 0 l 18 22 l 121 78 l 236 700 l 153 756 l 157 778 l 732 778 l 694 575 l 671 575 l 631 715 l 351 715 l 299 435 l 500 435 l 576 532 l 599 532 l 549 267 l 525 267 l 490 372 l 288 372 l 229 63 l 563 63 l 656 215 l 678 215 l 640 0 l 14 0 m 313 896 q 403 1070 349 1013 q 540 1128 458 1128 q 662 1070 629 1128 q 699 896 694 1013 l 685 896 q 653 997 674 964 q 604 1039 633 1029 q 535 1049 575 1049 q 460 1040 494 1049 q 394 998 426 1031 q 326 896 361 965 l 313 896 z "},"ế":{"ha":781,"x_min":14,"x_max":875,"o":"m 14 0 l 18 22 l 121 78 l 236 700 l 153 756 l 157 778 l 732 778 l 694 575 l 671 575 l 631 715 l 351 715 l 299 435 l 500 435 l 576 532 l 599 532 l 549 267 l 525 267 l 490 372 l 288 372 l 229 63 l 563 63 l 656 215 l 678 215 l 640 0 l 14 0 m 679 1031 l 768 1229 l 875 1229 q 859 1188 871 1208 q 818 1143 847 1168 l 690 1031 l 679 1031 m 308 882 l 528 1128 l 567 1128 l 697 882 l 683 882 l 531 1024 l 322 882 l 308 882 z "},"ệ":{"ha":781,"x_min":14,"x_max":732,"o":"m 14 0 l 18 22 l 121 78 l 236 700 l 153 756 l 157 778 l 732 778 l 694 575 l 671 575 l 631 715 l 351 715 l 299 435 l 500 435 l 576 532 l 599 532 l 549 267 l 525 267 l 490 372 l 288 372 l 229 63 l 563 63 l 656 215 l 678 215 l 640 0 l 14 0 m 308 882 l 528 1128 l 567 1128 l 697 882 l 683 882 l 531 1024 l 322 882 l 308 882 m 326 -290 q 271 -267 294 -290 q 247 -211 247 -243 q 271 -156 247 -179 q 326 -132 294 -132 q 382 -156 358 -132 q 406 -211 406 -179 q 382 -267 406 -243 q 326 -290 358 -290 z "},"ề":{"ha":781,"x_min":14,"x_max":732,"o":"m 14 0 l 18 22 l 121 78 l 236 700 l 153 756 l 157 778 l 732 778 l 694 575 l 671 575 l 631 715 l 351 715 l 299 435 l 500 435 l 576 532 l 599 532 l 549 267 l 525 267 l 490 372 l 288 372 l 229 63 l 563 63 l 656 215 l 678 215 l 640 0 l 14 0 m 353 1031 l 221 1142 q 192 1186 196 1164 q 192 1229 189 1208 l 285 1229 l 367 1031 l 353 1031 m 308 882 l 528 1128 l 567 1128 l 697 882 l 683 882 l 531 1024 l 322 882 l 308 882 z "},"ể":{"ha":781,"x_min":14,"x_max":732,"o":"m 14 0 l 18 22 l 121 78 l 236 700 l 153 756 l 157 778 l 732 778 l 694 575 l 671 575 l 631 715 l 351 715 l 299 435 l 500 435 l 576 532 l 599 532 l 549 267 l 525 267 l 490 372 l 288 372 l 229 63 l 563 63 l 656 215 l 678 215 l 640 0 l 14 0 z "},"ễ":{"ha":781,"x_min":14,"x_max":799,"o":"m 14 0 l 18 22 l 121 78 l 236 700 l 153 756 l 157 778 l 732 778 l 694 575 l 671 575 l 631 715 l 351 715 l 299 435 l 500 435 l 576 532 l 599 532 l 549 267 l 525 267 l 490 372 l 288 372 l 229 63 l 563 63 l 656 215 l 678 215 l 640 0 l 14 0 z "},"ẻ":{"ha":781,"x_min":14,"x_max":732,"o":"m 14 0 l 18 22 l 121 78 l 236 700 l 153 756 l 157 778 l 732 778 l 694 575 l 671 575 l 631 715 l 351 715 l 299 435 l 500 435 l 576 532 l 599 532 l 549 267 l 525 267 l 490 372 l 288 372 l 229 63 l 563 63 l 656 215 l 678 215 l 640 0 l 14 0 m 449 896 l 449 897 q 528 935 501 914 q 556 994 556 957 q 535 1034 556 1018 q 467 1060 515 1050 l 492 1128 q 592 1090 564 1121 q 621 1024 621 1060 q 456 888 621 921 l 449 896 z "},"ḕ":{"ha":781,"x_min":14,"x_max":732,"o":"m 14 0 l 18 22 l 121 78 l 236 700 l 153 756 l 157 778 l 732 778 l 694 575 l 671 575 l 631 715 l 351 715 l 299 435 l 500 435 l 576 532 l 599 532 l 549 267 l 525 267 l 490 372 l 288 372 l 229 63 l 563 63 l 656 215 l 678 215 l 640 0 l 14 0 z "},"ḗ":{"ha":781,"x_min":14,"x_max":803,"o":"m 14 0 l 18 22 l 121 78 l 236 700 l 153 756 l 157 778 l 732 778 l 694 575 l 671 575 l 631 715 l 351 715 l 299 435 l 500 435 l 576 532 l 599 532 l 549 267 l 525 267 l 490 372 l 288 372 l 229 63 l 563 63 l 656 215 l 678 215 l 640 0 l 14 0 z "},"ḝ":{"ha":781,"x_min":14,"x_max":739,"o":"m 511 896 q 390 953 422 896 q 353 1128 357 1011 l 367 1128 q 398 1027 378 1060 q 448 985 418 994 q 517 975 478 975 q 591 984 557 975 q 657 1026 625 993 q 725 1128 689 1058 l 739 1128 q 648 953 703 1011 q 511 896 593 896 m 14 0 l 18 22 l 121 78 l 236 700 l 153 756 l 157 778 l 732 778 l 694 575 l 671 575 l 631 715 l 351 715 l 299 435 l 500 435 l 576 532 l 599 532 l 549 267 l 525 267 l 490 372 l 288 372 l 229 63 l 563 63 l 656 215 l 678 215 l 640 0 l 385 0 l 336 -76 q 425 -131 399 -100 q 451 -210 451 -161 q 413 -297 451 -261 q 307 -333 375 -333 q 243 -322 272 -333 q 199 -292 214 -311 l 201 -276 l 206 -276 q 243 -290 224 -285 q 290 -296 263 -296 q 379 -229 379 -296 q 352 -174 379 -194 q 260 -132 325 -153 l 343 0 l 14 0 z "},"ĝ":{"ha":917,"x_min":83,"x_max":824,"o":"m 400 -14 q 233 26 304 -14 q 122 139 161 67 q 83 304 83 211 q 122 501 83 411 q 226 656 160 590 q 380 757 293 721 q 565 793 467 793 q 692 781 639 793 q 807 735 746 768 l 776 531 l 753 531 l 710 669 q 640 717 676 703 q 550 732 604 732 q 363 681 442 732 q 242 540 285 629 q 199 335 199 450 q 267 122 199 200 q 444 44 335 44 q 513 49 479 44 q 585 68 547 54 l 619 267 l 526 318 l 531 340 l 824 340 l 819 318 l 731 267 l 699 79 q 565 11 640 36 q 400 -14 489 -14 m 379 882 l 599 1128 l 638 1128 l 768 882 l 754 882 l 601 1024 l 393 882 l 379 882 z "},"ğ":{"ha":917,"x_min":83,"x_max":824,"o":"m 400 -14 q 233 26 304 -14 q 122 139 161 67 q 83 304 83 211 q 122 501 83 411 q 226 656 160 590 q 380 757 293 721 q 565 793 467 793 q 692 781 639 793 q 807 735 746 768 l 776 531 l 753 531 l 710 669 q 640 717 676 703 q 550 732 604 732 q 363 681 442 732 q 242 540 285 629 q 199 335 199 450 q 267 122 199 200 q 444 44 335 44 q 513 49 479 44 q 585 68 547 54 l 619 267 l 526 318 l 531 340 l 824 340 l 819 318 l 731 267 l 699 79 q 565 11 640 36 q 400 -14 489 -14 m 582 896 q 460 953 493 896 q 424 1128 428 1011 l 438 1128 q 469 1027 449 1060 q 518 985 489 994 q 588 975 547 975 q 662 984 628 975 q 728 1026 696 993 q 796 1128 761 1058 l 810 1128 q 719 953 774 1011 q 582 896 664 896 z "},"ġ":{"ha":917,"x_min":83,"x_max":824,"o":"m 400 -14 q 233 26 304 -14 q 122 139 161 67 q 83 304 83 211 q 122 501 83 411 q 226 656 160 590 q 380 757 293 721 q 565 793 467 793 q 692 781 639 793 q 807 735 746 768 l 776 531 l 753 531 l 710 669 q 640 717 676 703 q 550 732 604 732 q 363 681 442 732 q 242 540 285 629 q 199 335 199 450 q 267 122 199 200 q 444 44 335 44 q 513 49 479 44 q 585 68 547 54 l 619 267 l 526 318 l 531 340 l 824 340 l 819 318 l 731 267 l 699 79 q 565 11 640 36 q 400 -14 489 -14 m 596 925 q 540 949 564 925 q 517 1004 517 972 q 540 1060 517 1036 q 596 1083 564 1083 q 651 1060 628 1083 q 675 1004 675 1036 q 651 949 675 972 q 596 925 628 925 z "},"ģ":{"ha":917,"x_min":83,"x_max":824,"o":"m 400 -14 q 233 26 304 -14 q 122 139 161 67 q 83 304 83 211 q 122 501 83 411 q 226 656 160 590 q 380 757 293 721 q 565 793 467 793 q 692 781 639 793 q 807 735 746 768 l 776 531 l 753 531 l 710 669 q 640 717 676 703 q 550 732 604 732 q 363 681 442 732 q 242 540 285 629 q 199 335 199 450 q 267 122 199 200 q 444 44 335 44 q 513 49 479 44 q 585 68 547 54 l 619 267 l 526 318 l 531 340 l 824 340 l 819 318 l 731 267 l 699 79 q 565 11 640 36 q 400 -14 489 -14 m 626 893 q 519 922 554 893 q 485 996 485 951 q 533 1087 485 1057 q 657 1117 582 1117 q 682 1116 668 1117 q 706 1113 696 1115 l 701 1097 q 685 1099 692 1099 q 669 1100 678 1100 q 591 1081 619 1100 q 563 1025 563 1061 q 590 976 563 990 q 678 961 618 961 l 671 922 q 658 901 668 910 q 626 893 649 893 z "},"ǧ":{"ha":917,"x_min":83,"x_max":824,"o":"m 400 -14 q 233 26 304 -14 q 122 139 161 67 q 83 304 83 211 q 122 501 83 411 q 226 656 160 590 q 380 757 293 721 q 565 793 467 793 q 692 781 639 793 q 807 735 746 768 l 776 531 l 753 531 l 710 669 q 640 717 676 703 q 550 732 604 732 q 363 681 442 732 q 242 540 285 629 q 199 335 199 450 q 267 122 199 200 q 444 44 335 44 q 513 49 479 44 q 585 68 547 54 l 619 267 l 526 318 l 531 340 l 824 340 l 819 318 l 731 267 l 699 79 q 565 11 640 36 q 400 -14 489 -14 m 558 882 l 426 1128 l 440 1128 l 593 986 l 801 1128 l 815 1128 l 597 882 l 558 882 z "},"ḡ":{"ha":917,"x_min":83,"x_max":824,"o":"m 400 -14 q 233 26 304 -14 q 122 139 161 67 q 83 304 83 211 q 122 501 83 411 q 226 656 160 590 q 380 757 293 721 q 565 793 467 793 q 692 781 639 793 q 807 735 746 768 l 776 531 l 753 531 l 710 669 q 640 717 676 703 q 550 732 604 732 q 363 681 442 732 q 242 540 285 629 q 199 335 199 450 q 267 122 199 200 q 444 44 335 44 q 513 49 479 44 q 585 68 547 54 l 619 267 l 526 318 l 531 340 l 824 340 l 819 318 l 731 267 l 699 79 q 565 11 640 36 q 400 -14 489 -14 m 417 972 l 428 1033 l 779 1033 l 767 972 l 417 972 z "},"ĥ":{"ha":947,"x_min":14,"x_max":933,"o":"m 14 0 l 18 22 l 110 78 l 224 700 l 139 756 l 143 778 l 438 778 l 433 756 l 335 700 l 286 433 l 671 433 l 719 700 l 635 756 l 639 778 l 933 778 l 929 756 l 831 700 l 717 78 l 807 22 l 803 0 l 510 0 l 513 22 l 606 78 l 660 371 l 275 371 l 221 78 l 311 22 l 307 0 l 14 0 m 369 882 l 589 1128 l 628 1128 l 758 882 l 744 882 l 592 1024 l 383 882 l 369 882 z "},"ħ":{"ha":947,"x_min":14,"x_max":933,"o":"m 14 0 l 18 22 l 110 78 l 199 567 l 108 567 l 118 622 l 210 622 l 224 700 l 139 756 l 143 778 l 438 778 l 433 756 l 335 700 l 321 622 l 706 622 l 719 700 l 635 756 l 639 778 l 933 778 l 929 756 l 831 700 l 817 622 l 910 622 l 900 567 l 806 567 l 717 78 l 807 22 l 803 0 l 510 0 l 513 22 l 606 78 l 660 371 l 275 371 l 221 78 l 311 22 l 307 0 l 14 0 m 286 433 l 671 433 l 694 567 l 310 567 l 286 433 z "},"ḥ":{"ha":947,"x_min":14,"x_max":933,"o":"m 14 0 l 18 22 l 110 78 l 224 700 l 139 756 l 143 778 l 438 778 l 433 756 l 335 700 l 286 433 l 671 433 l 719 700 l 635 756 l 639 778 l 933 778 l 929 756 l 831 700 l 717 78 l 807 22 l 803 0 l 510 0 l 513 22 l 606 78 l 660 371 l 275 371 l 221 78 l 311 22 l 307 0 l 14 0 m 371 -290 q 315 -267 339 -290 q 292 -211 292 -243 q 315 -156 292 -179 q 371 -132 339 -132 q 426 -156 403 -132 q 450 -211 450 -179 q 426 -267 450 -243 q 371 -290 403 -290 z "},"ḫ":{"ha":947,"x_min":14,"x_max":933,"o":"m 14 0 l 18 22 l 110 78 l 224 700 l 139 756 l 143 778 l 438 778 l 433 756 l 335 700 l 286 433 l 671 433 l 719 700 l 635 756 l 639 778 l 933 778 l 929 756 l 831 700 l 717 78 l 807 22 l 803 0 l 510 0 l 513 22 l 606 78 l 660 371 l 275 371 l 221 78 l 311 22 l 307 0 l 14 0 m 354 -333 q 233 -276 265 -333 q 196 -101 200 -218 l 210 -101 q 241 -202 221 -169 q 291 -244 261 -235 q 360 -254 321 -254 q 434 -245 400 -254 q 500 -203 468 -236 q 568 -101 532 -171 l 582 -101 q 491 -276 546 -218 q 354 -333 436 -333 z "},"ì":{"ha":446,"x_min":14,"x_max":432,"o":"m 14 0 l 18 22 l 110 78 l 221 700 l 136 756 l 140 778 l 432 778 l 428 756 l 332 700 l 221 78 l 310 22 l 306 0 l 14 0 m 299 882 l 119 1040 q 90 1085 93 1063 q 90 1128 88 1107 l 188 1128 l 313 882 l 299 882 z "},"í":{"ha":446,"x_min":14,"x_max":556,"o":"m 14 0 l 18 22 l 110 78 l 221 700 l 136 756 l 140 778 l 432 778 l 428 756 l 332 700 l 221 78 l 310 22 l 306 0 l 14 0 m 300 882 l 447 1128 l 556 1128 q 539 1088 551 1107 q 496 1040 526 1068 l 314 882 l 300 882 z "},"î":{"ha":446,"x_min":14,"x_max":499,"o":"m 14 0 l 18 22 l 110 78 l 221 700 l 136 756 l 140 778 l 432 778 l 428 756 l 332 700 l 221 78 l 310 22 l 306 0 l 14 0 m 110 882 l 329 1128 l 368 1128 l 499 882 l 485 882 l 332 1024 l 124 882 l 110 882 z "},"ĩ":{"ha":446,"x_min":14,"x_max":544,"o":"m 14 0 l 18 22 l 110 78 l 221 700 l 136 756 l 140 778 l 432 778 l 428 756 l 332 700 l 221 78 l 310 22 l 306 0 l 14 0 m 113 918 q 176 1033 150 996 q 222 1080 201 1069 q 268 1090 243 1090 q 312 1076 293 1090 q 347 1044 331 1063 q 380 1011 363 1025 q 419 997 397 997 q 465 1013 443 997 q 522 1090 486 1028 l 544 1090 q 481 976 507 1013 q 434 928 456 939 q 389 918 413 918 q 345 932 364 918 q 310 965 326 946 q 277 997 294 983 q 238 1011 260 1011 q 192 996 214 1011 q 135 918 171 981 l 113 918 z "},"ï":{"ha":446,"x_min":14,"x_max":508,"o":"m 14 0 l 18 22 l 110 78 l 221 700 l 136 756 l 140 778 l 432 778 l 428 756 l 332 700 l 221 78 l 310 22 l 306 0 l 14 0 m 210 942 q 165 960 183 942 q 147 1004 147 978 q 165 1049 147 1031 q 210 1067 183 1067 q 254 1049 236 1067 q 272 1004 272 1031 q 254 960 272 978 q 210 942 236 942 m 446 942 q 401 960 419 942 q 383 1004 383 978 q 401 1049 383 1031 q 446 1067 419 1067 q 490 1049 472 1067 q 508 1004 508 1031 q 490 960 508 978 q 446 942 472 942 z "},"ī":{"ha":446,"x_min":14,"x_max":510,"o":"m 14 0 l 18 22 l 110 78 l 221 700 l 136 756 l 140 778 l 432 778 l 428 756 l 332 700 l 221 78 l 310 22 l 306 0 l 14 0 m 147 972 l 158 1033 l 510 1033 l 497 972 l 147 972 z "},"ĭ":{"ha":446,"x_min":14,"x_max":540,"o":"m 14 0 l 18 22 l 110 78 l 221 700 l 136 756 l 140 778 l 432 778 l 428 756 l 332 700 l 221 78 l 310 22 l 306 0 l 14 0 m 313 896 q 191 953 224 896 q 154 1128 158 1011 l 168 1128 q 199 1027 179 1060 q 249 985 219 994 q 318 975 278 975 q 392 984 358 975 q 459 1026 426 993 q 526 1128 492 1058 l 540 1128 q 449 953 504 1011 q 313 896 394 896 z "},"į":{"ha":446,"x_min":3,"x_max":432,"o":"m 14 0 l 18 22 l 110 78 l 221 700 l 136 756 l 140 778 l 432 778 l 428 756 l 332 700 l 221 78 l 310 22 l 306 0 l 176 0 q 110 -103 133 -54 q 88 -194 88 -151 q 108 -253 88 -235 q 165 -272 129 -272 q 199 -267 181 -272 q 235 -250 217 -262 l 239 -250 l 236 -268 q 115 -333 190 -333 q 33 -303 64 -333 q 3 -221 3 -274 q 38 -116 3 -169 q 136 0 74 -62 l 14 0 z "},"ị":{"ha":446,"x_min":14,"x_max":432,"o":"m 14 0 l 18 22 l 110 78 l 221 700 l 136 756 l 140 778 l 432 778 l 428 756 l 332 700 l 221 78 l 310 22 l 306 0 l 14 0 m 115 -290 q 60 -267 83 -290 q 36 -211 36 -243 q 60 -156 36 -179 q 115 -132 83 -132 q 171 -156 147 -132 q 194 -211 194 -179 q 171 -267 194 -243 q 115 -290 147 -290 z "},"ȉ":{"ha":446,"x_min":14,"x_max":432,"o":"m 14 0 l 18 22 l 110 78 l 221 700 l 136 756 l 140 778 l 432 778 l 428 756 l 332 700 l 221 78 l 310 22 l 306 0 l 14 0 m 365 882 l 233 1047 q 212 1088 215 1071 q 213 1128 208 1106 l 289 1128 l 379 882 l 365 882 m 224 882 l 63 1047 q 38 1090 40 1069 q 39 1128 35 1110 l 115 1128 l 238 882 l 224 882 z "},"ȋ":{"ha":446,"x_min":14,"x_max":500,"o":"m 14 0 l 18 22 l 110 78 l 221 700 l 136 756 l 140 778 l 432 778 l 428 756 l 332 700 l 221 78 l 310 22 l 306 0 l 14 0 m 114 896 q 205 1070 150 1013 q 342 1128 260 1128 q 463 1070 431 1128 q 500 896 496 1013 l 486 896 q 455 997 475 964 q 406 1039 435 1029 q 336 1049 376 1049 q 262 1040 296 1049 q 195 998 228 1031 q 128 896 163 965 l 114 896 z "},"ỉ":{"ha":446,"x_min":14,"x_max":432,"o":"m 14 0 l 18 22 l 110 78 l 221 700 l 136 756 l 140 778 l 432 778 l 428 756 l 332 700 l 221 78 l 310 22 l 306 0 l 14 0 m 250 896 l 250 897 q 330 935 303 914 q 357 994 357 957 q 337 1034 357 1018 q 268 1060 317 1050 l 293 1128 q 394 1090 365 1121 q 422 1024 422 1060 q 257 888 422 921 l 250 896 z "},"ḯ":{"ha":446,"x_min":14,"x_max":601,"o":"m 14 0 l 18 22 l 110 78 l 221 700 l 136 756 l 140 778 l 432 778 l 428 756 l 332 700 l 221 78 l 310 22 l 306 0 l 14 0 z "},"ĳ":{"ha":889,"x_min":14,"x_max":882,"o":"m 14 0 l 18 22 l 110 78 l 221 700 l 136 756 l 140 778 l 432 778 l 428 756 l 332 700 l 221 78 l 310 22 l 306 0 l 14 0 m 393 -204 q 366 -192 376 -204 q 365 -150 356 -181 l 383 -93 l 390 -93 q 419 -101 408 -99 q 444 -104 429 -104 q 488 -94 468 -104 q 524 -49 508 -83 q 553 60 540 -14 l 667 700 l 586 756 l 590 778 l 882 778 l 878 756 l 778 700 l 704 283 q 639 43 681 150 q 539 -121 597 -64 q 458 -185 492 -167 q 393 -204 425 -204 z "},"ĵ":{"ha":443,"x_min":-90,"x_max":501,"o":"m -53 -204 q -80 -192 -69 -204 q -81 -150 -90 -181 l -62 -93 l -56 -93 q -27 -101 -37 -99 q -1 -104 -17 -104 q 42 -94 22 -104 q 78 -49 63 -83 q 107 60 94 -14 l 221 700 l 140 756 l 144 778 l 436 778 l 432 756 l 332 700 l 258 283 q 193 43 235 150 q 93 -121 151 -64 q 13 -185 46 -167 q -53 -204 -21 -204 m 113 882 l 332 1128 l 371 1128 l 501 882 l 488 882 l 335 1024 l 126 882 l 113 882 z "},"ķ":{"ha":851,"x_min":14,"x_max":829,"o":"m 14 0 l 18 22 l 118 78 l 231 700 l 149 756 l 153 778 l 447 778 l 443 756 l 342 700 l 229 78 l 311 22 l 307 0 l 14 0 m 569 0 l 292 399 l 631 713 l 560 756 l 564 778 l 829 778 l 824 756 l 735 717 l 403 421 l 650 76 l 736 22 l 732 0 l 569 0 m 290 -332 q 266 -331 279 -332 q 242 -328 253 -331 l 246 -312 q 263 -315 256 -314 q 278 -315 269 -315 q 356 -296 328 -315 q 385 -240 385 -276 q 357 -191 385 -206 q 269 -176 329 -176 l 276 -137 q 288 -117 278 -125 q 321 -108 297 -108 q 428 -137 393 -108 q 463 -211 463 -167 q 414 -302 463 -272 q 290 -332 365 -332 z "},"ĺ":{"ha":749,"x_min":14,"x_max":642,"o":"m 14 0 l 18 22 l 118 78 l 232 700 l 150 756 l 154 778 l 460 778 l 456 756 l 343 700 l 228 63 l 510 63 l 619 263 l 642 263 l 593 0 l 14 0 m 310 882 l 457 1128 l 565 1128 q 549 1088 561 1107 q 506 1040 536 1068 l 324 882 l 310 882 z "},"ľ":{"ha":749,"x_min":14,"x_max":660,"o":"m 14 0 l 18 22 l 118 78 l 232 700 l 150 756 l 154 778 l 460 778 l 456 756 l 343 700 l 228 63 l 510 63 l 619 263 l 642 263 l 593 0 l 14 0 m 476 518 l 556 778 l 657 778 q 655 734 660 757 q 628 685 650 711 l 490 518 l 476 518 z "},"ļ":{"ha":749,"x_min":14,"x_max":642,"o":"m 14 0 l 18 22 l 118 78 l 232 700 l 150 756 l 154 778 l 460 778 l 456 756 l 343 700 l 228 63 l 510 63 l 619 263 l 642 263 l 593 0 l 14 0 m 224 -332 q 199 -331 213 -332 q 175 -328 186 -331 l 179 -312 q 196 -315 189 -314 q 211 -315 203 -315 q 290 -296 261 -315 q 318 -240 318 -276 q 290 -191 318 -206 q 203 -176 263 -176 l 210 -137 q 221 -117 211 -125 q 254 -108 231 -108 q 361 -137 326 -108 q 396 -211 396 -167 q 347 -302 396 -272 q 224 -332 299 -332 z "},"ł":{"ha":749,"x_min":14,"x_max":642,"o":"m 14 0 l 18 22 l 118 78 l 158 294 l 56 236 l 69 308 l 171 368 l 232 700 l 150 756 l 154 778 l 460 778 l 456 756 l 343 700 l 294 428 l 490 542 l 476 469 l 281 356 l 228 63 l 510 63 l 619 263 l 642 263 l 593 0 l 14 0 z "},"ŀ":{"ha":749,"x_min":14,"x_max":674,"o":"m 14 0 l 18 22 l 118 78 l 232 700 l 150 756 l 154 778 l 460 778 l 456 756 l 343 700 l 228 63 l 510 63 l 619 263 l 642 263 l 593 0 l 14 0 m 594 322 q 539 346 563 322 q 515 401 515 369 q 539 457 515 433 q 594 481 563 481 q 650 457 626 481 q 674 401 674 433 q 650 346 674 369 q 594 322 626 322 z "},"ḷ":{"ha":749,"x_min":14,"x_max":642,"o":"m 14 0 l 18 22 l 118 78 l 232 700 l 150 756 l 154 778 l 460 778 l 456 756 l 343 700 l 228 63 l 510 63 l 619 263 l 642 263 l 593 0 l 14 0 m 290 -290 q 235 -267 258 -290 q 211 -211 211 -243 q 235 -156 211 -179 q 290 -132 258 -132 q 346 -156 322 -132 q 369 -211 369 -179 q 346 -267 369 -243 q 290 -290 322 -290 z "},"ḻ":{"ha":749,"x_min":14,"x_max":642,"o":"m 14 0 l 18 22 l 118 78 l 232 700 l 150 756 l 154 778 l 460 778 l 456 756 l 343 700 l 228 63 l 510 63 l 619 263 l 642 263 l 593 0 l 14 0 m 107 -237 l 118 -176 l 469 -176 l 458 -237 l 107 -237 z "},"ṃ":{"ha":1129,"x_min":14,"x_max":1115,"o":"m 14 0 l 18 22 l 118 78 l 257 703 l 158 756 l 163 778 l 394 778 l 543 165 l 889 778 l 1115 778 l 1110 756 l 1006 703 l 932 78 l 1004 22 l 1000 0 l 722 0 l 726 22 l 819 78 l 889 644 l 517 -6 l 467 -6 l 310 654 l 188 79 l 271 22 l 267 0 l 14 0 m 458 -290 q 403 -267 426 -290 q 379 -211 379 -243 q 403 -156 379 -179 q 458 -132 426 -132 q 514 -156 490 -132 q 538 -211 538 -179 q 514 -267 538 -243 q 458 -290 490 -290 z "},"ń":{"ha":938,"x_min":14,"x_max":931,"o":"m 14 0 l 18 22 l 122 78 l 235 699 l 151 756 l 156 778 l 335 778 l 663 194 l 753 703 l 647 756 l 651 778 l 931 778 l 926 756 l 822 703 l 697 -6 l 653 -6 l 292 629 l 192 76 l 300 22 l 296 0 l 14 0 m 563 882 l 710 1128 l 818 1128 q 801 1088 814 1107 q 758 1040 789 1068 l 576 882 l 563 882 z "},"ň":{"ha":938,"x_min":14,"x_max":931,"o":"m 14 0 l 18 22 l 122 78 l 235 699 l 151 756 l 156 778 l 335 778 l 663 194 l 753 703 l 647 756 l 651 778 l 931 778 l 926 756 l 822 703 l 697 -6 l 653 -6 l 292 629 l 192 76 l 300 22 l 296 0 l 14 0 m 551 882 l 419 1128 l 433 1128 l 586 986 l 794 1128 l 808 1128 l 590 882 l 551 882 z "},"ñ":{"ha":938,"x_min":14,"x_max":931,"o":"m 14 0 l 18 22 l 122 78 l 235 699 l 151 756 l 156 778 l 335 778 l 663 194 l 753 703 l 647 756 l 651 778 l 931 778 l 926 756 l 822 703 l 697 -6 l 653 -6 l 292 629 l 192 76 l 300 22 l 296 0 l 14 0 m 375 918 q 438 1033 413 996 q 485 1080 464 1069 q 531 1090 506 1090 q 574 1076 556 1090 q 609 1044 593 1063 q 642 1011 625 1025 q 682 997 660 997 q 727 1013 706 997 q 785 1090 749 1028 l 807 1090 q 744 976 769 1013 q 697 928 718 939 q 651 918 675 918 q 608 932 626 918 q 573 965 589 946 q 540 997 557 983 q 500 1011 522 1011 q 455 996 476 1011 q 397 918 433 981 l 375 918 z "},"ņ":{"ha":938,"x_min":14,"x_max":931,"o":"m 14 0 l 18 22 l 122 78 l 235 699 l 151 756 l 156 778 l 335 778 l 663 194 l 753 703 l 647 756 l 651 778 l 931 778 l 926 756 l 822 703 l 697 -6 l 653 -6 l 292 629 l 192 76 l 300 22 l 296 0 l 14 0 m 314 -332 q 290 -331 303 -332 q 265 -328 276 -331 l 269 -312 q 286 -315 279 -314 q 301 -315 293 -315 q 380 -296 351 -315 q 408 -240 408 -276 q 381 -191 408 -206 q 293 -176 353 -176 l 300 -137 q 311 -117 301 -125 q 344 -108 321 -108 q 451 -137 417 -108 q 486 -211 486 -167 q 438 -302 486 -272 q 314 -332 389 -332 z "},"ṅ":{"ha":938,"x_min":14,"x_max":931,"o":"m 14 0 l 18 22 l 122 78 l 235 699 l 151 756 l 156 778 l 335 778 l 663 194 l 753 703 l 647 756 l 651 778 l 931 778 l 926 756 l 822 703 l 697 -6 l 653 -6 l 292 629 l 192 76 l 300 22 l 296 0 l 14 0 m 589 925 q 533 949 557 925 q 510 1004 510 972 q 533 1060 510 1036 q 589 1083 557 1083 q 644 1060 621 1083 q 668 1004 668 1036 q 644 949 668 972 q 589 925 621 925 z "},"ṇ":{"ha":938,"x_min":14,"x_max":931,"o":"m 14 0 l 18 22 l 122 78 l 235 699 l 151 756 l 156 778 l 335 778 l 663 194 l 753 703 l 647 756 l 651 778 l 931 778 l 926 756 l 822 703 l 697 -6 l 653 -6 l 292 629 l 192 76 l 300 22 l 296 0 l 14 0 m 381 -290 q 325 -267 349 -290 q 301 -211 301 -243 q 325 -156 301 -179 q 381 -132 349 -132 q 436 -156 413 -132 q 460 -211 460 -179 q 436 -267 460 -243 q 381 -290 413 -290 z "},"ṉ":{"ha":938,"x_min":14,"x_max":931,"o":"m 14 0 l 18 22 l 122 78 l 235 699 l 151 756 l 156 778 l 335 778 l 663 194 l 753 703 l 647 756 l 651 778 l 931 778 l 926 756 l 822 703 l 697 -6 l 653 -6 l 292 629 l 192 76 l 300 22 l 296 0 l 14 0 m 197 -237 l 208 -176 l 560 -176 l 549 -237 l 197 -237 z "},"ò":{"ha":956,"x_min":83,"x_max":872,"o":"m 419 -14 q 244 30 319 -14 q 126 152 168 74 q 83 332 83 231 q 117 508 83 425 q 213 656 151 592 q 356 757 274 721 q 535 793 438 793 q 713 749 636 793 q 831 626 789 704 q 872 446 872 547 q 839 272 872 354 q 745 124 806 189 q 601 23 685 60 q 419 -14 518 -14 m 444 47 q 607 101 536 47 q 717 242 678 154 q 757 436 757 331 q 694 651 757 567 q 515 735 632 735 q 351 683 422 735 q 240 542 281 631 q 199 344 199 453 q 262 131 199 214 q 444 47 325 47 m 556 882 l 376 1040 q 347 1085 350 1063 q 347 1128 344 1107 l 444 1128 l 569 882 l 556 882 z "},"ó":{"ha":956,"x_min":83,"x_max":872,"o":"m 419 -14 q 244 30 319 -14 q 126 152 168 74 q 83 332 83 231 q 117 508 83 425 q 213 656 151 592 q 356 757 274 721 q 535 793 438 793 q 713 749 636 793 q 831 626 789 704 q 872 446 872 547 q 839 272 872 354 q 745 124 806 189 q 601 23 685 60 q 419 -14 518 -14 m 444 47 q 607 101 536 47 q 717 242 678 154 q 757 436 757 331 q 694 651 757 567 q 515 735 632 735 q 351 683 422 735 q 240 542 281 631 q 199 344 199 453 q 262 131 199 214 q 444 47 325 47 m 557 882 l 704 1128 l 813 1128 q 796 1088 808 1107 q 753 1040 783 1068 l 571 882 l 557 882 z "},"ô":{"ha":956,"x_min":83,"x_max":872,"o":"m 419 -14 q 244 30 319 -14 q 126 152 168 74 q 83 332 83 231 q 117 508 83 425 q 213 656 151 592 q 356 757 274 721 q 535 793 438 793 q 713 749 636 793 q 831 626 789 704 q 872 446 872 547 q 839 272 872 354 q 745 124 806 189 q 601 23 685 60 q 419 -14 518 -14 m 444 47 q 607 101 536 47 q 717 242 678 154 q 757 436 757 331 q 694 651 757 567 q 515 735 632 735 q 351 683 422 735 q 240 542 281 631 q 199 344 199 453 q 262 131 199 214 q 444 47 325 47 m 367 882 l 586 1128 l 625 1128 l 756 882 l 742 882 l 589 1024 l 381 882 l 367 882 z "},"õ":{"ha":956,"x_min":83,"x_max":872,"o":"m 419 -14 q 244 30 319 -14 q 126 152 168 74 q 83 332 83 231 q 117 508 83 425 q 213 656 151 592 q 356 757 274 721 q 535 793 438 793 q 713 749 636 793 q 831 626 789 704 q 872 446 872 547 q 839 272 872 354 q 745 124 806 189 q 601 23 685 60 q 419 -14 518 -14 m 444 47 q 607 101 536 47 q 717 242 678 154 q 757 436 757 331 q 694 651 757 567 q 515 735 632 735 q 351 683 422 735 q 240 542 281 631 q 199 344 199 453 q 262 131 199 214 q 444 47 325 47 m 369 918 q 433 1033 407 996 q 479 1080 458 1069 q 525 1090 500 1090 q 569 1076 550 1090 q 603 1044 588 1063 q 637 1011 619 1025 q 676 997 654 997 q 722 1013 700 997 q 779 1090 743 1028 l 801 1090 q 738 976 764 1013 q 691 928 713 939 q 646 918 669 918 q 602 932 621 918 q 567 965 583 946 q 534 997 551 983 q 494 1011 517 1011 q 449 996 471 1011 q 392 918 428 981 l 369 918 z "},"ö":{"ha":956,"x_min":83,"x_max":872,"o":"m 419 -14 q 244 30 319 -14 q 126 152 168 74 q 83 332 83 231 q 117 508 83 425 q 213 656 151 592 q 356 757 274 721 q 535 793 438 793 q 713 749 636 793 q 831 626 789 704 q 872 446 872 547 q 839 272 872 354 q 745 124 806 189 q 601 23 685 60 q 419 -14 518 -14 m 444 47 q 607 101 536 47 q 717 242 678 154 q 757 436 757 331 q 694 651 757 567 q 515 735 632 735 q 351 683 422 735 q 240 542 281 631 q 199 344 199 453 q 262 131 199 214 q 444 47 325 47 m 467 942 q 422 960 440 942 q 404 1004 404 978 q 422 1049 404 1031 q 467 1067 440 1067 q 511 1049 493 1067 q 529 1004 529 1031 q 511 960 529 978 q 467 942 493 942 m 703 942 q 658 960 676 942 q 640 1004 640 978 q 658 1049 640 1031 q 703 1067 676 1067 q 747 1049 729 1067 q 765 1004 765 1031 q 747 960 765 978 q 703 942 729 942 z "}}}
